<?xml version="1.0" encoding="utf-8"?>
<!-- Generator: Adobe Illustrator 14.0.0, SVG Export Plug-In . SVG Version: 6.00 Build 43363)  -->
<!DOCTYPE svg PUBLIC "-//W3C//DTD SVG 1.1//EN" "http://www.w3.org/Graphics/SVG/1.1/DTD/svg11.dtd">
<svg version="1.1" id="Layer_1" xmlns="http://www.w3.org/2000/svg" xmlns:xlink="http://www.w3.org/1999/xlink" x="0px" y="0px"
	 width="675.041px" height="344.037px" viewBox="0 0 675.041 344.037" enable-background="new 0 0 675.041 344.037"
	 xml:space="preserve">
<g>
	<defs>
		<rect id="SVGID_1_" y="0" width="675.041" height="344.036"/>
	</defs>
	<clipPath id="SVGID_2_">
		<use xlink:href="#SVGID_1_"  overflow="visible"/>
	</clipPath>
	<g clip-path="url(#SVGID_2_)">
		<rect y="0" fill="#FFFFFF" width="675.041" height="344.036"/>
	</g>
	<g clip-path="url(#SVGID_2_)">
		<path fill="#FFFFFF" d="M675.041,344.57H0c-0.294,0-0.534-0.238-0.534-0.533V0c0-0.295,0.239-0.534,0.534-0.534h675.041
			c0.295,0,0.533,0.239,0.533,0.534v344.036C675.574,344.332,675.336,344.57,675.041,344.57L675.041,344.57z M0.534,343.503h673.974
			V0.534H0.534V343.503L0.534,343.503z"/>
	</g>
</g>
<g>
	<defs>
		<rect id="SVGID_3_" x="33.553" y="22.738" width="208.35" height="273.122"/>
	</defs>
	<clipPath id="SVGID_4_">
		<use xlink:href="#SVGID_3_"  overflow="visible"/>
	</clipPath>
	<g clip-path="url(#SVGID_4_)">
		<g>
			<rect x="33.553" y="22.738" fill="#FFFFFF" width="208.35" height="273.122"/>
		</g>
		<g opacity="0">
			<path fill="#FFFFFF" d="M241.903,296.393H33.553c-0.294,0-0.534-0.238-0.534-0.533V22.738c0-0.294,0.239-0.534,0.534-0.534
				h208.35c0.294,0,0.534,0.239,0.534,0.534V295.86C242.437,296.155,242.197,296.393,241.903,296.393L241.903,296.393z
				 M34.086,295.327h207.283V23.271H34.086V295.327L34.086,295.327z"/>
		</g>
	</g>
	<g clip-path="url(#SVGID_4_)">
		<polygon fill="#EBEBEB" points="241.903,272.11 33.553,272.11 33.553,271.577 241.903,271.577 241.903,272.11 		"/>
	</g>
	<g clip-path="url(#SVGID_4_)">
		<polygon fill="#EBEBEB" points="241.903,202.495 33.553,202.495 33.553,201.961 241.903,201.961 241.903,202.495 		"/>
	</g>
	<g clip-path="url(#SVGID_4_)">
		<polygon fill="#EBEBEB" points="241.903,132.88 33.553,132.88 33.553,132.347 241.903,132.347 241.903,132.88 		"/>
	</g>
	<g clip-path="url(#SVGID_4_)">
		<polygon fill="#EBEBEB" points="241.903,63.265 33.553,63.265 33.553,62.732 241.903,62.732 241.903,63.265 		"/>
	</g>
	<g clip-path="url(#SVGID_4_)">
		<polygon fill="#EBEBEB" points="241.903,237.569 33.553,237.569 33.553,236.502 241.903,236.502 241.903,237.569 		"/>
	</g>
	<g clip-path="url(#SVGID_4_)">
		<polygon fill="#EBEBEB" points="241.903,167.955 33.553,167.955 33.553,166.887 241.903,166.887 241.903,167.955 		"/>
	</g>
	<g clip-path="url(#SVGID_4_)">
		<polygon fill="#EBEBEB" points="241.903,98.34 33.553,98.34 33.553,97.272 241.903,97.272 241.903,98.34 		"/>
	</g>
	<g clip-path="url(#SVGID_4_)">
		<polygon fill="#EBEBEB" points="241.903,28.725 33.553,28.725 33.553,27.658 241.903,27.658 241.903,28.725 		"/>
	</g>
	<g clip-path="url(#SVGID_4_)">
		<polygon fill="#EBEBEB" points="63.851,295.86 62.783,295.86 62.783,22.738 63.851,22.738 63.851,295.86 		"/>
	</g>
	<g clip-path="url(#SVGID_4_)">
		<polygon fill="#EBEBEB" points="113.458,295.86 112.391,295.86 112.391,22.738 113.458,22.738 113.458,295.86 		"/>
	</g>
	<g clip-path="url(#SVGID_4_)">
		<polygon fill="#EBEBEB" points="163.065,295.86 161.998,295.86 161.998,22.738 163.065,22.738 163.065,295.86 		"/>
	</g>
	<g clip-path="url(#SVGID_4_)">
		<polygon fill="#EBEBEB" points="212.672,295.86 211.604,295.86 211.604,22.738 212.672,22.738 212.672,295.86 		"/>
	</g>
	<g clip-path="url(#SVGID_4_)">
		<polygon points="75.719,172.595 50.915,172.595 50.915,171.528 75.719,171.528 75.719,172.595 		"/>
	</g>
	<g clip-path="url(#SVGID_4_)">
		<polygon points="63.851,253.279 62.783,253.279 62.783,172.062 63.851,172.062 63.851,253.279 		"/>
	</g>
	<g clip-path="url(#SVGID_4_)">
		<polygon points="75.719,253.812 50.915,253.812 50.915,252.746 75.719,252.746 75.719,253.812 		"/>
	</g>
	<g clip-path="url(#SVGID_4_)">
		<polygon points="125.326,35.687 100.522,35.687 100.522,34.619 125.326,34.619 125.326,35.687 		"/>
	</g>
	<g clip-path="url(#SVGID_4_)">
		<polygon points="113.458,188.305 112.391,188.305 112.391,35.153 113.458,35.153 113.458,188.305 		"/>
	</g>
	<g clip-path="url(#SVGID_4_)">
		<polygon points="125.326,188.838 100.522,188.838 100.522,187.772 125.326,187.772 125.326,188.838 		"/>
	</g>
	<g clip-path="url(#SVGID_4_)">
		<polygon points="174.933,77.455 150.129,77.455 150.129,76.388 174.933,76.388 174.933,77.455 		"/>
	</g>
	<g clip-path="url(#SVGID_4_)">
		<polygon points="163.065,116.37 161.998,116.37 161.998,76.921 163.065,76.921 163.065,116.37 		"/>
	</g>
	<g clip-path="url(#SVGID_4_)">
		<polygon points="174.933,116.904 150.129,116.904 150.129,115.836 174.933,115.836 174.933,116.904 		"/>
	</g>
	<g clip-path="url(#SVGID_4_)">
		<polygon points="224.54,68.173 199.736,68.173 199.736,67.106 224.54,67.106 224.54,68.173 		"/>
	</g>
	<g clip-path="url(#SVGID_4_)">
		<polygon points="212.672,121.011 211.604,121.011 211.604,67.64 212.672,67.64 212.672,121.011 		"/>
	</g>
	<g clip-path="url(#SVGID_4_)">
		<polygon points="224.54,121.544 199.736,121.544 199.736,120.477 224.54,120.477 224.54,121.544 		"/>
	</g>
	<g clip-path="url(#SVGID_4_)">
		<circle fill="#333333" cx="63.317" cy="114.049" r="0.888"/>
	</g>
	<g clip-path="url(#SVGID_4_)">
		<path fill="#333333" d="M63.317,115.292c-0.685,0-1.242-0.558-1.242-1.243s0.557-1.242,1.242-1.242s1.242,0.557,1.242,1.242
			S64.002,115.292,63.317,115.292L63.317,115.292z M63.317,113.516c-0.294,0-0.533,0.239-0.533,0.533
			c0,0.294,0.239,0.534,0.533,0.534s0.533-0.239,0.533-0.534C63.85,113.755,63.611,113.516,63.317,113.516L63.317,113.516z"/>
	</g>
	<g clip-path="url(#SVGID_4_)">
		<circle fill="#333333" cx="63.317" cy="283.446" r="0.888"/>
	</g>
	<g clip-path="url(#SVGID_4_)">
		<path fill="#333333" d="M63.317,284.688c-0.685,0-1.242-0.558-1.242-1.242s0.557-1.242,1.242-1.242s1.242,0.558,1.242,1.242
			S64.002,284.688,63.317,284.688L63.317,284.688z M63.317,282.913c-0.294,0-0.533,0.239-0.533,0.533s0.239,0.533,0.533,0.533
			s0.533-0.239,0.533-0.533S63.611,282.913,63.317,282.913L63.317,282.913z"/>
	</g>
	<g clip-path="url(#SVGID_4_)">
		<polygon fill="#333333" points="63.851,182.504 62.783,182.504 62.783,172.062 63.851,172.062 63.851,182.504 		"/>
	</g>
	<g clip-path="url(#SVGID_4_)">
		<polygon fill="#333333" points="63.851,253.279 62.783,253.279 62.783,212.67 63.851,212.67 63.851,253.279 		"/>
	</g>
	<g clip-path="url(#SVGID_4_)">
		<rect x="44.714" y="182.504" fill="#F8766D" width="37.205" height="30.166"/>
	</g>
	<g clip-path="url(#SVGID_4_)">
		<path fill="#333333" d="M81.919,213.204H44.714c-0.294,0-0.534-0.238-0.534-0.533v-30.166c0-0.295,0.239-0.533,0.534-0.533h37.205
			c0.294,0,0.534,0.238,0.534,0.533v30.166C82.453,212.965,82.214,213.204,81.919,213.204L81.919,213.204z M45.248,212.137h36.138
			v-29.1H45.248V212.137L45.248,212.137z"/>
	</g>
	<g clip-path="url(#SVGID_4_)">
		<polygon fill="#333333" points="81.919,206.777 44.714,206.777 44.714,204.642 81.919,204.642 81.919,206.777 		"/>
	</g>
	<g clip-path="url(#SVGID_4_)">
		<polygon fill="#333333" points="113.458,47.335 112.391,47.335 112.391,35.153 113.458,35.153 113.458,47.335 		"/>
	</g>
	<g clip-path="url(#SVGID_4_)">
		<polygon fill="#333333" points="113.458,188.305 112.391,188.305 112.391,104.188 113.458,104.188 113.458,188.305 		"/>
	</g>
	<g clip-path="url(#SVGID_4_)">
		<rect x="94.321" y="47.335" fill="#7CAE00" width="37.206" height="56.852"/>
	</g>
	<g clip-path="url(#SVGID_4_)">
		<path fill="#333333" d="M131.527,104.721H94.321c-0.294,0-0.534-0.239-0.534-0.534V47.335c0-0.294,0.239-0.534,0.534-0.534h37.206
			c0.294,0,0.534,0.239,0.534,0.534v56.852C132.061,104.482,131.821,104.721,131.527,104.721L131.527,104.721z M94.855,103.654
			h36.138V47.869H94.855V103.654L94.855,103.654z"/>
	</g>
	<g clip-path="url(#SVGID_4_)">
		<polygon fill="#333333" points="131.527,67.546 94.321,67.546 94.321,65.413 131.527,65.413 131.527,67.546 		"/>
	</g>
	<g clip-path="url(#SVGID_4_)">
		<polygon fill="#333333" points="163.065,89.104 161.998,89.104 161.998,76.921 163.065,76.921 163.065,89.104 		"/>
	</g>
	<g clip-path="url(#SVGID_4_)">
		<polygon fill="#333333" points="163.065,116.37 161.998,116.37 161.998,110.569 163.065,110.569 163.065,116.37 		"/>
	</g>
	<g clip-path="url(#SVGID_4_)">
		<rect x="143.929" y="89.104" fill="#00BFC4" width="37.205" height="21.465"/>
	</g>
	<g clip-path="url(#SVGID_4_)">
		<path fill="#333333" d="M181.134,111.103h-37.205c-0.294,0-0.534-0.239-0.534-0.534V89.104c0-0.294,0.239-0.534,0.534-0.534
			h37.205c0.294,0,0.534,0.239,0.534,0.534v21.465C181.667,110.863,181.428,111.103,181.134,111.103L181.134,111.103z
			 M144.462,110.035H180.6V89.638h-36.138V110.035L144.462,110.035z"/>
	</g>
	<g clip-path="url(#SVGID_4_)">
		<polygon fill="#333333" points="181.134,103.514 143.929,103.514 143.929,101.38 181.134,101.38 181.134,103.514 		"/>
	</g>
	<g clip-path="url(#SVGID_4_)">
		<circle fill="#333333" cx="212.138" cy="153.498" r="0.888"/>
	</g>
	<g clip-path="url(#SVGID_4_)">
		<path fill="#333333" d="M212.138,154.74c-0.685,0-1.242-0.557-1.242-1.242s0.557-1.242,1.242-1.242s1.242,0.557,1.242,1.242
			S212.823,154.74,212.138,154.74L212.138,154.74z M212.138,152.965c-0.294,0-0.533,0.239-0.533,0.533s0.239,0.533,0.533,0.533
			s0.533-0.239,0.533-0.533S212.432,152.965,212.138,152.965L212.138,152.965z"/>
	</g>
	<g clip-path="url(#SVGID_4_)">
		<polygon fill="#333333" points="212.672,95.485 211.604,95.485 211.604,67.64 212.672,67.64 212.672,95.485 		"/>
	</g>
	<g clip-path="url(#SVGID_4_)">
		<polygon fill="#333333" points="212.672,121.011 211.604,121.011 211.604,118.11 212.672,118.11 212.672,121.011 		"/>
	</g>
	<g clip-path="url(#SVGID_4_)">
		<rect x="193.536" y="95.485" fill="#C77CFF" width="37.206" height="22.625"/>
	</g>
	<g clip-path="url(#SVGID_4_)">
		<path fill="#333333" d="M230.741,118.644h-37.206c-0.294,0-0.534-0.239-0.534-0.534V95.485c0-0.294,0.239-0.534,0.534-0.534
			h37.206c0.294,0,0.534,0.239,0.534,0.534v22.625C231.275,118.405,231.036,118.644,230.741,118.644L230.741,118.644z
			 M194.069,117.577h36.138V96.019h-36.138V117.577L194.069,117.577z"/>
	</g>
	<g clip-path="url(#SVGID_4_)">
		<polygon fill="#333333" points="230.741,110.476 193.536,110.476 193.536,108.342 230.741,108.342 230.741,110.476 		"/>
	</g>
	<g clip-path="url(#SVGID_4_)">
		<g opacity="0">
			<rect x="33.553" y="22.738" fill="#FFFFFF" width="208.35" height="273.122"/>
		</g>
		<g>
			<path fill="#333333" d="M241.903,296.393H33.553c-0.294,0-0.534-0.238-0.534-0.533V22.738c0-0.294,0.239-0.534,0.534-0.534
				h208.35c0.294,0,0.534,0.239,0.534,0.534V295.86C242.437,296.155,242.197,296.393,241.903,296.393L241.903,296.393z
				 M34.086,295.327h207.283V23.271H34.086V295.327L34.086,295.327z"/>
		</g>
	</g>
</g>
<g>
	<defs>
		<rect id="SVGID_5_" x="247.382" y="22.738" width="208.35" height="273.122"/>
	</defs>
	<clipPath id="SVGID_6_">
		<use xlink:href="#SVGID_5_"  overflow="visible"/>
	</clipPath>
	<g clip-path="url(#SVGID_6_)">
		<g>
			<rect x="247.382" y="22.738" fill="#FFFFFF" width="208.35" height="273.122"/>
		</g>
		<g opacity="0">
			<path fill="#FFFFFF" d="M455.731,296.393h-208.35c-0.294,0-0.534-0.238-0.534-0.533V22.738c0-0.294,0.239-0.534,0.534-0.534
				h208.35c0.295,0,0.533,0.239,0.533,0.534V295.86C456.265,296.155,456.026,296.393,455.731,296.393L455.731,296.393z
				 M247.916,295.327h207.283V23.271H247.916V295.327L247.916,295.327z"/>
		</g>
	</g>
	<g clip-path="url(#SVGID_6_)">
		<polygon fill="#EBEBEB" points="455.731,272.11 247.382,272.11 247.382,271.577 455.731,271.577 455.731,272.11 		"/>
	</g>
	<g clip-path="url(#SVGID_6_)">
		<polygon fill="#EBEBEB" points="455.731,202.495 247.382,202.495 247.382,201.961 455.731,201.961 455.731,202.495 		"/>
	</g>
	<g clip-path="url(#SVGID_6_)">
		<polygon fill="#EBEBEB" points="455.731,132.88 247.382,132.88 247.382,132.347 455.731,132.347 455.731,132.88 		"/>
	</g>
	<g clip-path="url(#SVGID_6_)">
		<polygon fill="#EBEBEB" points="455.731,63.265 247.382,63.265 247.382,62.732 455.731,62.732 455.731,63.265 		"/>
	</g>
	<g clip-path="url(#SVGID_6_)">
		<polygon fill="#EBEBEB" points="455.731,237.569 247.382,237.569 247.382,236.502 455.731,236.502 455.731,237.569 		"/>
	</g>
	<g clip-path="url(#SVGID_6_)">
		<polygon fill="#EBEBEB" points="455.731,167.955 247.382,167.955 247.382,166.887 455.731,166.887 455.731,167.955 		"/>
	</g>
	<g clip-path="url(#SVGID_6_)">
		<polygon fill="#EBEBEB" points="455.731,98.34 247.382,98.34 247.382,97.272 455.731,97.272 455.731,98.34 		"/>
	</g>
	<g clip-path="url(#SVGID_6_)">
		<polygon fill="#EBEBEB" points="455.731,28.725 247.382,28.725 247.382,27.658 455.731,27.658 455.731,28.725 		"/>
	</g>
	<g clip-path="url(#SVGID_6_)">
		<polygon fill="#EBEBEB" points="277.68,295.86 276.613,295.86 276.613,22.738 277.68,22.738 277.68,295.86 		"/>
	</g>
	<g clip-path="url(#SVGID_6_)">
		<polygon fill="#EBEBEB" points="327.287,295.86 326.22,295.86 326.22,22.738 327.287,22.738 327.287,295.86 		"/>
	</g>
	<g clip-path="url(#SVGID_6_)">
		<polygon fill="#EBEBEB" points="376.894,295.86 375.827,295.86 375.827,22.738 376.894,22.738 376.894,295.86 		"/>
	</g>
	<g clip-path="url(#SVGID_6_)">
		<polygon fill="#EBEBEB" points="426.501,295.86 425.435,295.86 425.435,22.738 426.501,22.738 426.501,295.86 		"/>
	</g>
	<g clip-path="url(#SVGID_6_)">
		<polygon points="289.548,79.776 264.745,79.776 264.745,78.708 289.548,78.708 289.548,79.776 		"/>
	</g>
	<g clip-path="url(#SVGID_6_)">
		<polygon points="277.68,188.305 276.613,188.305 276.613,79.242 277.68,79.242 277.68,188.305 		"/>
	</g>
	<g clip-path="url(#SVGID_6_)">
		<polygon points="289.548,188.838 264.745,188.838 264.745,187.772 289.548,187.772 289.548,188.838 		"/>
	</g>
	<g clip-path="url(#SVGID_6_)">
		<polygon points="339.155,109.942 314.352,109.942 314.352,108.875 339.155,108.875 339.155,109.942 		"/>
	</g>
	<g clip-path="url(#SVGID_6_)">
		<polygon points="327.287,125.652 326.22,125.652 326.22,109.409 327.287,109.409 327.287,125.652 		"/>
	</g>
	<g clip-path="url(#SVGID_6_)">
		<polygon points="339.155,126.186 314.352,126.186 314.352,125.118 339.155,125.118 339.155,126.186 		"/>
	</g>
	<g clip-path="url(#SVGID_6_)">
		<polygon points="388.763,56.571 363.959,56.571 363.959,55.503 388.763,55.503 388.763,56.571 		"/>
	</g>
	<g clip-path="url(#SVGID_6_)">
		<polygon points="376.894,76.921 375.827,76.921 375.827,56.037 376.894,56.037 376.894,76.921 		"/>
	</g>
	<g clip-path="url(#SVGID_6_)">
		<polygon points="388.763,77.455 363.959,77.455 363.959,76.388 388.763,76.388 388.763,77.455 		"/>
	</g>
	<g clip-path="url(#SVGID_6_)">
		<polygon points="438.369,47.289 413.565,47.289 413.565,46.222 438.369,46.222 438.369,47.289 		"/>
	</g>
	<g clip-path="url(#SVGID_6_)">
		<polygon points="426.501,58.357 425.435,58.357 425.435,46.755 426.501,46.755 426.501,58.357 		"/>
	</g>
	<g clip-path="url(#SVGID_6_)">
		<polygon points="438.369,58.891 413.565,58.891 413.565,57.824 438.369,57.824 438.369,58.891 		"/>
	</g>
	<g clip-path="url(#SVGID_6_)">
		<polygon fill="#333333" points="277.68,98.386 276.613,98.386 276.613,79.242 277.68,79.242 277.68,98.386 		"/>
	</g>
	<g clip-path="url(#SVGID_6_)">
		<polygon fill="#333333" points="277.68,188.305 276.613,188.305 276.613,138.995 277.68,138.995 277.68,188.305 		"/>
	</g>
	<g clip-path="url(#SVGID_6_)">
		<rect x="258.543" y="98.386" fill="#F8766D" width="37.206" height="40.608"/>
	</g>
	<g clip-path="url(#SVGID_6_)">
		<path fill="#333333" d="M295.749,139.528h-37.206c-0.294,0-0.534-0.239-0.534-0.534V98.386c0-0.294,0.239-0.534,0.534-0.534
			h37.206c0.294,0,0.534,0.239,0.534,0.534v40.608C296.283,139.289,296.043,139.528,295.749,139.528L295.749,139.528z
			 M259.077,138.461h36.138V98.92h-36.138V138.461L259.077,138.461z"/>
	</g>
	<g clip-path="url(#SVGID_6_)">
		<polygon fill="#333333" points="295.749,120.917 258.543,120.917 258.543,118.784 295.749,118.784 295.749,120.917 		"/>
	</g>
	<g clip-path="url(#SVGID_6_)">
		<circle fill="#333333" cx="326.753" cy="67.64" r="0.888"/>
	</g>
	<g clip-path="url(#SVGID_6_)">
		<path fill="#333333" d="M326.753,68.882c-0.685,0-1.242-0.557-1.242-1.242s0.557-1.242,1.242-1.242s1.242,0.557,1.242,1.242
			S327.438,68.882,326.753,68.882L326.753,68.882z M326.753,67.106c-0.294,0-0.533,0.239-0.533,0.533s0.239,0.533,0.533,0.533
			s0.533-0.239,0.533-0.533S327.047,67.106,326.753,67.106L326.753,67.106z"/>
	</g>
	<g clip-path="url(#SVGID_6_)">
		<circle fill="#333333" cx="326.753" cy="79.242" r="0.888"/>
	</g>
	<g clip-path="url(#SVGID_6_)">
		<path fill="#333333" d="M326.753,80.484c-0.685,0-1.242-0.557-1.242-1.242S326.068,78,326.753,78s1.242,0.558,1.242,1.243
			S327.438,80.484,326.753,80.484L326.753,80.484z M326.753,78.708c-0.294,0-0.533,0.239-0.533,0.534
			c0,0.294,0.239,0.533,0.533,0.533s0.533-0.239,0.533-0.533C327.287,78.948,327.047,78.708,326.753,78.708L326.753,78.708z"/>
	</g>
	<g clip-path="url(#SVGID_6_)">
		<circle fill="#333333" cx="326.753" cy="148.857" r="0.888"/>
	</g>
	<g clip-path="url(#SVGID_6_)">
		<path fill="#333333" d="M326.753,150.099c-0.685,0-1.242-0.557-1.242-1.242s0.557-1.242,1.242-1.242s1.242,0.557,1.242,1.242
			S327.438,150.099,326.753,150.099L326.753,150.099z M326.753,148.324c-0.294,0-0.533,0.239-0.533,0.533s0.239,0.533,0.533,0.533
			s0.533-0.239,0.533-0.533S327.047,148.324,326.753,148.324L326.753,148.324z"/>
	</g>
	<g clip-path="url(#SVGID_6_)">
		<circle fill="#333333" cx="326.753" cy="176.703" r="0.888"/>
	</g>
	<g clip-path="url(#SVGID_6_)">
		<path fill="#333333" d="M326.753,177.945c-0.685,0-1.242-0.558-1.242-1.242s0.557-1.242,1.242-1.242s1.242,0.558,1.242,1.242
			S327.438,177.945,326.753,177.945L326.753,177.945z M326.753,176.169c-0.294,0-0.533,0.239-0.533,0.533s0.239,0.533,0.533,0.533
			s0.533-0.239,0.533-0.533S327.047,176.169,326.753,176.169L326.753,176.169z"/>
	</g>
	<g clip-path="url(#SVGID_6_)">
		<line fill="none" x1="326.753" y1="109.409" x2="326.753" y2="109.409"/>
	</g>
	<g clip-path="url(#SVGID_6_)">
		<polygon fill="#333333" points="327.287,125.652 326.22,125.652 326.22,124.492 327.287,124.492 327.287,125.652 		"/>
	</g>
	<g clip-path="url(#SVGID_6_)">
		<rect x="308.151" y="109.409" fill="#7CAE00" width="37.206" height="15.083"/>
	</g>
	<g clip-path="url(#SVGID_6_)">
		<path fill="#333333" d="M345.356,125.025h-37.206c-0.294,0-0.534-0.239-0.534-0.534v-15.083c0-0.294,0.239-0.534,0.534-0.534
			h37.206c0.295,0,0.533,0.239,0.533,0.534v15.083C345.89,124.786,345.651,125.025,345.356,125.025L345.356,125.025z
			 M308.685,123.958h36.139v-14.016h-36.139V123.958L308.685,123.958z"/>
	</g>
	<g clip-path="url(#SVGID_6_)">
		<polygon fill="#333333" points="345.356,116.277 308.151,116.277 308.151,114.143 345.356,114.143 345.356,116.277 		"/>
	</g>
	<g clip-path="url(#SVGID_6_)">
		<circle fill="#333333" cx="376.36" cy="88.524" r="0.888"/>
	</g>
	<g clip-path="url(#SVGID_6_)">
		<path fill="#333333" d="M376.36,89.766c-0.685,0-1.242-0.557-1.242-1.242s0.558-1.242,1.242-1.242s1.242,0.557,1.242,1.242
			S377.045,89.766,376.36,89.766L376.36,89.766z M376.36,87.991c-0.294,0-0.533,0.239-0.533,0.533s0.239,0.533,0.533,0.533
			s0.533-0.239,0.533-0.533S376.654,87.991,376.36,87.991L376.36,87.991z"/>
	</g>
	<g clip-path="url(#SVGID_6_)">
		<polygon fill="#333333" points="376.894,64.159 375.827,64.159 375.827,56.037 376.894,56.037 376.894,64.159 		"/>
	</g>
	<g clip-path="url(#SVGID_6_)">
		<polygon fill="#333333" points="376.894,76.921 375.827,76.921 375.827,71.701 376.894,71.701 376.894,76.921 		"/>
	</g>
	<g clip-path="url(#SVGID_6_)">
		<rect x="357.758" y="64.159" fill="#00BFC4" width="37.205" height="7.542"/>
	</g>
	<g clip-path="url(#SVGID_6_)">
		<path fill="#333333" d="M394.963,72.234h-37.205c-0.295,0-0.533-0.239-0.533-0.534v-7.542c0-0.294,0.238-0.534,0.533-0.534h37.205
			c0.295,0,0.533,0.239,0.533,0.534v7.542C395.496,71.995,395.258,72.234,394.963,72.234L394.963,72.234z M358.291,71.167h36.139
			v-6.475h-36.139V71.167L358.291,71.167z"/>
	</g>
	<g clip-path="url(#SVGID_6_)">
		<polygon fill="#333333" points="394.963,71.027 357.758,71.027 357.758,68.893 394.963,68.893 394.963,71.027 		"/>
	</g>
	<g clip-path="url(#SVGID_6_)">
		<circle fill="#333333" cx="425.968" cy="62.999" r="0.888"/>
	</g>
	<g clip-path="url(#SVGID_6_)">
		<path fill="#333333" d="M425.968,64.241c-0.685,0-1.242-0.557-1.242-1.242s0.558-1.242,1.242-1.242s1.242,0.557,1.242,1.242
			S426.652,64.241,425.968,64.241L425.968,64.241z M425.968,62.465c-0.294,0-0.533,0.239-0.533,0.533s0.239,0.533,0.533,0.533
			s0.533-0.239,0.533-0.533S426.262,62.465,425.968,62.465L425.968,62.465z"/>
	</g>
	<g clip-path="url(#SVGID_6_)">
		<circle fill="#333333" cx="425.968" cy="37.473" r="0.888"/>
	</g>
	<g clip-path="url(#SVGID_6_)">
		<path fill="#333333" d="M425.968,38.715c-0.685,0-1.242-0.557-1.242-1.242s0.558-1.242,1.242-1.242s1.242,0.557,1.242,1.242
			S426.652,38.715,425.968,38.715L425.968,38.715z M425.968,36.94c-0.294,0-0.533,0.239-0.533,0.533s0.239,0.533,0.533,0.533
			s0.533-0.239,0.533-0.533S426.262,36.94,425.968,36.94L425.968,36.94z"/>
	</g>
	<g clip-path="url(#SVGID_6_)">
		<polygon fill="#333333" points="426.501,51.396 425.435,51.396 425.435,46.755 426.501,46.755 426.501,51.396 		"/>
	</g>
	<g clip-path="url(#SVGID_6_)">
		<polygon fill="#333333" points="426.501,58.357 425.435,58.357 425.435,55.457 426.501,55.457 426.501,58.357 		"/>
	</g>
	<g clip-path="url(#SVGID_6_)">
		<rect x="407.365" y="51.396" fill="#C77CFF" width="37.205" height="4.061"/>
	</g>
	<g clip-path="url(#SVGID_6_)">
		<path fill="#333333" d="M444.57,55.991h-37.205c-0.295,0-0.533-0.239-0.533-0.534v-4.061c0-0.294,0.238-0.534,0.533-0.534h37.205
			c0.295,0,0.533,0.239,0.533,0.534v4.061C445.104,55.751,444.865,55.991,444.57,55.991L444.57,55.991z M407.898,54.923h36.139
			V51.93h-36.139V54.923L407.898,54.923z"/>
	</g>
	<g clip-path="url(#SVGID_6_)">
		<polygon fill="#333333" points="444.57,53.623 407.365,53.623 407.365,51.489 444.57,51.489 444.57,53.623 		"/>
	</g>
	<g clip-path="url(#SVGID_6_)">
		<g opacity="0">
			<rect x="247.382" y="22.738" fill="#FFFFFF" width="208.35" height="273.122"/>
		</g>
		<g>
			<path fill="#333333" d="M455.731,296.393h-208.35c-0.294,0-0.534-0.238-0.534-0.533V22.738c0-0.294,0.239-0.534,0.534-0.534
				h208.35c0.295,0,0.533,0.239,0.533,0.534V295.86C456.265,296.155,456.026,296.393,455.731,296.393L455.731,296.393z
				 M247.916,295.327h207.283V23.271H247.916V295.327L247.916,295.327z"/>
		</g>
	</g>
</g>
<g>
	<defs>
		<rect id="SVGID_7_" x="461.211" y="22.738" width="208.351" height="273.122"/>
	</defs>
	<clipPath id="SVGID_8_">
		<use xlink:href="#SVGID_7_"  overflow="visible"/>
	</clipPath>
	<g clip-path="url(#SVGID_8_)">
		<g>
			<rect x="461.211" y="22.738" fill="#FFFFFF" width="208.351" height="273.122"/>
		</g>
		<g opacity="0">
			<path fill="#FFFFFF" d="M669.562,296.393H461.211c-0.295,0-0.533-0.238-0.533-0.533V22.738c0-0.294,0.238-0.534,0.533-0.534
				h208.351c0.295,0,0.533,0.239,0.533,0.534V295.86C670.095,296.155,669.856,296.393,669.562,296.393L669.562,296.393z
				 M461.744,295.327h207.284V23.271H461.744V295.327L461.744,295.327z"/>
		</g>
	</g>
	<g clip-path="url(#SVGID_8_)">
		<polygon fill="#EBEBEB" points="669.562,272.11 461.211,272.11 461.211,271.577 669.562,271.577 669.562,272.11 		"/>
	</g>
	<g clip-path="url(#SVGID_8_)">
		<polygon fill="#EBEBEB" points="669.562,202.495 461.211,202.495 461.211,201.961 669.562,201.961 669.562,202.495 		"/>
	</g>
	<g clip-path="url(#SVGID_8_)">
		<polygon fill="#EBEBEB" points="669.562,132.88 461.211,132.88 461.211,132.347 669.562,132.347 669.562,132.88 		"/>
	</g>
	<g clip-path="url(#SVGID_8_)">
		<polygon fill="#EBEBEB" points="669.562,63.265 461.211,63.265 461.211,62.732 669.562,62.732 669.562,63.265 		"/>
	</g>
	<g clip-path="url(#SVGID_8_)">
		<polygon fill="#EBEBEB" points="669.562,237.569 461.211,237.569 461.211,236.502 669.562,236.502 669.562,237.569 		"/>
	</g>
	<g clip-path="url(#SVGID_8_)">
		<polygon fill="#EBEBEB" points="669.562,167.955 461.211,167.955 461.211,166.887 669.562,166.887 669.562,167.955 		"/>
	</g>
	<g clip-path="url(#SVGID_8_)">
		<polygon fill="#EBEBEB" points="669.562,98.34 461.211,98.34 461.211,97.272 669.562,97.272 669.562,98.34 		"/>
	</g>
	<g clip-path="url(#SVGID_8_)">
		<polygon fill="#EBEBEB" points="669.562,28.725 461.211,28.725 461.211,27.658 669.562,27.658 669.562,28.725 		"/>
	</g>
	<g clip-path="url(#SVGID_8_)">
		<polygon fill="#EBEBEB" points="491.509,295.86 490.442,295.86 490.442,22.738 491.509,22.738 491.509,295.86 		"/>
	</g>
	<g clip-path="url(#SVGID_8_)">
		<polygon fill="#EBEBEB" points="541.116,295.86 540.05,295.86 540.05,22.738 541.116,22.738 541.116,295.86 		"/>
	</g>
	<g clip-path="url(#SVGID_8_)">
		<polygon fill="#EBEBEB" points="590.723,295.86 589.656,295.86 589.656,22.738 590.723,22.738 590.723,295.86 		"/>
	</g>
	<g clip-path="url(#SVGID_8_)">
		<polygon fill="#EBEBEB" points="640.33,295.86 639.264,295.86 639.264,22.738 640.33,22.738 640.33,295.86 		"/>
	</g>
	<g clip-path="url(#SVGID_8_)">
		<polygon points="503.377,191.159 478.574,191.159 478.574,190.092 503.377,190.092 503.377,191.159 		"/>
	</g>
	<g clip-path="url(#SVGID_8_)">
		<polygon points="491.509,227.753 490.442,227.753 490.442,190.625 491.509,190.625 491.509,227.753 		"/>
	</g>
	<g clip-path="url(#SVGID_8_)">
		<polygon points="503.377,228.287 478.574,228.287 478.574,227.22 503.377,227.22 503.377,228.287 		"/>
	</g>
	<g clip-path="url(#SVGID_8_)">
		<polygon points="552.984,167.955 528.181,167.955 528.181,166.887 552.984,166.887 552.984,167.955 		"/>
	</g>
	<g clip-path="url(#SVGID_8_)">
		<polygon points="541.116,243.998 540.05,243.998 540.05,167.421 541.116,167.421 541.116,243.998 		"/>
	</g>
	<g clip-path="url(#SVGID_8_)">
		<polygon points="552.984,244.531 528.181,244.531 528.181,243.464 552.984,243.464 552.984,244.531 		"/>
	</g>
	<g clip-path="url(#SVGID_8_)">
		<polygon points="602.592,184.198 577.788,184.198 577.788,183.131 602.592,183.131 602.592,184.198 		"/>
	</g>
	<g clip-path="url(#SVGID_8_)">
		<polygon points="590.723,220.792 589.656,220.792 589.656,183.665 590.723,183.665 590.723,220.792 		"/>
	</g>
	<g clip-path="url(#SVGID_8_)">
		<polygon points="602.592,221.326 577.788,221.326 577.788,220.259 602.592,220.259 602.592,221.326 		"/>
	</g>
	<g clip-path="url(#SVGID_8_)">
		<polygon points="652.199,123.865 627.396,123.865 627.396,122.798 652.199,122.798 652.199,123.865 		"/>
	</g>
	<g clip-path="url(#SVGID_8_)">
		<polygon points="640.33,176.703 639.264,176.703 639.264,123.332 640.33,123.332 640.33,176.703 		"/>
	</g>
	<g clip-path="url(#SVGID_8_)">
		<polygon points="652.199,177.236 627.396,177.236 627.396,176.169 652.199,176.169 652.199,177.236 		"/>
	</g>
	<g clip-path="url(#SVGID_8_)">
		<circle fill="#333333" cx="490.976" cy="179.023" r="0.888"/>
	</g>
	<g clip-path="url(#SVGID_8_)">
		<path fill="#333333" d="M490.976,180.265c-0.685,0-1.242-0.558-1.242-1.242s0.558-1.242,1.242-1.242s1.242,0.558,1.242,1.242
			S491.66,180.265,490.976,180.265L490.976,180.265z M490.976,178.49c-0.294,0-0.533,0.239-0.533,0.533s0.239,0.533,0.533,0.533
			s0.533-0.239,0.533-0.533S491.27,178.49,490.976,178.49L490.976,178.49z"/>
	</g>
	<g clip-path="url(#SVGID_8_)">
		<polygon fill="#333333" points="491.509,202.808 490.442,202.808 490.442,190.625 491.509,190.625 491.509,202.808 		"/>
	</g>
	<g clip-path="url(#SVGID_8_)">
		<polygon fill="#333333" points="491.509,227.753 490.442,227.753 490.442,215.571 491.509,215.571 491.509,227.753 		"/>
	</g>
	<g clip-path="url(#SVGID_8_)">
		<rect x="472.373" y="202.808" fill="#F8766D" width="37.205" height="12.763"/>
	</g>
	<g clip-path="url(#SVGID_8_)">
		<path fill="#333333" d="M509.578,216.104h-37.205c-0.295,0-0.533-0.238-0.533-0.533v-12.763c0-0.295,0.238-0.533,0.533-0.533
			h37.205c0.295,0,0.533,0.238,0.533,0.533v12.763C510.111,215.866,509.873,216.104,509.578,216.104L509.578,216.104z
			 M472.906,215.038h36.139v-11.696h-36.139V215.038L472.906,215.038z"/>
	</g>
	<g clip-path="url(#SVGID_8_)">
		<polygon fill="#333333" points="509.578,214.898 472.373,214.898 472.373,212.763 509.578,212.763 509.578,214.898 		"/>
	</g>
	<g clip-path="url(#SVGID_8_)">
		<polygon fill="#333333" points="541.116,174.962 540.05,174.962 540.05,167.421 541.116,167.421 541.116,174.962 		"/>
	</g>
	<g clip-path="url(#SVGID_8_)">
		<polygon fill="#333333" points="541.116,243.998 540.05,243.998 540.05,216.151 541.116,216.151 541.116,243.998 		"/>
	</g>
	<g clip-path="url(#SVGID_8_)">
		<rect x="521.98" y="174.962" fill="#7CAE00" width="37.205" height="41.188"/>
	</g>
	<g clip-path="url(#SVGID_8_)">
		<path fill="#333333" d="M559.186,216.684H521.98c-0.295,0-0.533-0.238-0.533-0.533v-41.188c0-0.295,0.238-0.533,0.533-0.533
			h37.205c0.295,0,0.533,0.238,0.533,0.533v41.188C559.719,216.446,559.48,216.684,559.186,216.684L559.186,216.684z
			 M522.514,215.618h36.139v-40.122h-36.139V215.618L522.514,215.618z"/>
	</g>
	<g clip-path="url(#SVGID_8_)">
		<polygon fill="#333333" points="559.186,191.693 521.98,191.693 521.98,189.558 559.186,189.558 559.186,191.693 		"/>
	</g>
	<g clip-path="url(#SVGID_8_)">
		<circle fill="#333333" cx="590.19" cy="248.638" r="0.888"/>
	</g>
	<g clip-path="url(#SVGID_8_)">
		<path fill="#333333" d="M590.189,249.88c-0.685,0-1.242-0.558-1.242-1.242s0.558-1.242,1.242-1.242
			c0.686,0,1.243,0.558,1.243,1.242S590.875,249.88,590.189,249.88L590.189,249.88z M590.189,248.105
			c-0.294,0-0.533,0.239-0.533,0.533s0.239,0.533,0.533,0.533c0.295,0,0.534-0.239,0.534-0.533S590.484,248.105,590.189,248.105
			L590.189,248.105z"/>
	</g>
	<g clip-path="url(#SVGID_8_)">
		<polygon fill="#333333" points="590.723,198.167 589.656,198.167 589.656,183.665 590.723,183.665 590.723,198.167 		"/>
	</g>
	<g clip-path="url(#SVGID_8_)">
		<polygon fill="#333333" points="590.723,220.792 589.656,220.792 589.656,217.892 590.723,217.892 590.723,220.792 		"/>
	</g>
	<g clip-path="url(#SVGID_8_)">
		<rect x="571.587" y="198.167" fill="#00BFC4" width="37.205" height="19.725"/>
	</g>
	<g clip-path="url(#SVGID_8_)">
		<path fill="#333333" d="M608.792,218.425h-37.205c-0.295,0-0.533-0.238-0.533-0.533v-19.725c0-0.295,0.238-0.533,0.533-0.533
			h37.205c0.295,0,0.533,0.238,0.533,0.533v19.725C609.325,218.187,609.087,218.425,608.792,218.425L608.792,218.425z
			 M572.12,217.359h36.139v-18.658H572.12V217.359L572.12,217.359z"/>
	</g>
	<g clip-path="url(#SVGID_8_)">
		<polygon fill="#333333" points="608.792,210.257 571.587,210.257 571.587,208.123 608.792,208.123 608.792,210.257 		"/>
	</g>
	<g clip-path="url(#SVGID_8_)">
		<polygon fill="#333333" points="640.33,134.934 639.264,134.934 639.264,123.332 640.33,123.332 640.33,134.934 		"/>
	</g>
	<g clip-path="url(#SVGID_8_)">
		<polygon fill="#333333" points="640.33,176.703 639.264,176.703 639.264,162.78 640.33,162.78 640.33,176.703 		"/>
	</g>
	<g clip-path="url(#SVGID_8_)">
		<rect x="621.194" y="134.934" fill="#C77CFF" width="37.205" height="27.846"/>
	</g>
	<g clip-path="url(#SVGID_8_)">
		<path fill="#333333" d="M658.399,163.313h-37.205c-0.295,0-0.533-0.239-0.533-0.534v-27.846c0-0.294,0.238-0.534,0.533-0.534
			h37.205c0.295,0,0.533,0.239,0.533,0.534v27.846C658.933,163.074,658.694,163.313,658.399,163.313L658.399,163.313z
			 M621.728,162.246h36.139v-26.778h-36.139V162.246L621.728,162.246z"/>
	</g>
	<g clip-path="url(#SVGID_8_)">
		<polygon fill="#333333" points="658.399,140.642 621.194,140.642 621.194,138.508 658.399,138.508 658.399,140.642 		"/>
	</g>
	<g clip-path="url(#SVGID_8_)">
		<g opacity="0">
			<rect x="461.211" y="22.738" fill="#FFFFFF" width="208.351" height="273.122"/>
		</g>
		<g>
			<path fill="#333333" d="M669.562,296.393H461.211c-0.295,0-0.533-0.238-0.533-0.533V22.738c0-0.294,0.238-0.534,0.533-0.534
				h208.351c0.295,0,0.533,0.239,0.533,0.534V295.86C670.095,296.155,669.856,296.393,669.562,296.393L669.562,296.393z
				 M461.744,295.327h207.284V23.271H461.744V295.327L461.744,295.327z"/>
		</g>
	</g>
</g>
<g>
	<defs>
		<rect id="SVGID_9_" x="33.553" y="5.48" width="208.35" height="17.258"/>
	</defs>
	<clipPath id="SVGID_10_">
		<use xlink:href="#SVGID_9_"  overflow="visible"/>
	</clipPath>
	<g clip-path="url(#SVGID_10_)">
		<rect x="33.553" y="5.48" fill="#D9D9D9" width="208.35" height="17.258"/>
	</g>
	<g clip-path="url(#SVGID_10_)">
		<path fill="#333333" d="M241.903,23.271H33.553c-0.294,0-0.534-0.239-0.534-0.534V5.48c0-0.294,0.239-0.534,0.534-0.534h208.35
			c0.294,0,0.534,0.239,0.534,0.534v17.258C242.437,23.032,242.197,23.271,241.903,23.271L241.903,23.271z M34.086,22.204h207.283
			V6.014H34.086V22.204L34.086,22.204z"/>
	</g>
	<g clip-path="url(#SVGID_10_)">
		<path fill="#1A1A1A" d="M105.924,17.259l2.419-6.299h0.898l2.578,6.299h-0.95l-0.734-1.908h-2.634l-0.692,1.908H105.924z
			 M107.742,14.672h2.136l-0.658-1.744c-0.201-0.53-0.35-0.966-0.447-1.307c-0.08,0.404-0.193,0.806-0.339,1.203L107.742,14.672z"/>
		<path fill="#1A1A1A" d="M116.98,15.05l0.833,0.211c-0.175,0.685-0.489,1.207-0.943,1.566s-1.009,0.539-1.665,0.539
			c-0.679,0-1.231-0.138-1.657-0.415c-0.425-0.276-0.749-0.677-0.971-1.2c-0.222-0.524-0.333-1.088-0.333-1.689
			c0-0.655,0.125-1.228,0.376-1.716c0.25-0.488,0.607-0.859,1.07-1.113c0.462-0.254,0.972-0.38,1.527-0.38
			c0.63,0,1.16,0.16,1.59,0.48c0.43,0.321,0.729,0.772,0.898,1.354l-0.82,0.193c-0.146-0.458-0.358-0.792-0.636-1.001
			s-0.627-0.313-1.048-0.313c-0.484,0-0.889,0.116-1.214,0.348c-0.325,0.232-0.554,0.544-0.686,0.935
			c-0.132,0.392-0.197,0.795-0.197,1.21c0,0.536,0.078,1.003,0.234,1.403c0.156,0.399,0.399,0.698,0.729,0.896
			c0.329,0.197,0.686,0.297,1.07,0.297c0.467,0,0.862-0.135,1.186-0.404S116.865,15.581,116.98,15.05z"/>
		<path fill="#1A1A1A" d="M118.858,17.259V10.96h4.555v0.743h-3.721v1.929h3.485v0.739h-3.485v2.145h3.867v0.743H118.858z"/>
		<path fill="#1A1A1A" d="M124.311,15.369v-0.777h2.376v0.777H124.311z"/>
		<path fill="#1A1A1A" d="M127.232,15.897l0.765-0.12c0.043,0.307,0.163,0.541,0.359,0.705c0.196,0.163,0.47,0.244,0.823,0.244
			c0.355,0,0.619-0.072,0.791-0.217s0.258-0.314,0.258-0.509c0-0.175-0.076-0.312-0.228-0.413c-0.106-0.068-0.37-0.155-0.791-0.262
			c-0.567-0.144-0.96-0.267-1.179-0.372c-0.219-0.104-0.385-0.249-0.499-0.434s-0.17-0.389-0.17-0.612
			c0-0.203,0.047-0.392,0.14-0.565c0.093-0.173,0.22-0.316,0.38-0.432c0.121-0.089,0.284-0.164,0.492-0.226
			c0.208-0.062,0.43-0.092,0.668-0.092c0.358,0,0.672,0.051,0.943,0.154c0.271,0.104,0.47,0.243,0.599,0.419
			s0.218,0.412,0.267,0.707l-0.756,0.103c-0.034-0.234-0.134-0.418-0.298-0.55c-0.165-0.132-0.397-0.197-0.698-0.197
			c-0.355,0-0.609,0.059-0.761,0.176c-0.152,0.118-0.228,0.255-0.228,0.413c0,0.1,0.031,0.19,0.094,0.271
			c0.063,0.083,0.162,0.151,0.296,0.206c0.078,0.028,0.305,0.095,0.684,0.197c0.547,0.146,0.929,0.267,1.145,0.359
			s0.386,0.229,0.509,0.406c0.123,0.178,0.185,0.397,0.185,0.661c0,0.258-0.075,0.501-0.226,0.729s-0.367,0.404-0.651,0.528
			c-0.284,0.125-0.604,0.188-0.962,0.188c-0.593,0-1.045-0.123-1.356-0.37C127.517,16.747,127.318,16.381,127.232,15.897z"/>
		<path fill="#1A1A1A" d="M134.933,17.259v-0.67c-0.355,0.516-0.838,0.773-1.448,0.773c-0.269,0-0.521-0.052-0.754-0.155
			c-0.233-0.103-0.407-0.232-0.52-0.389s-0.193-0.348-0.238-0.573c-0.032-0.152-0.047-0.393-0.047-0.723v-2.827h0.773v2.531
			c0,0.403,0.016,0.676,0.047,0.816c0.048,0.203,0.151,0.363,0.309,0.479c0.158,0.116,0.353,0.175,0.584,0.175
			s0.45-0.06,0.653-0.179c0.203-0.119,0.347-0.28,0.432-0.485s0.127-0.502,0.127-0.892v-2.445h0.773v4.563H134.933z"/>
		<path fill="#1A1A1A" d="M136.836,19.008v-6.312h0.705v0.593c0.166-0.231,0.354-0.405,0.563-0.521s0.462-0.174,0.761-0.174
			c0.389,0,0.733,0.1,1.031,0.301c0.298,0.2,0.522,0.483,0.674,0.849s0.228,0.766,0.228,1.2c0,0.468-0.084,0.888-0.251,1.262
			s-0.411,0.66-0.73,0.859s-0.655,0.299-1.008,0.299c-0.258,0-0.489-0.055-0.694-0.164c-0.205-0.108-0.373-0.246-0.505-0.412v2.222
			H136.836z M137.536,15.003c0,0.587,0.119,1.021,0.357,1.302c0.238,0.281,0.525,0.421,0.864,0.421c0.344,0,0.638-0.145,0.883-0.436
			s0.367-0.741,0.367-1.352c0-0.581-0.12-1.017-0.358-1.307c-0.239-0.289-0.525-0.434-0.857-0.434c-0.33,0-0.621,0.154-0.875,0.462
			S137.536,14.417,137.536,15.003z"/>
		<path fill="#1A1A1A" d="M144.854,15.79l0.799,0.099c-0.126,0.468-0.359,0.83-0.7,1.088s-0.776,0.387-1.306,0.387
			c-0.667,0-1.197-0.206-1.588-0.617s-0.586-0.987-0.586-1.729c0-0.768,0.198-1.363,0.593-1.787
			c0.396-0.424,0.908-0.636,1.539-0.636c0.61,0,1.108,0.207,1.495,0.623c0.387,0.415,0.58,0.999,0.58,1.753
			c0,0.046-0.001,0.114-0.004,0.206h-3.403c0.028,0.501,0.17,0.885,0.425,1.151s0.573,0.399,0.954,0.399
			c0.283,0,0.525-0.074,0.726-0.223C144.577,16.354,144.736,16.117,144.854,15.79z M142.314,14.54h2.548
			c-0.034-0.384-0.132-0.672-0.292-0.864c-0.247-0.298-0.566-0.446-0.958-0.446c-0.355,0-0.654,0.119-0.896,0.356
			C142.474,13.824,142.34,14.141,142.314,14.54z"/>
		<path fill="#1A1A1A" d="M146.615,17.259v-4.563h0.696v0.692c0.178-0.324,0.342-0.537,0.492-0.641s0.315-0.154,0.496-0.154
			c0.261,0,0.525,0.083,0.795,0.249l-0.267,0.718c-0.189-0.112-0.378-0.168-0.567-0.168c-0.169,0-0.321,0.051-0.456,0.152
			s-0.23,0.243-0.288,0.424c-0.086,0.274-0.129,0.575-0.129,0.902v2.389H146.615z"/>
		<path fill="#1A1A1A" d="M150.822,17.259l-1.736-4.563h0.816l0.979,2.733c0.106,0.295,0.204,0.602,0.292,0.919
			c0.068-0.24,0.165-0.529,0.288-0.868l1.014-2.784h0.795l-1.728,4.563H150.822z"/>
		<path fill="#1A1A1A" d="M153.959,11.849V10.96h0.773v0.889H153.959z M153.959,17.259v-4.563h0.773v4.563H153.959z"/>
		<path fill="#1A1A1A" d="M155.6,15.897l0.765-0.12c0.043,0.307,0.163,0.541,0.359,0.705c0.196,0.163,0.47,0.244,0.823,0.244
			c0.355,0,0.619-0.072,0.791-0.217s0.258-0.314,0.258-0.509c0-0.175-0.076-0.312-0.228-0.413c-0.106-0.068-0.37-0.155-0.791-0.262
			c-0.567-0.144-0.96-0.267-1.179-0.372c-0.219-0.104-0.385-0.249-0.499-0.434s-0.17-0.389-0.17-0.612
			c0-0.203,0.047-0.392,0.14-0.565c0.093-0.173,0.22-0.316,0.38-0.432c0.121-0.089,0.284-0.164,0.492-0.226
			c0.208-0.062,0.43-0.092,0.668-0.092c0.358,0,0.672,0.051,0.943,0.154c0.271,0.104,0.47,0.243,0.599,0.419
			s0.218,0.412,0.267,0.707l-0.756,0.103c-0.034-0.234-0.134-0.418-0.298-0.55c-0.165-0.132-0.397-0.197-0.698-0.197
			c-0.355,0-0.609,0.059-0.761,0.176c-0.152,0.118-0.228,0.255-0.228,0.413c0,0.1,0.031,0.19,0.094,0.271
			c0.063,0.083,0.162,0.151,0.296,0.206c0.078,0.028,0.305,0.095,0.684,0.197c0.547,0.146,0.929,0.267,1.145,0.359
			s0.386,0.229,0.509,0.406c0.123,0.178,0.185,0.397,0.185,0.661c0,0.258-0.075,0.501-0.226,0.729s-0.367,0.404-0.651,0.528
			c-0.284,0.125-0.604,0.188-0.962,0.188c-0.593,0-1.045-0.123-1.356-0.37C155.885,16.747,155.686,16.381,155.6,15.897z"/>
		<path fill="#1A1A1A" d="M163.434,15.79l0.799,0.099c-0.126,0.468-0.359,0.83-0.7,1.088s-0.776,0.387-1.306,0.387
			c-0.667,0-1.197-0.206-1.588-0.617s-0.586-0.987-0.586-1.729c0-0.768,0.198-1.363,0.593-1.787
			c0.396-0.424,0.908-0.636,1.539-0.636c0.61,0,1.108,0.207,1.495,0.623c0.387,0.415,0.58,0.999,0.58,1.753
			c0,0.046-0.001,0.114-0.004,0.206h-3.403c0.028,0.501,0.17,0.885,0.425,1.151s0.573,0.399,0.954,0.399
			c0.283,0,0.525-0.074,0.726-0.223C163.157,16.354,163.316,16.117,163.434,15.79z M160.894,14.54h2.548
			c-0.034-0.384-0.132-0.672-0.292-0.864c-0.247-0.298-0.566-0.446-0.958-0.446c-0.355,0-0.654,0.119-0.896,0.356
			C161.054,13.824,160.92,14.141,160.894,14.54z"/>
		<path fill="#1A1A1A" d="M168.164,17.259v-0.576c-0.289,0.453-0.715,0.68-1.276,0.68c-0.364,0-0.698-0.101-1.003-0.301
			c-0.305-0.201-0.542-0.48-0.709-0.841c-0.167-0.359-0.251-0.772-0.251-1.239c0-0.455,0.076-0.868,0.228-1.239
			s0.38-0.655,0.684-0.854c0.303-0.197,0.643-0.296,1.018-0.296c0.275,0,0.52,0.058,0.735,0.174s0.39,0.267,0.524,0.453v-2.26h0.769
			v6.299H168.164z M165.719,14.982c0,0.584,0.123,1.021,0.37,1.311c0.246,0.289,0.537,0.434,0.872,0.434
			c0.338,0,0.625-0.138,0.862-0.414s0.354-0.698,0.354-1.266c0-0.624-0.121-1.083-0.361-1.375c-0.24-0.292-0.537-0.438-0.889-0.438
			c-0.344,0-0.631,0.141-0.862,0.421C165.834,13.935,165.719,14.377,165.719,14.982z"/>
	</g>
</g>
<g>
	<defs>
		<rect id="SVGID_11_" x="247.382" y="5.48" width="208.35" height="17.258"/>
	</defs>
	<clipPath id="SVGID_12_">
		<use xlink:href="#SVGID_11_"  overflow="visible"/>
	</clipPath>
	<g clip-path="url(#SVGID_12_)">
		<rect x="247.382" y="5.48" fill="#D9D9D9" width="208.35" height="17.258"/>
	</g>
	<g clip-path="url(#SVGID_12_)">
		<path fill="#333333" d="M455.731,23.271h-208.35c-0.294,0-0.534-0.239-0.534-0.534V5.48c0-0.294,0.239-0.534,0.534-0.534h208.35
			c0.295,0,0.533,0.239,0.533,0.534v17.258C456.265,23.032,456.026,23.271,455.731,23.271L455.731,23.271z M247.916,22.204h207.283
			V6.014H247.916V22.204L247.916,22.204z"/>
	</g>
	<g clip-path="url(#SVGID_12_)">
		<path fill="#1A1A1A" d="M324.455,15.05l0.833,0.211c-0.175,0.685-0.489,1.207-0.943,1.566s-1.009,0.539-1.665,0.539
			c-0.679,0-1.231-0.138-1.657-0.415c-0.425-0.276-0.749-0.677-0.971-1.2c-0.222-0.524-0.333-1.088-0.333-1.689
			c0-0.655,0.125-1.228,0.376-1.716c0.25-0.488,0.607-0.859,1.07-1.113c0.462-0.254,0.972-0.38,1.527-0.38
			c0.63,0,1.16,0.16,1.59,0.48c0.43,0.321,0.729,0.772,0.898,1.354l-0.82,0.193c-0.146-0.458-0.358-0.792-0.636-1.001
			s-0.627-0.313-1.048-0.313c-0.484,0-0.889,0.116-1.214,0.348c-0.325,0.232-0.554,0.544-0.686,0.935
			c-0.132,0.392-0.197,0.795-0.197,1.21c0,0.536,0.078,1.003,0.234,1.403c0.156,0.399,0.399,0.698,0.729,0.896
			c0.329,0.197,0.686,0.297,1.07,0.297c0.467,0,0.862-0.135,1.186-0.404S324.34,15.581,324.455,15.05z"/>
		<path fill="#1A1A1A" d="M326.315,17.259V10.96h2.17c0.49,0,0.864,0.029,1.122,0.09c0.361,0.083,0.669,0.233,0.924,0.451
			c0.333,0.281,0.581,0.64,0.746,1.076c0.165,0.438,0.247,0.937,0.247,1.498c0,0.479-0.056,0.902-0.167,1.271
			s-0.255,0.676-0.43,0.917c-0.175,0.242-0.366,0.433-0.574,0.572c-0.208,0.139-0.458,0.244-0.752,0.315s-0.631,0.107-1.012,0.107
			H326.315z M327.149,16.516h1.345c0.416,0,0.741-0.039,0.978-0.116s0.425-0.187,0.565-0.326c0.198-0.198,0.352-0.464,0.462-0.798
			c0.11-0.333,0.166-0.738,0.166-1.214c0-0.658-0.108-1.165-0.324-1.519c-0.216-0.354-0.479-0.591-0.789-0.711
			c-0.224-0.086-0.583-0.129-1.079-0.129h-1.323V16.516z"/>
		<path fill="#1A1A1A" d="M332.683,17.259V10.96h2.793c0.562,0,0.988,0.057,1.28,0.169c0.292,0.113,0.526,0.313,0.701,0.6
			c0.174,0.287,0.262,0.604,0.262,0.95c0,0.446-0.145,0.823-0.434,1.13c-0.29,0.307-0.736,0.501-1.341,0.584
			c0.221,0.106,0.388,0.211,0.503,0.313c0.243,0.224,0.474,0.503,0.691,0.838l1.096,1.715h-1.048l-0.833-1.311
			c-0.244-0.378-0.444-0.667-0.602-0.868c-0.158-0.2-0.299-0.341-0.423-0.421s-0.251-0.136-0.38-0.168
			c-0.094-0.02-0.249-0.029-0.464-0.029h-0.967v2.797H332.683z M333.517,13.74h1.792c0.381,0,0.679-0.039,0.894-0.118
			c0.215-0.078,0.378-0.204,0.49-0.378c0.112-0.173,0.167-0.361,0.167-0.564c0-0.298-0.108-0.543-0.324-0.735
			c-0.216-0.191-0.558-0.288-1.025-0.288h-1.994V13.74z"/>
		<path fill="#1A1A1A" d="M338.626,15.369v-0.777h2.376v0.777H338.626z"/>
		<path fill="#1A1A1A" d="M341.548,15.897l0.765-0.12c0.043,0.307,0.163,0.541,0.359,0.705c0.196,0.163,0.471,0.244,0.822,0.244
			c0.355,0,0.619-0.072,0.791-0.217s0.258-0.314,0.258-0.509c0-0.175-0.076-0.312-0.228-0.413c-0.106-0.068-0.37-0.155-0.791-0.262
			c-0.567-0.144-0.96-0.267-1.18-0.372c-0.219-0.104-0.385-0.249-0.498-0.434s-0.17-0.389-0.17-0.612
			c0-0.203,0.047-0.392,0.14-0.565c0.093-0.173,0.22-0.316,0.381-0.432c0.12-0.089,0.284-0.164,0.491-0.226
			c0.208-0.062,0.431-0.092,0.669-0.092c0.357,0,0.672,0.051,0.942,0.154c0.271,0.104,0.471,0.243,0.6,0.419
			s0.218,0.412,0.267,0.707l-0.756,0.103c-0.035-0.234-0.135-0.418-0.299-0.55c-0.165-0.132-0.397-0.197-0.698-0.197
			c-0.355,0-0.609,0.059-0.761,0.176c-0.152,0.118-0.228,0.255-0.228,0.413c0,0.1,0.031,0.19,0.095,0.271
			c0.062,0.083,0.161,0.151,0.296,0.206c0.077,0.028,0.306,0.095,0.684,0.197c0.547,0.146,0.929,0.267,1.145,0.359
			c0.217,0.093,0.387,0.229,0.51,0.406s0.185,0.397,0.185,0.661c0,0.258-0.075,0.501-0.226,0.729s-0.367,0.404-0.651,0.528
			c-0.283,0.125-0.604,0.188-0.962,0.188c-0.593,0-1.045-0.123-1.355-0.37C341.832,16.747,341.634,16.381,341.548,15.897z"/>
		<path fill="#1A1A1A" d="M349.247,17.259v-0.67c-0.354,0.516-0.838,0.773-1.447,0.773c-0.27,0-0.521-0.052-0.755-0.155
			c-0.233-0.103-0.406-0.232-0.52-0.389s-0.192-0.348-0.238-0.573c-0.032-0.152-0.048-0.393-0.048-0.723v-2.827h0.773v2.531
			c0,0.403,0.016,0.676,0.048,0.816c0.049,0.203,0.151,0.363,0.31,0.479c0.157,0.116,0.352,0.175,0.584,0.175
			s0.449-0.06,0.653-0.179c0.203-0.119,0.347-0.28,0.432-0.485c0.084-0.205,0.127-0.502,0.127-0.892v-2.445h0.773v4.563H349.247z"/>
		<path fill="#1A1A1A" d="M351.151,19.008v-6.312h0.705v0.593c0.166-0.231,0.354-0.405,0.562-0.521s0.463-0.174,0.761-0.174
			c0.39,0,0.733,0.1,1.031,0.301c0.298,0.2,0.522,0.483,0.675,0.849c0.151,0.365,0.228,0.766,0.228,1.2
			c0,0.468-0.084,0.888-0.252,1.262c-0.167,0.374-0.411,0.66-0.73,0.859s-0.655,0.299-1.007,0.299c-0.258,0-0.489-0.055-0.694-0.164
			c-0.205-0.108-0.373-0.246-0.505-0.412v2.222H351.151z M351.852,15.003c0,0.587,0.119,1.021,0.356,1.302
			c0.238,0.281,0.526,0.421,0.864,0.421c0.344,0,0.638-0.145,0.883-0.436s0.367-0.741,0.367-1.352c0-0.581-0.119-1.017-0.358-1.307
			c-0.239-0.289-0.525-0.434-0.857-0.434c-0.329,0-0.621,0.154-0.874,0.462C351.979,13.968,351.852,14.417,351.852,15.003z"/>
		<path fill="#1A1A1A" d="M359.169,15.79l0.799,0.099c-0.126,0.468-0.359,0.83-0.7,1.088s-0.776,0.387-1.307,0.387
			c-0.667,0-1.196-0.206-1.587-0.617c-0.392-0.411-0.587-0.987-0.587-1.729c0-0.768,0.197-1.363,0.593-1.787
			s0.908-0.636,1.538-0.636c0.61,0,1.109,0.207,1.496,0.623c0.387,0.415,0.58,0.999,0.58,1.753c0,0.046-0.002,0.114-0.005,0.206
			h-3.403c0.029,0.501,0.171,0.885,0.426,1.151s0.573,0.399,0.954,0.399c0.283,0,0.525-0.074,0.726-0.223
			C358.893,16.354,359.051,16.117,359.169,15.79z M356.629,14.54h2.549c-0.035-0.384-0.132-0.672-0.293-0.864
			c-0.246-0.298-0.565-0.446-0.958-0.446c-0.355,0-0.653,0.119-0.896,0.356C356.789,13.824,356.655,14.141,356.629,14.54z"/>
		<path fill="#1A1A1A" d="M360.931,17.259v-4.563h0.696v0.692c0.178-0.324,0.342-0.537,0.492-0.641s0.315-0.154,0.496-0.154
			c0.261,0,0.525,0.083,0.795,0.249l-0.267,0.718c-0.188-0.112-0.378-0.168-0.567-0.168c-0.169,0-0.32,0.051-0.455,0.152
			s-0.23,0.243-0.288,0.424c-0.086,0.274-0.129,0.575-0.129,0.902v2.389H360.931z"/>
		<path fill="#1A1A1A" d="M365.138,17.259l-1.736-4.563h0.816l0.98,2.733c0.105,0.295,0.203,0.602,0.292,0.919
			c0.068-0.24,0.164-0.529,0.288-0.868l1.014-2.784h0.795l-1.728,4.563H365.138z"/>
		<path fill="#1A1A1A" d="M368.273,11.849V10.96h0.773v0.889H368.273z M368.273,17.259v-4.563h0.773v4.563H368.273z"/>
		<path fill="#1A1A1A" d="M369.915,15.897l0.765-0.12c0.043,0.307,0.163,0.541,0.359,0.705c0.196,0.163,0.471,0.244,0.822,0.244
			c0.355,0,0.619-0.072,0.791-0.217s0.258-0.314,0.258-0.509c0-0.175-0.076-0.312-0.228-0.413c-0.106-0.068-0.37-0.155-0.791-0.262
			c-0.567-0.144-0.96-0.267-1.18-0.372c-0.219-0.104-0.385-0.249-0.498-0.434s-0.17-0.389-0.17-0.612
			c0-0.203,0.047-0.392,0.14-0.565c0.093-0.173,0.22-0.316,0.381-0.432c0.12-0.089,0.284-0.164,0.491-0.226
			c0.208-0.062,0.431-0.092,0.669-0.092c0.357,0,0.672,0.051,0.942,0.154c0.271,0.104,0.471,0.243,0.6,0.419
			s0.218,0.412,0.267,0.707l-0.756,0.103c-0.035-0.234-0.135-0.418-0.299-0.55c-0.165-0.132-0.397-0.197-0.698-0.197
			c-0.355,0-0.609,0.059-0.761,0.176c-0.152,0.118-0.228,0.255-0.228,0.413c0,0.1,0.031,0.19,0.095,0.271
			c0.062,0.083,0.161,0.151,0.296,0.206c0.077,0.028,0.306,0.095,0.684,0.197c0.547,0.146,0.929,0.267,1.145,0.359
			c0.217,0.093,0.387,0.229,0.51,0.406s0.185,0.397,0.185,0.661c0,0.258-0.075,0.501-0.226,0.729s-0.367,0.404-0.651,0.528
			c-0.283,0.125-0.604,0.188-0.962,0.188c-0.593,0-1.045-0.123-1.355-0.37C370.199,16.747,370.001,16.381,369.915,15.897z"/>
		<path fill="#1A1A1A" d="M377.749,15.79l0.799,0.099c-0.126,0.468-0.359,0.83-0.7,1.088s-0.776,0.387-1.307,0.387
			c-0.667,0-1.196-0.206-1.587-0.617c-0.392-0.411-0.587-0.987-0.587-1.729c0-0.768,0.197-1.363,0.593-1.787
			s0.908-0.636,1.538-0.636c0.61,0,1.109,0.207,1.496,0.623c0.387,0.415,0.58,0.999,0.58,1.753c0,0.046-0.002,0.114-0.005,0.206
			h-3.403c0.029,0.501,0.171,0.885,0.426,1.151s0.573,0.399,0.954,0.399c0.283,0,0.525-0.074,0.726-0.223
			C377.473,16.354,377.631,16.117,377.749,15.79z M375.209,14.54h2.549c-0.035-0.384-0.132-0.672-0.293-0.864
			c-0.246-0.298-0.565-0.446-0.958-0.446c-0.355,0-0.653,0.119-0.896,0.356C375.369,13.824,375.235,14.141,375.209,14.54z"/>
		<path fill="#1A1A1A" d="M382.48,17.259v-0.576c-0.29,0.453-0.715,0.68-1.276,0.68c-0.364,0-0.698-0.101-1.004-0.301
			c-0.305-0.201-0.541-0.48-0.709-0.841c-0.167-0.359-0.251-0.772-0.251-1.239c0-0.455,0.076-0.868,0.228-1.239
			c0.152-0.371,0.38-0.655,0.684-0.854c0.304-0.197,0.643-0.296,1.019-0.296c0.274,0,0.52,0.058,0.734,0.174s0.39,0.267,0.524,0.453
			v-2.26h0.769v6.299H382.48z M380.035,14.982c0,0.584,0.123,1.021,0.369,1.311c0.247,0.289,0.537,0.434,0.873,0.434
			c0.338,0,0.625-0.138,0.861-0.414s0.354-0.698,0.354-1.266c0-0.624-0.12-1.083-0.361-1.375c-0.24-0.292-0.537-0.438-0.89-0.438
			c-0.344,0-0.631,0.141-0.861,0.421C380.15,13.935,380.035,14.377,380.035,14.982z"/>
	</g>
</g>
<g>
	<defs>
		<rect id="SVGID_13_" x="461.211" y="5.48" width="208.351" height="17.258"/>
	</defs>
	<clipPath id="SVGID_14_">
		<use xlink:href="#SVGID_13_"  overflow="visible"/>
	</clipPath>
	<g clip-path="url(#SVGID_14_)">
		<rect x="461.211" y="5.48" fill="#D9D9D9" width="208.351" height="17.258"/>
	</g>
	<g clip-path="url(#SVGID_14_)">
		<path fill="#333333" d="M669.562,23.271H461.211c-0.295,0-0.533-0.239-0.533-0.534V5.48c0-0.294,0.238-0.534,0.533-0.534h208.351
			c0.295,0,0.533,0.239,0.533,0.534v17.258C670.095,23.032,669.856,23.271,669.562,23.271L669.562,23.271z M461.744,22.204h207.284
			V6.014H461.744V22.204L461.744,22.204z"/>
	</g>
	<g clip-path="url(#SVGID_14_)">
		<path fill="#1A1A1A" d="M544.499,15.236l0.786-0.069c0.037,0.315,0.124,0.574,0.26,0.775c0.136,0.202,0.348,0.365,0.634,0.49
			s0.608,0.187,0.967,0.187c0.318,0,0.599-0.047,0.843-0.142c0.243-0.095,0.424-0.224,0.543-0.389s0.179-0.345,0.179-0.539
			c0-0.198-0.058-0.37-0.172-0.518c-0.115-0.147-0.304-0.271-0.567-0.372c-0.169-0.065-0.543-0.168-1.121-0.308
			c-0.579-0.139-0.984-0.27-1.217-0.393c-0.301-0.157-0.524-0.354-0.672-0.587s-0.222-0.494-0.222-0.784
			c0-0.317,0.091-0.615,0.271-0.892c0.181-0.276,0.444-0.486,0.791-0.629c0.347-0.144,0.731-0.215,1.156-0.215
			c0.467,0,0.878,0.075,1.235,0.226c0.356,0.15,0.631,0.371,0.822,0.663c0.192,0.293,0.295,0.623,0.31,0.993l-0.799,0.06
			c-0.043-0.397-0.188-0.698-0.437-0.902c-0.248-0.203-0.614-0.305-1.098-0.305c-0.505,0-0.872,0.093-1.103,0.277
			s-0.346,0.407-0.346,0.668c0,0.227,0.082,0.412,0.245,0.559c0.16,0.146,0.579,0.296,1.257,0.449
			c0.677,0.153,1.142,0.287,1.395,0.401c0.366,0.169,0.637,0.384,0.812,0.643c0.175,0.26,0.263,0.558,0.263,0.896
			c0,0.336-0.097,0.651-0.288,0.948c-0.192,0.296-0.468,0.526-0.827,0.691s-0.765,0.247-1.214,0.247
			c-0.57,0-1.048-0.083-1.434-0.249c-0.385-0.166-0.688-0.416-0.906-0.75S544.51,15.657,544.499,15.236z"/>
		<path fill="#1A1A1A" d="M550.553,19.008v-6.312h0.705v0.593c0.166-0.231,0.354-0.405,0.562-0.521s0.463-0.174,0.761-0.174
			c0.39,0,0.733,0.1,1.031,0.301c0.298,0.2,0.522,0.483,0.675,0.849c0.151,0.365,0.228,0.766,0.228,1.2
			c0,0.468-0.084,0.888-0.252,1.262c-0.167,0.374-0.411,0.66-0.73,0.859s-0.655,0.299-1.007,0.299c-0.258,0-0.489-0.055-0.694-0.164
			c-0.205-0.108-0.373-0.246-0.505-0.412v2.222H550.553z M551.253,15.003c0,0.587,0.119,1.021,0.356,1.302
			c0.238,0.281,0.526,0.421,0.864,0.421c0.344,0,0.638-0.145,0.883-0.436s0.367-0.741,0.367-1.352c0-0.581-0.119-1.017-0.358-1.307
			c-0.239-0.289-0.525-0.434-0.857-0.434c-0.329,0-0.621,0.154-0.874,0.462C551.38,13.968,551.253,14.417,551.253,15.003z"/>
		<path fill="#1A1A1A" d="M555.159,14.978c0-0.846,0.235-1.472,0.705-1.878c0.393-0.338,0.87-0.507,1.435-0.507
			c0.628,0,1.141,0.205,1.539,0.616c0.397,0.411,0.597,0.979,0.597,1.704c0,0.587-0.088,1.049-0.264,1.386
			c-0.177,0.336-0.433,0.598-0.77,0.784c-0.337,0.186-0.704,0.279-1.103,0.279c-0.639,0-1.155-0.205-1.549-0.615
			C555.356,16.338,555.159,15.749,555.159,14.978z M555.954,14.978c0,0.584,0.128,1.021,0.383,1.312s0.575,0.436,0.962,0.436
			c0.384,0,0.703-0.146,0.959-0.438c0.255-0.293,0.382-0.738,0.382-1.337c0-0.564-0.128-0.991-0.385-1.282
			c-0.256-0.291-0.575-0.437-0.956-0.437c-0.387,0-0.707,0.145-0.962,0.435C556.082,13.957,555.954,14.393,555.954,14.978z"/>
		<path fill="#1A1A1A" d="M563.332,17.259v-0.67c-0.354,0.516-0.838,0.773-1.447,0.773c-0.27,0-0.521-0.052-0.755-0.155
			c-0.233-0.103-0.406-0.232-0.52-0.389s-0.192-0.348-0.238-0.573c-0.032-0.152-0.048-0.393-0.048-0.723v-2.827h0.773v2.531
			c0,0.403,0.016,0.676,0.048,0.816c0.049,0.203,0.151,0.363,0.31,0.479c0.157,0.116,0.352,0.175,0.584,0.175
			s0.449-0.06,0.653-0.179c0.203-0.119,0.347-0.28,0.432-0.485c0.084-0.205,0.127-0.502,0.127-0.892v-2.445h0.773v4.563H563.332z"/>
		<path fill="#1A1A1A" d="M564.926,15.897l0.765-0.12c0.043,0.307,0.163,0.541,0.359,0.705c0.196,0.163,0.471,0.244,0.822,0.244
			c0.355,0,0.619-0.072,0.791-0.217s0.258-0.314,0.258-0.509c0-0.175-0.076-0.312-0.228-0.413c-0.106-0.068-0.37-0.155-0.791-0.262
			c-0.567-0.144-0.96-0.267-1.18-0.372c-0.219-0.104-0.385-0.249-0.498-0.434s-0.17-0.389-0.17-0.612
			c0-0.203,0.047-0.392,0.14-0.565c0.093-0.173,0.22-0.316,0.381-0.432c0.12-0.089,0.284-0.164,0.491-0.226
			c0.208-0.062,0.431-0.092,0.669-0.092c0.357,0,0.672,0.051,0.942,0.154c0.271,0.104,0.471,0.243,0.6,0.419
			s0.218,0.412,0.267,0.707l-0.756,0.103c-0.035-0.234-0.135-0.418-0.299-0.55c-0.165-0.132-0.397-0.197-0.698-0.197
			c-0.355,0-0.609,0.059-0.761,0.176c-0.152,0.118-0.228,0.255-0.228,0.413c0,0.1,0.031,0.19,0.095,0.271
			c0.062,0.083,0.161,0.151,0.296,0.206c0.077,0.028,0.306,0.095,0.684,0.197c0.547,0.146,0.929,0.267,1.145,0.359
			c0.217,0.093,0.387,0.229,0.51,0.406s0.185,0.397,0.185,0.661c0,0.258-0.075,0.501-0.226,0.729s-0.367,0.404-0.651,0.528
			c-0.283,0.125-0.604,0.188-0.962,0.188c-0.593,0-1.045-0.123-1.355-0.37C565.21,16.747,565.012,16.381,564.926,15.897z"/>
		<path fill="#1A1A1A" d="M572.76,15.79l0.799,0.099c-0.126,0.468-0.359,0.83-0.7,1.088s-0.776,0.387-1.307,0.387
			c-0.667,0-1.196-0.206-1.587-0.617c-0.392-0.411-0.587-0.987-0.587-1.729c0-0.768,0.197-1.363,0.593-1.787
			s0.908-0.636,1.538-0.636c0.61,0,1.109,0.207,1.496,0.623c0.387,0.415,0.58,0.999,0.58,1.753c0,0.046-0.002,0.114-0.005,0.206
			h-3.403c0.029,0.501,0.171,0.885,0.426,1.151s0.573,0.399,0.954,0.399c0.283,0,0.525-0.074,0.726-0.223
			C572.483,16.354,572.642,16.117,572.76,15.79z M570.22,14.54h2.549c-0.035-0.384-0.132-0.672-0.293-0.864
			c-0.246-0.298-0.565-0.446-0.958-0.446c-0.355,0-0.653,0.119-0.896,0.356C570.38,13.824,570.246,14.141,570.22,14.54z"/>
		<path fill="#1A1A1A" d="M574.229,15.369v-0.777h2.376v0.777H574.229z"/>
		<path fill="#1A1A1A" d="M580.421,17.259v-0.576c-0.29,0.453-0.715,0.68-1.276,0.68c-0.364,0-0.698-0.101-1.004-0.301
			c-0.305-0.201-0.541-0.48-0.709-0.841c-0.167-0.359-0.251-0.772-0.251-1.239c0-0.455,0.076-0.868,0.228-1.239
			c0.152-0.371,0.38-0.655,0.684-0.854c0.304-0.197,0.643-0.296,1.019-0.296c0.274,0,0.52,0.058,0.734,0.174s0.39,0.267,0.524,0.453
			v-2.26h0.769v6.299H580.421z M577.976,14.982c0,0.584,0.123,1.021,0.369,1.311c0.247,0.289,0.537,0.434,0.873,0.434
			c0.338,0,0.625-0.138,0.861-0.414s0.354-0.698,0.354-1.266c0-0.624-0.12-1.083-0.361-1.375c-0.24-0.292-0.537-0.438-0.89-0.438
			c-0.344,0-0.631,0.141-0.861,0.421C578.091,13.935,577.976,14.377,577.976,14.982z"/>
		<path fill="#1A1A1A" d="M582.354,19.008v-6.312h0.705v0.593c0.166-0.231,0.354-0.405,0.562-0.521s0.463-0.174,0.761-0.174
			c0.39,0,0.733,0.1,1.031,0.301c0.298,0.2,0.522,0.483,0.675,0.849c0.151,0.365,0.228,0.766,0.228,1.2
			c0,0.468-0.084,0.888-0.252,1.262c-0.167,0.374-0.411,0.66-0.73,0.859s-0.655,0.299-1.007,0.299c-0.258,0-0.489-0.055-0.694-0.164
			c-0.205-0.108-0.373-0.246-0.505-0.412v2.222H582.354z M583.055,15.003c0,0.587,0.119,1.021,0.356,1.302
			c0.238,0.281,0.526,0.421,0.864,0.421c0.344,0,0.638-0.145,0.883-0.436s0.367-0.741,0.367-1.352c0-0.581-0.119-1.017-0.358-1.307
			c-0.239-0.289-0.525-0.434-0.857-0.434c-0.329,0-0.621,0.154-0.874,0.462C583.182,13.968,583.055,14.417,583.055,15.003z"/>
	</g>
</g>
<g>
	<defs>
		<rect id="SVGID_15_" y="0" width="675.041" height="344.036"/>
	</defs>
	<clipPath id="SVGID_16_">
		<use xlink:href="#SVGID_15_"  overflow="visible"/>
	</clipPath>
	<g clip-path="url(#SVGID_16_)">
		<path fill="#4D4D4D" d="M19.198,238.536l0.812-0.068c0.06,0.395,0.2,0.691,0.419,0.891s0.483,0.299,0.793,0.299
			c0.372,0,0.688-0.141,0.945-0.421s0.387-0.653,0.387-1.117c0-0.44-0.124-0.789-0.372-1.044c-0.248-0.255-0.572-0.383-0.974-0.383
			c-0.249,0-0.474,0.057-0.674,0.17c-0.201,0.113-0.358,0.26-0.473,0.44l-0.726-0.095l0.61-3.235h3.132v0.739h-2.514l-0.339,1.693
			c0.378-0.264,0.775-0.396,1.19-0.396c0.55,0,1.014,0.191,1.392,0.572s0.567,0.871,0.567,1.469c0,0.57-0.167,1.063-0.499,1.479
			c-0.404,0.51-0.956,0.766-1.654,0.766c-0.573,0-1.041-0.16-1.403-0.482C19.457,239.491,19.25,239.065,19.198,238.536z"/>
		<path fill="#4D4D4D" d="M26.572,240.186v-1.509h-2.733v-0.709l2.875-4.082h0.632v4.082h0.851v0.709h-0.851v1.509H26.572z
			 M26.572,237.968v-2.841l-1.973,2.841H26.572z"/>
	</g>
	<g clip-path="url(#SVGID_16_)">
		<path fill="#4D4D4D" d="M19.198,168.921l0.812-0.069c0.06,0.396,0.2,0.692,0.419,0.892s0.483,0.299,0.793,0.299
			c0.372,0,0.688-0.141,0.945-0.421s0.387-0.653,0.387-1.117c0-0.441-0.124-0.789-0.372-1.044c-0.248-0.255-0.572-0.382-0.974-0.382
			c-0.249,0-0.474,0.057-0.674,0.169c-0.201,0.113-0.358,0.26-0.473,0.44l-0.726-0.094l0.61-3.236h3.132v0.739h-2.514l-0.339,1.693
			c0.378-0.264,0.775-0.396,1.19-0.396c0.55,0,1.014,0.191,1.392,0.572s0.567,0.871,0.567,1.469c0,0.57-0.167,1.063-0.499,1.479
			c-0.404,0.51-0.956,0.765-1.654,0.765c-0.573,0-1.041-0.16-1.403-0.481C19.457,169.876,19.25,169.451,19.198,168.921z"/>
		<path fill="#4D4D4D" d="M24.144,165.097v-0.744h4.078v0.602c-0.401,0.427-0.799,0.994-1.192,1.702
			c-0.394,0.708-0.698,1.435-0.913,2.183c-0.155,0.527-0.253,1.104-0.296,1.731h-0.795c0.008-0.495,0.106-1.094,0.292-1.796
			c0.186-0.702,0.453-1.379,0.801-2.03c0.348-0.652,0.718-1.201,1.111-1.648H24.144z"/>
	</g>
	<g clip-path="url(#SVGID_16_)">
		<path fill="#4D4D4D" d="M23.211,96.199l-0.769,0.061c-0.069-0.304-0.166-0.524-0.292-0.662c-0.209-0.221-0.467-0.331-0.773-0.331
			c-0.247,0-0.463,0.069-0.649,0.207c-0.244,0.178-0.436,0.437-0.576,0.777c-0.141,0.341-0.214,0.826-0.219,1.457
			c0.186-0.284,0.414-0.494,0.683-0.632c0.269-0.138,0.551-0.206,0.847-0.206c0.516,0,0.955,0.189,1.317,0.569
			c0.362,0.379,0.543,0.87,0.543,1.472c0,0.395-0.085,0.763-0.256,1.102c-0.17,0.34-0.404,0.6-0.702,0.78
			c-0.298,0.181-0.636,0.271-1.014,0.271c-0.645,0-1.17-0.237-1.577-0.711c-0.407-0.475-0.61-1.256-0.61-2.344
			c0-1.218,0.225-2.103,0.674-2.656c0.393-0.48,0.921-0.722,1.585-0.722c0.496,0,0.902,0.14,1.218,0.417
			C22.958,95.326,23.148,95.709,23.211,96.199z M20.053,98.915c0,0.267,0.057,0.521,0.17,0.765c0.113,0.244,0.271,0.43,0.475,0.557
			c0.204,0.128,0.417,0.191,0.64,0.191c0.327,0,0.607-0.132,0.842-0.396s0.353-0.621,0.353-1.074c0-0.436-0.116-0.778-0.348-1.029
			c-0.232-0.25-0.524-0.376-0.876-0.376c-0.35,0-0.646,0.126-0.89,0.376C20.175,98.179,20.053,98.508,20.053,98.915z"/>
		<path fill="#4D4D4D" d="M24.092,97.849c0-0.745,0.077-1.345,0.23-1.799c0.153-0.453,0.381-0.804,0.683-1.05
			c0.302-0.247,0.683-0.37,1.141-0.37c0.338,0,0.635,0.068,0.89,0.204c0.255,0.137,0.465,0.333,0.632,0.589
			c0.166,0.257,0.296,0.568,0.391,0.937c0.095,0.368,0.142,0.864,0.142,1.489c0,0.739-0.076,1.336-0.228,1.789
			c-0.152,0.454-0.379,0.806-0.681,1.053c-0.302,0.248-0.684,0.372-1.146,0.372c-0.607,0-1.084-0.218-1.431-0.653
			C24.3,99.885,24.092,99.032,24.092,97.849z M24.887,97.849c0,1.034,0.121,1.723,0.363,2.064c0.242,0.343,0.541,0.514,0.896,0.514
			c0.355,0,0.654-0.172,0.896-0.516s0.363-1.031,0.363-2.062c0-1.037-0.121-1.726-0.363-2.067c-0.242-0.341-0.543-0.511-0.904-0.511
			c-0.355,0-0.639,0.15-0.851,0.451C25.021,96.106,24.887,96.815,24.887,97.849z"/>
	</g>
	<g clip-path="url(#SVGID_16_)">
		<path fill="#4D4D4D" d="M23.211,26.583l-0.769,0.061c-0.069-0.304-0.166-0.524-0.292-0.662c-0.209-0.221-0.467-0.331-0.773-0.331
			c-0.247,0-0.463,0.069-0.649,0.207c-0.244,0.178-0.436,0.437-0.576,0.777c-0.141,0.341-0.214,0.826-0.219,1.457
			c0.186-0.284,0.414-0.494,0.683-0.632c0.269-0.138,0.551-0.206,0.847-0.206c0.516,0,0.955,0.189,1.317,0.569
			c0.362,0.379,0.543,0.87,0.543,1.472c0,0.395-0.085,0.763-0.256,1.102c-0.17,0.34-0.404,0.6-0.702,0.78
			c-0.298,0.181-0.636,0.271-1.014,0.271c-0.645,0-1.17-0.237-1.577-0.711c-0.407-0.475-0.61-1.256-0.61-2.344
			c0-1.218,0.225-2.103,0.674-2.656c0.393-0.48,0.921-0.722,1.585-0.722c0.496,0,0.902,0.14,1.218,0.417
			C22.958,25.71,23.148,26.094,23.211,26.583z M20.053,29.299c0,0.267,0.057,0.521,0.17,0.765c0.113,0.244,0.271,0.43,0.475,0.557
			c0.204,0.128,0.417,0.191,0.64,0.191c0.327,0,0.607-0.132,0.842-0.396s0.353-0.621,0.353-1.074c0-0.436-0.116-0.778-0.348-1.029
			c-0.232-0.25-0.524-0.376-0.876-0.376c-0.35,0-0.646,0.126-0.89,0.376C20.175,28.564,20.053,28.893,20.053,29.299z"/>
		<path fill="#4D4D4D" d="M24.097,29.677l0.773-0.103c0.089,0.438,0.24,0.754,0.453,0.947s0.474,0.29,0.78,0.29
			c0.364,0,0.671-0.126,0.922-0.378s0.376-0.564,0.376-0.938c0-0.354-0.116-0.647-0.348-0.878s-0.527-0.347-0.885-0.347
			c-0.146,0-0.328,0.029-0.545,0.086l0.086-0.679c0.051,0.006,0.093,0.009,0.125,0.009c0.33,0,0.626-0.086,0.89-0.258
			c0.263-0.172,0.395-0.437,0.395-0.795c0-0.283-0.096-0.519-0.288-0.705c-0.192-0.186-0.44-0.279-0.744-0.279
			c-0.301,0-0.551,0.095-0.752,0.284c-0.201,0.188-0.33,0.473-0.387,0.851l-0.773-0.138c0.095-0.519,0.31-0.92,0.645-1.205
			c0.335-0.285,0.752-0.428,1.25-0.428c0.344,0,0.66,0.074,0.95,0.222c0.289,0.147,0.51,0.349,0.664,0.604s0.23,0.525,0.23,0.812
			c0,0.271-0.073,0.52-0.219,0.743c-0.146,0.224-0.362,0.401-0.648,0.532c0.372,0.086,0.662,0.265,0.868,0.535
			c0.207,0.271,0.31,0.609,0.31,1.017c0,0.55-0.201,1.016-0.602,1.398c-0.401,0.383-0.908,0.573-1.521,0.573
			c-0.553,0-1.012-0.164-1.377-0.494C24.356,30.628,24.148,30.202,24.097,29.677z"/>
	</g>
</g>
<g>
	<defs>
		<rect id="SVGID_17_" y="0" width="675.041" height="344.036"/>
	</defs>
	<clipPath id="SVGID_18_">
		<use xlink:href="#SVGID_17_"  overflow="visible"/>
	</clipPath>
	<g clip-path="url(#SVGID_18_)">
		<polygon fill="#333333" points="33.553,237.569 30.813,237.569 30.813,236.502 33.553,236.502 33.553,237.569 		"/>
	</g>
	<g clip-path="url(#SVGID_18_)">
		<polygon fill="#333333" points="33.553,167.955 30.813,167.955 30.813,166.887 33.553,166.887 33.553,167.955 		"/>
	</g>
	<g clip-path="url(#SVGID_18_)">
		<polygon fill="#333333" points="33.553,98.34 30.813,98.34 30.813,97.272 33.553,97.272 33.553,98.34 		"/>
	</g>
	<g clip-path="url(#SVGID_18_)">
		<polygon fill="#333333" points="33.553,28.725 30.813,28.725 30.813,27.658 33.553,27.658 33.553,28.725 		"/>
	</g>
</g>
<g>
	<defs>
		<rect id="SVGID_19_" y="0" width="675.041" height="344.036"/>
	</defs>
	<clipPath id="SVGID_20_">
		<use xlink:href="#SVGID_19_"  overflow="visible"/>
	</clipPath>
	<g clip-path="url(#SVGID_20_)">
		<path d="M13.354,164.816H5.48v-5.312h0.929v4.27h2.439v-3.695h0.929v3.695h3.577V164.816z"/>
		<path d="M13.354,154.901v0.967H7.193c0.222,0.233,0.444,0.538,0.666,0.916c0.223,0.378,0.389,0.717,0.5,1.018H7.424
			c-0.254-0.541-0.562-1.013-0.924-1.418s-0.712-0.691-1.053-0.859v-0.623H13.354z"/>
	</g>
</g>
<g>
	<defs>
		<rect id="SVGID_21_" y="0" width="675.041" height="344.036"/>
	</defs>
	<clipPath id="SVGID_22_">
		<use xlink:href="#SVGID_21_"  overflow="visible"/>
	</clipPath>
	<g clip-path="url(#SVGID_22_)">
		<g>
			<rect x="197.435" y="309.939" fill="#FFFFFF" width="308.244" height="28.618"/>
		</g>
		<g opacity="0">
			<path fill="#FFFFFF" d="M505.679,339.09H197.435c-0.294,0-0.534-0.238-0.534-0.533v-28.618c0-0.295,0.239-0.533,0.534-0.533
				h308.244c0.295,0,0.533,0.238,0.533,0.533v28.618C506.212,338.852,505.974,339.09,505.679,339.09L505.679,339.09z
				 M197.968,338.024h307.177v-27.552H197.968V338.024L197.968,338.024z"/>
		</g>
	</g>
</g>
<g>
	<defs>
		<rect id="SVGID_23_" y="0" width="675.041" height="344.036"/>
	</defs>
	<clipPath id="SVGID_24_">
		<use xlink:href="#SVGID_23_"  overflow="visible"/>
	</clipPath>
	<g clip-path="url(#SVGID_24_)">
		<path d="M203.92,328.185v-7.874h1.568l1.864,5.575c0.172,0.519,0.297,0.907,0.376,1.165c0.089-0.286,0.229-0.707,0.419-1.262
			l1.885-5.479h1.402v7.874h-1.004v-6.591l-2.288,6.591h-0.94l-2.277-6.703v6.703H203.92z"/>
		<path d="M212.799,324.35c0-1.307,0.351-2.33,1.053-3.069s1.608-1.109,2.718-1.109c0.727,0,1.382,0.174,1.966,0.521
			c0.583,0.348,1.029,0.832,1.334,1.453c0.307,0.621,0.459,1.326,0.459,2.113c0,0.799-0.161,1.514-0.483,2.144
			s-0.779,1.107-1.37,1.432c-0.591,0.323-1.228,0.485-1.912,0.485c-0.741,0-1.404-0.179-1.987-0.537
			c-0.583-0.357-1.026-0.846-1.327-1.466S212.799,325.042,212.799,324.35z M213.873,324.366c0,0.949,0.255,1.697,0.765,2.243
			c0.511,0.546,1.15,0.819,1.92,0.819c0.784,0,1.43-0.276,1.936-0.828c0.507-0.551,0.76-1.334,0.76-2.347
			c0-0.642-0.108-1.2-0.325-1.679c-0.217-0.478-0.534-0.849-0.951-1.111c-0.417-0.264-0.885-0.395-1.404-0.395
			c-0.738,0-1.372,0.253-1.904,0.76C214.139,322.334,213.873,323.181,213.873,324.366z"/>
		<path d="M221.672,328.185v-7.874h2.712c0.612,0,1.08,0.037,1.402,0.113c0.451,0.104,0.836,0.291,1.155,0.563
			c0.416,0.351,0.726,0.8,0.932,1.346c0.206,0.546,0.309,1.17,0.309,1.872c0,0.598-0.07,1.127-0.209,1.59
			c-0.14,0.461-0.319,0.844-0.537,1.146s-0.458,0.541-0.717,0.714c-0.259,0.174-0.573,0.306-0.939,0.396
			c-0.367,0.089-0.789,0.134-1.265,0.134H221.672z M222.714,327.256h1.681c0.519,0,0.926-0.049,1.222-0.146
			c0.295-0.097,0.531-0.233,0.706-0.408c0.247-0.247,0.439-0.579,0.577-0.996c0.138-0.417,0.207-0.923,0.207-1.518
			c0-0.823-0.135-1.456-0.405-1.898c-0.271-0.442-0.599-0.739-0.986-0.89c-0.279-0.107-0.729-0.16-1.348-0.16h-1.654V327.256z"/>
		<path d="M229.637,328.185v-7.874h5.693v0.93h-4.651v2.411h4.356v0.924h-4.356v2.681h4.834v0.929H229.637z"/>
		<path d="M236.91,328.185v-7.874h1.042v6.945h3.878v0.929H236.91z"/>
	</g>
</g>
<g>
	<defs>
		<rect id="SVGID_25_" y="0" width="675.041" height="344.036"/>
	</defs>
	<clipPath id="SVGID_26_">
		<use xlink:href="#SVGID_25_"  overflow="visible"/>
	</clipPath>
	<g clip-path="url(#SVGID_26_)">
		<g>
			<rect x="246.542" y="315.608" fill="#FFFFFF" width="17.28" height="17.28"/>
		</g>
		<g opacity="0">
			<path fill="#FFFFFF" d="M263.822,333.421h-17.28c-0.294,0-0.534-0.238-0.534-0.533v-17.28c0-0.295,0.239-0.533,0.534-0.533h17.28
				c0.294,0,0.534,0.238,0.534,0.533v17.28C264.355,333.183,264.116,333.421,263.822,333.421L263.822,333.421z M247.076,332.355
				h16.212v-16.214h-16.212V332.355L247.076,332.355z"/>
		</g>
	</g>
</g>
<g>
	<defs>
		<rect id="SVGID_27_" y="0" width="675.041" height="344.036"/>
	</defs>
	<clipPath id="SVGID_28_">
		<use xlink:href="#SVGID_27_"  overflow="visible"/>
	</clipPath>
	<g clip-path="url(#SVGID_28_)">
		<path fill="#333333" d="M255.182,331.693c-0.294,0-0.534-0.238-0.534-0.533v-2.592c0-0.295,0.239-0.533,0.534-0.533
			s0.534,0.238,0.534,0.533v2.592C255.715,331.455,255.476,331.693,255.182,331.693L255.182,331.693z"/>
	</g>
	<g clip-path="url(#SVGID_28_)">
		<path fill="#333333" d="M255.182,320.461c-0.294,0-0.534-0.238-0.534-0.533v-2.592c0-0.295,0.239-0.533,0.534-0.533
			s0.534,0.238,0.534,0.533v2.592C255.715,320.223,255.476,320.461,255.182,320.461L255.182,320.461z"/>
	</g>
	<g clip-path="url(#SVGID_28_)">
		<rect x="248.702" y="319.928" fill="#F8766D" width="12.96" height="8.64"/>
	</g>
	<g clip-path="url(#SVGID_28_)">
		<path fill="#333333" d="M261.662,329.101h-12.96c-0.294,0-0.534-0.238-0.534-0.533v-8.64c0-0.295,0.239-0.533,0.534-0.533h12.96
			c0.294,0,0.534,0.238,0.534,0.533v8.64C262.195,328.863,261.956,329.101,261.662,329.101L261.662,329.101z M249.235,328.035
			h11.893v-7.573h-11.893V328.035L249.235,328.035z"/>
	</g>
	<g clip-path="url(#SVGID_28_)">
		<path fill="#333333" d="M261.662,324.781h-12.96c-0.294,0-0.534-0.238-0.534-0.533s0.239-0.533,0.534-0.533h12.96
			c0.294,0,0.534,0.238,0.534,0.533S261.956,324.781,261.662,324.781L261.662,324.781z"/>
	</g>
</g>
<g>
	<defs>
		<rect id="SVGID_29_" y="0" width="675.041" height="344.036"/>
	</defs>
	<clipPath id="SVGID_30_">
		<use xlink:href="#SVGID_29_"  overflow="visible"/>
	</clipPath>
	<g clip-path="url(#SVGID_30_)">
		<g>
			<rect x="299.436" y="315.608" fill="#FFFFFF" width="17.28" height="17.28"/>
		</g>
		<g opacity="0">
			<path fill="#FFFFFF" d="M316.716,333.421h-17.28c-0.294,0-0.534-0.238-0.534-0.533v-17.28c0-0.295,0.239-0.533,0.534-0.533h17.28
				c0.294,0,0.534,0.238,0.534,0.533v17.28C317.25,333.183,317.01,333.421,316.716,333.421L316.716,333.421z M299.97,332.355h16.212
				v-16.214H299.97V332.355L299.97,332.355z"/>
		</g>
	</g>
</g>
<g>
	<defs>
		<rect id="SVGID_31_" y="0" width="675.041" height="344.036"/>
	</defs>
	<clipPath id="SVGID_32_">
		<use xlink:href="#SVGID_31_"  overflow="visible"/>
	</clipPath>
	<g clip-path="url(#SVGID_32_)">
		<path fill="#333333" d="M308.076,331.693c-0.294,0-0.534-0.238-0.534-0.533v-2.592c0-0.295,0.239-0.533,0.534-0.533
			s0.534,0.238,0.534,0.533v2.592C308.609,331.455,308.37,331.693,308.076,331.693L308.076,331.693z"/>
	</g>
	<g clip-path="url(#SVGID_32_)">
		<path fill="#333333" d="M308.076,320.461c-0.294,0-0.534-0.238-0.534-0.533v-2.592c0-0.295,0.239-0.533,0.534-0.533
			s0.534,0.238,0.534,0.533v2.592C308.609,320.223,308.37,320.461,308.076,320.461L308.076,320.461z"/>
	</g>
	<g clip-path="url(#SVGID_32_)">
		<rect x="301.596" y="319.928" fill="#7CAE00" width="12.96" height="8.64"/>
	</g>
	<g clip-path="url(#SVGID_32_)">
		<path fill="#333333" d="M314.556,329.101h-12.96c-0.294,0-0.534-0.238-0.534-0.533v-8.64c0-0.295,0.239-0.533,0.534-0.533h12.96
			c0.294,0,0.534,0.238,0.534,0.533v8.64C315.089,328.863,314.85,329.101,314.556,329.101L314.556,329.101z M302.129,328.035h11.893
			v-7.573h-11.893V328.035L302.129,328.035z"/>
	</g>
	<g clip-path="url(#SVGID_32_)">
		<path fill="#333333" d="M314.556,324.781h-12.96c-0.294,0-0.534-0.238-0.534-0.533s0.239-0.533,0.534-0.533h12.96
			c0.294,0,0.534,0.238,0.534,0.533S314.85,324.781,314.556,324.781L314.556,324.781z"/>
	</g>
</g>
<g>
	<defs>
		<rect id="SVGID_33_" y="0" width="675.041" height="344.036"/>
	</defs>
	<clipPath id="SVGID_34_">
		<use xlink:href="#SVGID_33_"  overflow="visible"/>
	</clipPath>
	<g clip-path="url(#SVGID_34_)">
		<g>
			<rect x="392.205" y="315.608" fill="#FFFFFF" width="17.28" height="17.28"/>
		</g>
		<g opacity="0">
			<path fill="#FFFFFF" d="M409.485,333.421h-17.28c-0.295,0-0.533-0.238-0.533-0.533v-17.28c0-0.295,0.238-0.533,0.533-0.533h17.28
				c0.295,0,0.533,0.238,0.533,0.533v17.28C410.019,333.183,409.78,333.421,409.485,333.421L409.485,333.421z M392.738,332.355
				h16.214v-16.214h-16.214V332.355L392.738,332.355z"/>
		</g>
	</g>
</g>
<g>
	<defs>
		<rect id="SVGID_35_" y="0" width="675.041" height="344.036"/>
	</defs>
	<clipPath id="SVGID_36_">
		<use xlink:href="#SVGID_35_"  overflow="visible"/>
	</clipPath>
	<g clip-path="url(#SVGID_36_)">
		<path fill="#333333" d="M400.845,331.693c-0.295,0-0.533-0.238-0.533-0.533v-2.592c0-0.295,0.238-0.533,0.533-0.533
			s0.533,0.238,0.533,0.533v2.592C401.378,331.455,401.14,331.693,400.845,331.693L400.845,331.693z"/>
	</g>
	<g clip-path="url(#SVGID_36_)">
		<path fill="#333333" d="M400.845,320.461c-0.295,0-0.533-0.238-0.533-0.533v-2.592c0-0.295,0.238-0.533,0.533-0.533
			s0.533,0.238,0.533,0.533v2.592C401.378,320.223,401.14,320.461,400.845,320.461L400.845,320.461z"/>
	</g>
	<g clip-path="url(#SVGID_36_)">
		<rect x="394.365" y="319.928" fill="#00BFC4" width="12.96" height="8.64"/>
	</g>
	<g clip-path="url(#SVGID_36_)">
		<path fill="#333333" d="M407.325,329.101h-12.96c-0.295,0-0.533-0.238-0.533-0.533v-8.64c0-0.295,0.238-0.533,0.533-0.533h12.96
			c0.295,0,0.533,0.238,0.533,0.533v8.64C407.858,328.863,407.62,329.101,407.325,329.101L407.325,329.101z M394.898,328.035h11.894
			v-7.573h-11.894V328.035L394.898,328.035z"/>
	</g>
	<g clip-path="url(#SVGID_36_)">
		<path fill="#333333" d="M407.325,324.781h-12.96c-0.295,0-0.533-0.238-0.533-0.533s0.238-0.533,0.533-0.533h12.96
			c0.295,0,0.533,0.238,0.533,0.533S407.62,324.781,407.325,324.781L407.325,324.781z"/>
	</g>
</g>
<g>
	<defs>
		<rect id="SVGID_37_" y="0" width="675.041" height="344.036"/>
	</defs>
	<clipPath id="SVGID_38_">
		<use xlink:href="#SVGID_37_"  overflow="visible"/>
	</clipPath>
	<g clip-path="url(#SVGID_38_)">
		<g>
			<rect x="431.899" y="315.608" fill="#FFFFFF" width="17.279" height="17.28"/>
		</g>
		<g opacity="0">
			<path fill="#FFFFFF" d="M449.179,333.421h-17.279c-0.295,0-0.533-0.238-0.533-0.533v-17.28c0-0.295,0.238-0.533,0.533-0.533
				h17.279c0.295,0,0.533,0.238,0.533,0.533v17.28C449.712,333.183,449.474,333.421,449.179,333.421L449.179,333.421z
				 M432.433,332.355h16.213v-16.214h-16.213V332.355L432.433,332.355z"/>
		</g>
	</g>
</g>
<g>
	<defs>
		<rect id="SVGID_39_" y="0" width="675.041" height="344.036"/>
	</defs>
	<clipPath id="SVGID_40_">
		<use xlink:href="#SVGID_39_"  overflow="visible"/>
	</clipPath>
	<g clip-path="url(#SVGID_40_)">
		<path fill="#333333" d="M440.539,331.693c-0.295,0-0.533-0.238-0.533-0.533v-2.592c0-0.295,0.238-0.533,0.533-0.533
			s0.533,0.238,0.533,0.533v2.592C441.072,331.455,440.834,331.693,440.539,331.693L440.539,331.693z"/>
	</g>
	<g clip-path="url(#SVGID_40_)">
		<path fill="#333333" d="M440.539,320.461c-0.295,0-0.533-0.238-0.533-0.533v-2.592c0-0.295,0.238-0.533,0.533-0.533
			s0.533,0.238,0.533,0.533v2.592C441.072,320.223,440.834,320.461,440.539,320.461L440.539,320.461z"/>
	</g>
	<g clip-path="url(#SVGID_40_)">
		<rect x="434.06" y="319.928" fill="#C77CFF" width="12.96" height="8.64"/>
	</g>
	<g clip-path="url(#SVGID_40_)">
		<path fill="#333333" d="M447.02,329.101h-12.96c-0.295,0-0.533-0.238-0.533-0.533v-8.64c0-0.295,0.238-0.533,0.533-0.533h12.96
			c0.295,0,0.533,0.238,0.533,0.533v8.64C447.553,328.863,447.314,329.101,447.02,329.101L447.02,329.101z M434.593,328.035h11.894
			v-7.573h-11.894V328.035L434.593,328.035z"/>
	</g>
	<g clip-path="url(#SVGID_40_)">
		<path fill="#333333" d="M447.02,324.781h-12.96c-0.295,0-0.533-0.238-0.533-0.533s0.238-0.533,0.533-0.533h12.96
			c0.295,0,0.533,0.238,0.533,0.533S447.314,324.781,447.02,324.781L447.02,324.781z"/>
	</g>
</g>
<g>
	<defs>
		<rect id="SVGID_41_" y="0" width="675.041" height="344.036"/>
	</defs>
	<clipPath id="SVGID_42_">
		<use xlink:href="#SVGID_41_"  overflow="visible"/>
	</clipPath>
	<g clip-path="url(#SVGID_42_)">
		<path d="M266.626,327.397v-6.299h2.363c0.481,0,0.867,0.064,1.158,0.191c0.291,0.127,0.518,0.324,0.683,0.588
			c0.165,0.266,0.247,0.543,0.247,0.832c0,0.27-0.073,0.523-0.219,0.761s-0.367,0.43-0.662,0.575
			c0.381,0.112,0.674,0.303,0.878,0.572c0.205,0.27,0.308,0.587,0.308,0.953c0,0.295-0.062,0.57-0.187,0.823
			s-0.279,0.449-0.462,0.587c-0.184,0.137-0.414,0.241-0.69,0.311c-0.276,0.07-0.615,0.105-1.016,0.105H266.626z M267.46,323.745
			h1.362c0.37,0,0.634-0.023,0.795-0.072c0.212-0.063,0.372-0.168,0.479-0.314c0.107-0.146,0.161-0.329,0.161-0.549
			c0-0.21-0.05-0.395-0.15-0.553c-0.1-0.159-0.244-0.268-0.43-0.326s-0.506-0.088-0.958-0.088h-1.259V323.745z M267.46,326.655
			h1.568c0.27,0,0.458-0.011,0.567-0.031c0.192-0.033,0.352-0.092,0.481-0.172s0.235-0.196,0.318-0.35
			c0.083-0.153,0.125-0.33,0.125-0.531c0-0.234-0.06-0.438-0.181-0.611c-0.12-0.174-0.287-0.295-0.5-0.365s-0.521-0.105-0.922-0.105
			h-1.457V326.655z"/>
		<path d="M272.436,321.988v-0.89h0.773v0.89H272.436z M272.436,327.397v-4.562h0.773v4.562H272.436z"/>
		<path d="M274.451,327.397v-6.299h0.833v5.557h3.103v0.742H274.451z"/>
		<path d="M279.096,325.374l0.786-0.068c0.037,0.314,0.124,0.573,0.26,0.775c0.136,0.201,0.348,0.365,0.634,0.49
			c0.287,0.124,0.609,0.187,0.967,0.187c0.318,0,0.599-0.048,0.842-0.142c0.244-0.095,0.425-0.225,0.543-0.389
			c0.119-0.165,0.179-0.345,0.179-0.539c0-0.198-0.058-0.371-0.172-0.519c-0.115-0.147-0.304-0.271-0.567-0.372
			c-0.169-0.065-0.543-0.168-1.122-0.307s-0.984-0.27-1.216-0.393c-0.301-0.158-0.525-0.354-0.672-0.588
			c-0.148-0.232-0.222-0.494-0.222-0.783c0-0.318,0.09-0.615,0.271-0.893c0.18-0.275,0.444-0.485,0.791-0.629
			c0.347-0.143,0.732-0.215,1.156-0.215c0.467,0,0.879,0.075,1.235,0.226c0.357,0.15,0.631,0.372,0.823,0.664
			s0.295,0.623,0.31,0.993l-0.799,0.06c-0.043-0.398-0.188-0.699-0.436-0.902c-0.248-0.204-0.614-0.306-1.098-0.306
			c-0.504,0-0.872,0.093-1.103,0.277c-0.23,0.186-0.346,0.408-0.346,0.668c0,0.227,0.082,0.413,0.245,0.559
			c0.16,0.146,0.579,0.297,1.257,0.449c0.677,0.154,1.142,0.287,1.394,0.402c0.367,0.169,0.637,0.383,0.812,0.643
			c0.175,0.259,0.262,0.558,0.262,0.896c0,0.335-0.096,0.651-0.288,0.947c-0.192,0.296-0.468,0.527-0.827,0.692
			c-0.36,0.164-0.764,0.246-1.214,0.246c-0.57,0-1.048-0.082-1.433-0.248c-0.385-0.167-0.688-0.416-0.907-0.75
			S279.107,325.795,279.096,325.374z"/>
		<path d="M286.852,327.397v-5.555h-2.076v-0.744h4.993v0.744h-2.084v5.555H286.852z"/>
		<path d="M290.599,327.397v-6.299h1.254l1.491,4.461c0.137,0.414,0.238,0.726,0.301,0.932c0.071-0.229,0.183-0.565,0.335-1.01
			l1.508-4.383h1.122v6.299h-0.804v-5.271l-1.831,5.271h-0.752l-1.822-5.361v5.361H290.599z"/>
	</g>
</g>
<g>
	<defs>
		<rect id="SVGID_43_" y="0" width="675.041" height="344.036"/>
	</defs>
	<clipPath id="SVGID_44_">
		<use xlink:href="#SVGID_43_"  overflow="visible"/>
	</clipPath>
	<g clip-path="url(#SVGID_44_)">
		<path d="M319.521,327.397v-6.299h2.363c0.481,0,0.867,0.064,1.158,0.191c0.291,0.127,0.518,0.324,0.683,0.588
			c0.165,0.266,0.247,0.543,0.247,0.832c0,0.27-0.073,0.523-0.219,0.761s-0.367,0.43-0.662,0.575
			c0.381,0.112,0.674,0.303,0.878,0.572c0.205,0.27,0.308,0.587,0.308,0.953c0,0.295-0.062,0.57-0.187,0.823
			s-0.279,0.449-0.462,0.587c-0.184,0.137-0.414,0.241-0.69,0.311c-0.276,0.07-0.615,0.105-1.016,0.105H319.521z M320.354,323.745
			h1.362c0.37,0,0.634-0.023,0.795-0.072c0.212-0.063,0.372-0.168,0.479-0.314c0.107-0.146,0.161-0.329,0.161-0.549
			c0-0.21-0.05-0.395-0.15-0.553c-0.1-0.159-0.244-0.268-0.43-0.326s-0.506-0.088-0.958-0.088h-1.259V323.745z M320.354,326.655
			h1.568c0.27,0,0.458-0.011,0.567-0.031c0.192-0.033,0.352-0.092,0.481-0.172s0.235-0.196,0.318-0.35
			c0.083-0.153,0.125-0.33,0.125-0.531c0-0.234-0.06-0.438-0.181-0.611c-0.12-0.174-0.287-0.295-0.5-0.365s-0.521-0.105-0.922-0.105
			h-1.457V326.655z"/>
		<path d="M325.33,321.988v-0.89h0.773v0.89H325.33z M325.33,327.397v-4.562h0.773v4.562H325.33z"/>
		<path d="M327.345,327.397v-6.299h0.833v5.557h3.103v0.742H327.345z"/>
		<path d="M331.99,325.374l0.786-0.068c0.037,0.314,0.124,0.573,0.26,0.775c0.136,0.201,0.348,0.365,0.634,0.49
			c0.287,0.124,0.609,0.187,0.967,0.187c0.318,0,0.599-0.048,0.842-0.142c0.244-0.095,0.425-0.225,0.543-0.389
			c0.119-0.165,0.179-0.345,0.179-0.539c0-0.198-0.058-0.371-0.172-0.519c-0.115-0.147-0.304-0.271-0.567-0.372
			c-0.169-0.065-0.543-0.168-1.122-0.307s-0.984-0.27-1.216-0.393c-0.301-0.158-0.525-0.354-0.672-0.588
			c-0.148-0.232-0.222-0.494-0.222-0.783c0-0.318,0.09-0.615,0.271-0.893c0.18-0.275,0.444-0.485,0.791-0.629
			c0.347-0.143,0.732-0.215,1.156-0.215c0.467,0,0.879,0.075,1.235,0.226c0.357,0.15,0.631,0.372,0.823,0.664
			s0.295,0.623,0.31,0.993l-0.799,0.06c-0.043-0.398-0.188-0.699-0.436-0.902c-0.248-0.204-0.614-0.306-1.098-0.306
			c-0.504,0-0.872,0.093-1.103,0.277c-0.23,0.186-0.346,0.408-0.346,0.668c0,0.227,0.082,0.413,0.245,0.559
			c0.16,0.146,0.579,0.297,1.257,0.449c0.677,0.154,1.142,0.287,1.394,0.402c0.367,0.169,0.637,0.383,0.812,0.643
			c0.175,0.259,0.262,0.558,0.262,0.896c0,0.335-0.096,0.651-0.288,0.947c-0.192,0.296-0.468,0.527-0.827,0.692
			c-0.36,0.164-0.764,0.246-1.214,0.246c-0.57,0-1.048-0.082-1.433-0.248c-0.385-0.167-0.688-0.416-0.907-0.75
			S332.001,325.795,331.99,325.374z"/>
		<path d="M339.745,327.397v-5.555h-2.075v-0.744h4.993v0.744h-2.084v5.555H339.745z"/>
		<path d="M343.493,327.397v-6.299h1.255l1.49,4.461c0.138,0.414,0.238,0.726,0.301,0.932c0.072-0.229,0.184-0.565,0.336-1.01
			l1.508-4.383h1.121v6.299h-0.803v-5.271l-1.831,5.271h-0.752l-1.821-5.361v5.361H343.493z"/>
		<path d="M352.374,326.379v-1.728h-1.714v-0.722h1.714v-1.715h0.73v1.715h1.715v0.722h-1.715v1.728H352.374z"/>
		<path d="M355.297,327.397l2.419-6.299h0.898l2.578,6.299h-0.95l-0.734-1.907h-2.634l-0.692,1.907H355.297z M357.114,324.811h2.136
			l-0.657-1.744c-0.201-0.531-0.35-0.966-0.447-1.307c-0.08,0.404-0.193,0.805-0.34,1.203L357.114,324.811z"/>
		<path d="M363.447,326.706l0.112,0.684c-0.218,0.045-0.413,0.068-0.585,0.068c-0.28,0-0.498-0.045-0.653-0.133
			c-0.154-0.089-0.264-0.205-0.326-0.351c-0.063-0.145-0.095-0.448-0.095-0.913v-2.625h-0.567v-0.602h0.567v-1.131l0.77-0.463v1.594
			h0.777v0.602h-0.777v2.668c0,0.221,0.014,0.362,0.041,0.426c0.026,0.062,0.071,0.113,0.133,0.15s0.149,0.056,0.265,0.056
			C363.194,326.736,363.307,326.725,363.447,326.706z"/>
		<path d="M365.893,326.706l0.112,0.684c-0.218,0.045-0.413,0.068-0.585,0.068c-0.28,0-0.498-0.045-0.653-0.133
			c-0.154-0.089-0.264-0.205-0.326-0.351c-0.063-0.145-0.095-0.448-0.095-0.913v-2.625h-0.567v-0.602h0.567v-1.131l0.77-0.463v1.594
			h0.777v0.602h-0.777v2.668c0,0.221,0.014,0.362,0.041,0.426c0.026,0.062,0.071,0.113,0.133,0.15s0.149,0.056,0.265,0.056
			C365.64,326.736,365.752,326.725,365.893,326.706z"/>
		<path d="M369.772,325.928l0.799,0.099c-0.126,0.467-0.359,0.829-0.7,1.087s-0.776,0.387-1.307,0.387
			c-0.667,0-1.196-0.205-1.587-0.617c-0.392-0.41-0.587-0.986-0.587-1.729c0-0.768,0.197-1.363,0.593-1.787
			c0.396-0.425,0.908-0.637,1.538-0.637c0.61,0,1.109,0.208,1.496,0.623c0.387,0.416,0.58,1,0.58,1.754
			c0,0.045-0.002,0.113-0.005,0.205h-3.403c0.029,0.502,0.171,0.886,0.426,1.152c0.255,0.266,0.573,0.399,0.954,0.399
			c0.283,0,0.525-0.075,0.726-0.224C369.496,326.493,369.654,326.254,369.772,325.928z M367.232,324.678h2.549
			c-0.035-0.385-0.132-0.672-0.293-0.864c-0.246-0.298-0.565-0.446-0.958-0.446c-0.355,0-0.653,0.118-0.896,0.355
			C367.393,323.961,367.259,324.28,367.232,324.678z"/>
		<path d="M371.543,327.397v-4.562h0.696v0.648c0.335-0.501,0.819-0.752,1.452-0.752c0.275,0,0.527,0.049,0.759,0.148
			c0.23,0.099,0.402,0.229,0.518,0.389c0.114,0.16,0.194,0.352,0.24,0.572c0.028,0.143,0.043,0.393,0.043,0.752v2.805h-0.773v-2.775
			c0-0.314-0.03-0.551-0.09-0.707c-0.061-0.156-0.167-0.28-0.32-0.373c-0.153-0.094-0.333-0.141-0.539-0.141
			c-0.33,0-0.614,0.105-0.854,0.314s-0.358,0.605-0.358,1.189v2.492H371.543z"/>
		<path d="M378.125,326.706l0.112,0.684c-0.218,0.045-0.413,0.068-0.585,0.068c-0.28,0-0.498-0.045-0.653-0.133
			c-0.154-0.089-0.264-0.205-0.326-0.351c-0.063-0.145-0.095-0.448-0.095-0.913v-2.625h-0.567v-0.602h0.567v-1.131l0.77-0.463v1.594
			h0.777v0.602h-0.777v2.668c0,0.221,0.014,0.362,0.041,0.426c0.026,0.062,0.071,0.113,0.133,0.15s0.149,0.056,0.265,0.056
			C377.872,326.736,377.984,326.725,378.125,326.706z"/>
		<path d="M378.886,321.988v-0.89h0.773v0.89H378.886z M378.886,327.397v-4.562h0.773v4.562H378.886z"/>
		<path d="M380.549,325.116c0-0.845,0.235-1.471,0.705-1.877c0.393-0.339,0.87-0.508,1.435-0.508c0.628,0,1.141,0.205,1.539,0.617
			c0.397,0.41,0.597,0.979,0.597,1.703c0,0.588-0.088,1.049-0.264,1.386c-0.177,0.337-0.433,0.599-0.77,0.784
			s-0.704,0.279-1.103,0.279c-0.639,0-1.155-0.205-1.549-0.614S380.549,325.886,380.549,325.116z M381.344,325.116
			c0,0.584,0.128,1.021,0.383,1.312s0.575,0.437,0.962,0.437c0.384,0,0.703-0.146,0.959-0.438c0.255-0.292,0.382-0.737,0.382-1.336
			c0-0.564-0.128-0.992-0.385-1.283c-0.256-0.291-0.575-0.436-0.956-0.436c-0.387,0-0.707,0.145-0.962,0.434
			S381.344,324.532,381.344,325.116z"/>
		<path d="M385.731,327.397v-4.562h0.696v0.648c0.335-0.501,0.819-0.752,1.452-0.752c0.275,0,0.527,0.049,0.759,0.148
			c0.23,0.099,0.402,0.229,0.518,0.389c0.114,0.16,0.194,0.352,0.24,0.572c0.028,0.143,0.043,0.393,0.043,0.752v2.805h-0.773v-2.775
			c0-0.314-0.03-0.551-0.09-0.707c-0.061-0.156-0.167-0.28-0.32-0.373c-0.153-0.094-0.333-0.141-0.539-0.141
			c-0.33,0-0.614,0.105-0.854,0.314s-0.358,0.605-0.358,1.189v2.492H385.731z"/>
	</g>
</g>
<g>
	<defs>
		<rect id="SVGID_45_" y="0" width="675.041" height="344.036"/>
	</defs>
	<clipPath id="SVGID_46_">
		<use xlink:href="#SVGID_45_"  overflow="visible"/>
	</clipPath>
	<g clip-path="url(#SVGID_46_)">
		<path d="M412.323,327.397v-6.299h2.376c0.419,0,0.738,0.02,0.959,0.061c0.309,0.051,0.568,0.149,0.777,0.294
			c0.209,0.146,0.377,0.348,0.505,0.608c0.127,0.26,0.191,0.547,0.191,0.859c0,0.535-0.171,0.988-0.512,1.359
			s-0.957,0.557-1.848,0.557h-1.615v2.561H412.323z M413.157,324.093h1.628c0.539,0,0.921-0.101,1.147-0.301s0.34-0.483,0.34-0.847
			c0-0.264-0.066-0.488-0.2-0.677c-0.133-0.188-0.309-0.312-0.526-0.372c-0.141-0.037-0.399-0.055-0.777-0.055h-1.611V324.093z"/>
		<path d="M422.688,325.189l0.833,0.21c-0.175,0.686-0.489,1.207-0.943,1.566s-1.009,0.539-1.665,0.539
			c-0.679,0-1.23-0.138-1.656-0.414c-0.425-0.276-0.749-0.677-0.971-1.201c-0.223-0.523-0.333-1.087-0.333-1.688
			c0-0.656,0.125-1.228,0.376-1.717c0.25-0.488,0.607-0.859,1.069-1.112c0.463-0.254,0.972-0.381,1.528-0.381
			c0.63,0,1.16,0.16,1.59,0.481s0.729,0.772,0.897,1.354l-0.82,0.193c-0.146-0.458-0.358-0.792-0.636-1.001
			c-0.278-0.209-0.628-0.314-1.049-0.314c-0.484,0-0.889,0.117-1.214,0.349s-0.554,0.544-0.686,0.935s-0.197,0.794-0.197,1.209
			c0,0.536,0.078,1.004,0.234,1.403c0.155,0.399,0.398,0.698,0.728,0.896c0.33,0.198,0.687,0.297,1.07,0.297
			c0.467,0,0.862-0.135,1.186-0.404C422.354,326.119,422.572,325.719,422.688,325.189z"/>
		<path d="M423.856,327.397l2.419-6.299h0.898l2.578,6.299h-0.95l-0.734-1.907h-2.634l-0.692,1.907H423.856z M425.674,324.811h2.136
			l-0.657-1.744c-0.201-0.531-0.35-0.966-0.447-1.307c-0.08,0.404-0.193,0.805-0.34,1.203L425.674,324.811z"/>
	</g>
</g>
<g>
	<defs>
		<rect id="SVGID_47_" y="0" width="675.041" height="344.036"/>
	</defs>
	<clipPath id="SVGID_48_">
		<use xlink:href="#SVGID_47_"  overflow="visible"/>
	</clipPath>
	<g clip-path="url(#SVGID_48_)">
		<path d="M452.018,327.397v-6.299h2.376c0.419,0,0.738,0.02,0.959,0.061c0.309,0.051,0.568,0.149,0.777,0.294
			c0.209,0.146,0.377,0.348,0.505,0.608c0.127,0.26,0.191,0.547,0.191,0.859c0,0.535-0.171,0.988-0.512,1.359
			s-0.957,0.557-1.848,0.557h-1.615v2.561H452.018z M452.852,324.093h1.628c0.539,0,0.921-0.101,1.147-0.301s0.34-0.483,0.34-0.847
			c0-0.264-0.066-0.488-0.2-0.677c-0.133-0.188-0.309-0.312-0.526-0.372c-0.141-0.037-0.399-0.055-0.777-0.055h-1.611V324.093z"/>
		<path d="M462.382,325.189l0.833,0.21c-0.175,0.686-0.489,1.207-0.943,1.566s-1.009,0.539-1.665,0.539
			c-0.679,0-1.23-0.138-1.656-0.414c-0.425-0.276-0.749-0.677-0.971-1.201c-0.223-0.523-0.333-1.087-0.333-1.688
			c0-0.656,0.125-1.228,0.376-1.717c0.25-0.488,0.607-0.859,1.069-1.112c0.463-0.254,0.972-0.381,1.528-0.381
			c0.63,0,1.16,0.16,1.59,0.481s0.729,0.772,0.897,1.354l-0.82,0.193c-0.146-0.458-0.358-0.792-0.636-1.001
			c-0.278-0.209-0.628-0.314-1.049-0.314c-0.484,0-0.889,0.117-1.214,0.349s-0.554,0.544-0.686,0.935s-0.197,0.794-0.197,1.209
			c0,0.536,0.078,1.004,0.234,1.403c0.155,0.399,0.398,0.698,0.728,0.896c0.33,0.198,0.687,0.297,1.07,0.297
			c0.467,0,0.862-0.135,1.186-0.404C462.048,326.119,462.267,325.719,462.382,325.189z"/>
		<path d="M463.551,327.397l2.419-6.299h0.898l2.578,6.299h-0.95l-0.734-1.907h-2.634l-0.692,1.907H463.551z M465.368,324.811h2.136
			l-0.657-1.744c-0.201-0.531-0.35-0.966-0.447-1.307c-0.08,0.404-0.193,0.805-0.34,1.203L465.368,324.811z"/>
		<path d="M471.637,326.379v-1.728h-1.714v-0.722h1.714v-1.715h0.73v1.715h1.715v0.722h-1.715v1.728H471.637z"/>
		<path d="M475.217,327.397v-6.299h0.834v3.124l3.128-3.124h1.13l-2.643,2.553l2.759,3.746h-1.101l-2.242-3.188l-1.031,1.006v2.182
			H475.217z"/>
		<path d="M484.146,325.928l0.799,0.099c-0.126,0.467-0.359,0.829-0.7,1.087s-0.776,0.387-1.307,0.387
			c-0.667,0-1.196-0.205-1.587-0.617c-0.392-0.41-0.587-0.986-0.587-1.729c0-0.768,0.197-1.363,0.593-1.787
			c0.396-0.425,0.908-0.637,1.538-0.637c0.61,0,1.109,0.208,1.496,0.623c0.387,0.416,0.58,1,0.58,1.754
			c0,0.045-0.002,0.113-0.005,0.205h-3.403c0.029,0.502,0.171,0.886,0.426,1.152c0.255,0.266,0.573,0.399,0.954,0.399
			c0.283,0,0.525-0.075,0.726-0.224C483.869,326.493,484.027,326.254,484.146,325.928z M481.605,324.678h2.549
			c-0.035-0.385-0.132-0.672-0.293-0.864c-0.246-0.298-0.565-0.446-0.958-0.446c-0.355,0-0.653,0.118-0.896,0.355
			C481.766,323.961,481.632,324.28,481.605,324.678z"/>
		<path d="M485.907,327.397v-4.562h0.696v0.691c0.178-0.324,0.342-0.537,0.492-0.641c0.15-0.103,0.315-0.154,0.496-0.154
			c0.261,0,0.525,0.083,0.795,0.25l-0.267,0.717c-0.188-0.111-0.378-0.168-0.567-0.168c-0.169,0-0.32,0.051-0.455,0.152
			c-0.135,0.103-0.23,0.244-0.288,0.424c-0.086,0.275-0.129,0.576-0.129,0.902v2.389H485.907z"/>
		<path d="M488.847,327.397v-4.562h0.696v0.648c0.335-0.501,0.819-0.752,1.452-0.752c0.275,0,0.527,0.049,0.759,0.148
			c0.23,0.099,0.402,0.229,0.518,0.389c0.114,0.16,0.194,0.352,0.24,0.572c0.028,0.143,0.043,0.393,0.043,0.752v2.805h-0.773v-2.775
			c0-0.314-0.03-0.551-0.09-0.707c-0.061-0.156-0.167-0.28-0.32-0.373c-0.153-0.094-0.333-0.141-0.539-0.141
			c-0.33,0-0.614,0.105-0.854,0.314s-0.358,0.605-0.358,1.189v2.492H488.847z"/>
		<path d="M496.864,325.928l0.799,0.099c-0.126,0.467-0.359,0.829-0.7,1.087s-0.776,0.387-1.307,0.387
			c-0.667,0-1.196-0.205-1.587-0.617c-0.392-0.41-0.587-0.986-0.587-1.729c0-0.768,0.197-1.363,0.593-1.787
			c0.396-0.425,0.908-0.637,1.538-0.637c0.61,0,1.109,0.208,1.496,0.623c0.387,0.416,0.58,1,0.58,1.754
			c0,0.045-0.002,0.113-0.005,0.205h-3.403c0.029,0.502,0.171,0.886,0.426,1.152c0.255,0.266,0.573,0.399,0.954,0.399
			c0.283,0,0.525-0.075,0.726-0.224C496.588,326.493,496.746,326.254,496.864,325.928z M494.324,324.678h2.549
			c-0.035-0.385-0.132-0.672-0.293-0.864c-0.246-0.298-0.565-0.446-0.958-0.446c-0.355,0-0.653,0.118-0.896,0.355
			C494.484,323.961,494.351,324.28,494.324,324.678z"/>
		<path d="M498.617,327.397v-6.299h0.773v6.299H498.617z"/>
	</g>
</g>
</svg>
