<?xml version="1.0" encoding="utf-8"?>
<!-- Generator: Adobe Illustrator 14.0.0, SVG Export Plug-In . SVG Version: 6.00 Build 43363)  -->
<!DOCTYPE svg PUBLIC "-//W3C//DTD SVG 1.1//EN" "http://www.w3.org/Graphics/SVG/1.1/DTD/svg11.dtd">
<svg version="1.1" xmlns="http://www.w3.org/2000/svg" xmlns:xlink="http://www.w3.org/1999/xlink" x="0px" y="0px" width="832px"
	 height="254.186px" viewBox="0 0 832 254.186" enable-background="new 0 0 832 254.186" xml:space="preserve">
<g id="Layer_2" display="none">
</g>
<g id="Layer_1">
	<g>
		<line fill="none" stroke="#000000" stroke-dasharray="4" x1="603" y1="25.246" x2="640.433" y2="79.609"/>
		<line fill="none" stroke="#000000" stroke-dasharray="4" x1="603" y1="145.195" x2="639.685" y2="91.249"/>
	</g>
	<rect x="116.685" y="29.65" fill="none" width="58.194" height="109.684"/>
	<text transform="matrix(1 0 0 1 149.8521 40.3896)"><tspan x="0" y="0" font-family="'ArialMT'" font-size="15">and</tspan><tspan x="5.852" y="31" font-family="'ArialMT'" font-size="15">his</tspan><tspan x="-31.67" y="62" font-family="'ArialMT'" font-size="15">longtime</tspan><tspan x="-1.648" y="93" font-family="'ArialMT'" font-size="15">wife</tspan></text>
	<polyline fill="none" stroke="#000000" points="412.891,171.393 412.891,186.443 232.646,186.443 232.646,171.393 	"/>
	<g>
		<g>
			<rect x="232.646" y="24.898" fill="#FFFFFF" stroke="#000000" width="29.999" height="29.998"/>
			<rect x="262.695" y="24.898" fill="#FFFFFF" stroke="#000000" width="29.999" height="29.998"/>
			<rect x="292.745" y="24.898" fill="#FFFFFF" stroke="#000000" width="29.999" height="29.998"/>
			<rect x="322.794" y="24.898" fill="#FFFFFF" stroke="#000000" width="29.998" height="29.998"/>
			<rect x="352.843" y="24.898" fill="#FFFFFF" stroke="#000000" width="29.999" height="29.998"/>
			<rect x="382.892" y="24.898" fill="#FFFFFF" stroke="#000000" width="29.999" height="29.998"/>
		</g>
		<g>
			<rect x="232.646" y="54.896" fill="#FFFFFF" stroke="#000000" width="29.999" height="29.999"/>
			<rect x="262.695" y="54.896" fill="#FFFFFF" stroke="#000000" width="29.999" height="29.999"/>
			<rect x="292.744" y="54.896" fill="#FFFFFF" stroke="#000000" width="29.999" height="29.999"/>
			<rect x="322.794" y="54.896" fill="#FFFFFF" stroke="#000000" width="29.998" height="29.999"/>
			<rect x="352.843" y="54.896" fill="#FFFFFF" stroke="#000000" width="29.999" height="29.999"/>
			<rect x="382.893" y="54.896" fill="#FFFFFF" stroke="#000000" width="29.998" height="29.999"/>
		</g>
		<g>
			<rect x="232.646" y="114.85" fill="#FFFFFF" stroke="#000000" width="29.999" height="29.998"/>
			<rect x="262.695" y="114.85" fill="#FFFFFF" stroke="#000000" width="29.999" height="29.998"/>
			<rect x="292.744" y="114.85" fill="#FFFFFF" stroke="#000000" width="29.999" height="29.998"/>
			<rect x="322.794" y="114.85" fill="#FFFFFF" stroke="#000000" width="29.998" height="29.998"/>
			<rect x="352.843" y="114.85" fill="#FFFFFF" stroke="#000000" width="29.999" height="29.998"/>
			<rect x="382.893" y="114.85" fill="#FFFFFF" stroke="#000000" width="29.998" height="29.998"/>
		</g>
		<g>
			<rect x="232.646" y="84.801" fill="#FFFFFF" stroke="#000000" width="29.999" height="29.998"/>
			<rect x="262.695" y="84.801" fill="#FFFFFF" stroke="#000000" width="29.999" height="29.998"/>
			<rect x="292.744" y="84.801" fill="#FFFFFF" stroke="#000000" width="29.999" height="29.998"/>
			<rect x="322.794" y="84.801" fill="#FFFFFF" stroke="#000000" width="29.998" height="29.998"/>
			<rect x="352.843" y="84.801" fill="#FFFFFF" stroke="#000000" width="29.999" height="29.998"/>
			<rect x="382.893" y="84.801" fill="#FFFFFF" stroke="#000000" width="29.998" height="29.998"/>
		</g>
		<rect x="232.646" y="24.898" fill="none" stroke="#000000" stroke-width="2" width="180.244" height="119.949"/>
	</g>
	<rect x="233.542" y="196.012" fill="none" width="182.821" height="25.992"/>
	<text transform="matrix(1 0 0 1 285.5088 206.3594)"><tspan x="0" y="0" font-family="'Times-Roman'" font-size="13">|</tspan><tspan x="2.603" y="-1" font-family="'Times-Italic'" font-size="13">c</tspan><tspan x="8.372" y="0" font-family="'Times-Roman'" font-size="13">|</tspan><tspan x="10.975" y="-1" font-family="'Times-Roman'" font-size="13"> </tspan><tspan x="14.225" y="-1" font-family="'ArialMT'" font-size="13">x</tspan><tspan x="20.725" y="-1" font-family="'Times-Roman'" font-size="13"> </tspan><tspan x="23.975" y="-1" font-family="'Times-Italic'" font-size="13">d</tspan><tspan x="30.475" y="-1" font-family="'Helvetica'" font-size="13"> stacked </tspan><tspan x="-11.864" y="12" font-family="'Helvetica'" font-size="13">word embeddings</tspan></text>
	<rect x="406.109" y="196.012" fill="none" width="214.182" height="42.611"/>
	<text transform="matrix(1 0 0 1 416.1426 206.9238)"><tspan x="0" y="0" font-family="'Helvetica'" font-size="13"> Keep top </tspan><tspan x="59.269" y="0" font-family="'Times-Italic'" font-size="16">n </tspan><tspan x="71.269" y="0" font-family="'Helvetica'" font-size="13">principal components</tspan><tspan x="26.75" y="26" font-family="'Helvetica'" font-size="13">Compute mean vector </tspan><tspan x="158.255" y="26" font-family="'Times-Italic'" font-size="16">μ</tspan></text>
	<polyline fill="none" stroke="#000000" points="822.694,172.903 822.694,187.954 638.983,187.954 638.983,172.903 	"/>
	<rect x="639.446" y="198.087" fill="none" width="182.785" height="40.536"/>
	<text transform="matrix(1 0 0 1 662.9121 207.4336)"><tspan x="0" y="0" font-family="'Helvetica'" font-size="13">Concatenate all vectors</tspan><tspan x="67.927" y="13" font-family="'Helvetica'" font-size="13"> </tspan><tspan x="-19.496" y="26" font-family="'Helvetica'" font-size="13">Use as features for a classifier</tspan></text>
	<polyline fill="none" stroke="#000000" points="102.125,172.045 102.125,187.096 7.645,187.096 7.645,172.045 	"/>
	<rect x="3.331" y="196.012" fill="none" width="103.109" height="28.769"/>
	<text transform="matrix(1 0 0 1 29.2373 205.3711)"><tspan x="0" y="0" font-family="'Helvetica-Oblique'" font-size="13">context </tspan><tspan x="45.525" y="0" font-family="'Times-Italic'" font-size="13">c</tspan><tspan x="-18.437" y="13" font-family="'Helvetica'" font-size="13">word sequence</tspan></text>
	<rect x="35.173" y="72.688" fill="none" width="35.328" height="23.847"/>
	<text transform="matrix(1 0 0 1 35.8193 89.0557)" font-family="'Times-Italic'" font-size="24">c</text>
	<text transform="matrix(0.583 0 0 0.583 46.4717 92.3828)" font-family="'Times-Italic'" font-size="19">inner</text>
	<g>
		<g>
			<line fill="none" stroke="#F7941E" stroke-dasharray="4" x1="416.363" y1="24.161" x2="457" y2="24.161"/>
			<polygon fill="#F7941E" points="456.271,26.662 460.588,24.169 456.271,21.676 			"/>
		</g>
	</g>
	<text transform="matrix(1 0 0 1 578.084 69.6377)" font-family="'Times-Italic'" font-size="16">n</text>
	<g>
		<g>
			<g>
				<rect x="688.764" y="80.226" fill="#F7941E" stroke="#000000" width="9.396" height="9.396"/>
				<rect x="679.351" y="80.226" fill="#F7941E" stroke="#000000" width="9.396" height="9.396"/>
				<rect x="669.94" y="80.226" fill="#F7941E" stroke="#000000" width="9.396" height="9.396"/>
				<rect x="660.526" y="80.226" fill="#F7941E" stroke="#000000" width="9.396" height="9.396"/>
				<rect x="651.116" y="80.226" fill="#F7941E" stroke="#000000" width="9.396" height="9.396"/>
				<rect x="641.704" y="80.226" fill="#F7941E" stroke="#000000" width="9.396" height="9.396"/>
			</g>
			<rect x="641.702" y="80.226" fill="none" stroke="#000000" stroke-width="1.5" width="56.454" height="9.396"/>
		</g>
		<g>
			<g>
				<rect x="757.528" y="80.226" fill="#F7941E" stroke="#000000" width="9.396" height="9.396"/>
				<rect x="748.116" y="80.226" fill="#F7941E" stroke="#000000" width="9.396" height="9.396"/>
				<rect x="738.705" y="80.226" fill="#F7941E" stroke="#000000" width="9.396" height="9.396"/>
				<rect x="729.292" y="80.226" fill="#F7941E" stroke="#000000" width="9.396" height="9.396"/>
				<rect x="719.88" y="80.226" fill="#F7941E" stroke="#000000" width="9.397" height="9.396"/>
				<rect x="710.467" y="80.226" fill="#F7941E" stroke="#000000" width="9.397" height="9.396"/>
			</g>
			<rect x="710.467" y="80.226" fill="none" stroke="#000000" stroke-width="1.5" width="56.456" height="9.396"/>
		</g>
		<g>
			<g>
				<rect x="813.985" y="80.226" fill="#00A79D" stroke="#000000" width="9.396" height="9.396"/>
				<rect x="804.573" y="80.226" fill="#00A79D" stroke="#000000" width="9.396" height="9.396"/>
				<rect x="795.161" y="80.226" fill="#00A79D" stroke="#000000" width="9.396" height="9.396"/>
				<rect x="785.747" y="80.226" fill="#00A79D" stroke="#000000" width="9.396" height="9.396"/>
				<rect x="776.335" y="80.226" fill="#00A79D" stroke="#000000" width="9.398" height="9.396"/>
				<rect x="766.925" y="80.226" fill="#00A79D" stroke="#000000" width="9.396" height="9.396"/>
			</g>
			<rect x="766.923" y="80.226" fill="none" stroke="#000000" stroke-width="1.5" width="56.455" height="9.396"/>
		</g>
		<g>
			<path d="M701.351,85.261c-0.001-0.443,0.298-0.756,0.719-0.757c0.418-0.001,0.706,0.312,0.707,0.755
				c0.001,0.432-0.272,0.756-0.718,0.756C701.638,86.015,701.351,85.692,701.351,85.261z"/>
			<path d="M703.833,85.257c-0.001-0.443,0.298-0.756,0.719-0.756c0.419-0.001,0.708,0.31,0.708,0.753
				c0,0.433-0.272,0.756-0.719,0.757C704.122,86.012,703.834,85.688,703.833,85.257z"/>
			<path d="M706.317,85.253c-0.001-0.443,0.297-0.756,0.719-0.757c0.419,0,0.706,0.311,0.707,0.755
				c0.002,0.432-0.273,0.755-0.718,0.756C706.605,86.008,706.317,85.685,706.317,85.253z"/>
		</g>
	</g>
	<text transform="matrix(1 0 0 1 318.7939 17.5596)" font-family="'Times-Italic'" font-size="16">d</text>
	<g>
		<path fill-rule="evenodd" clip-rule="evenodd" d="M741.998,47.414c0.455-0.113,0.227,0.43,0,0.391
			c-0.478,0.58-1.074,1.348-1.428,2.207c-0.094,0.229-0.243,0.469-0.26,0.779c-0.012,0.184-0.06,0.344-0.13,0.52
			c-0.072,0.178-0.075,0.234-0.13,0.648c-0.027,0.199-0.113,0.227-0.13,0.391c-0.237,2.191,0.152,4.604,1.168,6.23
			c0.119,0.191,0.273,0.242,0.39,0.391c0.036,0.045-0.044,0.225,0,0.26c0.184,0.15,0.701,0.439,0.778,0.908
			c-0.628,0.121-0.968-0.549-1.298-0.908c-0.091-0.1-0.315-0.154-0.389-0.26c-0.086-0.123-0.051-0.275-0.13-0.391
			c-0.058-0.082-0.212-0.182-0.26-0.258c-0.066-0.105-0.251-0.336-0.26-0.521c-0.003-0.061-0.097-0.188-0.131-0.258
			c-0.077-0.166-0.2-0.287-0.258-0.52c-0.258-1.029-0.644-2.426-0.521-4.025c0.189-2.449,1.429-4.412,2.728-5.584
			C741.824,47.414,741.912,47.414,741.998,47.414z"/>
		<path fill-rule="evenodd" clip-rule="evenodd" d="M769.394,47.414c0.13,0,0.26,0,0.39,0c0.258,0.275,0.641,0.479,0.908,0.779
			s0.436,0.684,0.649,1.039c0.051,0.082,0.219,0.186,0.26,0.26c0.027,0.049-0.039,0.229,0,0.26c0.017,0.014,0.122-0.016,0.13,0
			c0.025,0.047-0.038,0.229,0,0.26c0.017,0.012,0.123-0.016,0.131,0c0.022,0.047-0.038,0.229,0,0.26
			c0.118,0.096,0.259,0.584,0.39,0.908c0.018,0.047-0.036,0.23,0,0.262c0.165,0.135,0.07,0.264,0.13,0.518
			c0.438,1.863,0.148,4.391-0.909,6.232c-0.475,0.822-1.119,1.795-2.078,1.947c0.022-0.387,0.433-0.555,0.649-0.908
			c0.104-0.166,0.244-0.268,0.39-0.52c0.267-0.459,0.553-0.957,0.778-1.688c0.037-0.119,0.082-0.223,0.13-0.391
			c0.014-0.043-0.031-0.232,0-0.26c0.176-0.141,0.349-1.172,0.39-1.686c0.239-2.939-0.708-5.496-2.207-6.883
			C769.371,47.783,769.414,47.568,769.394,47.414z"/>
		<path fill-rule="evenodd" clip-rule="evenodd" d="M787.571,48.064c0.149,0.312-0.052,0.697-0.13,1.037
			c-0.082,0.357-0.162,0.779-0.26,1.17c-0.076,0.303-0.242,0.588-0.258,0.908c-0.016,0.258-0.048,0.406-0.131,0.779
			c-0.007,0.025-0.126,0.02-0.13,0.129c-0.018,0.326-0.051,0.357-0.129,0.648c-0.015,0.047,0.03,0.236,0,0.262
			c-0.151,0.123-0.002,0.389-0.131,0.518c-0.011,0.012-0.127-0.01-0.13,0c-0.051,0.197-0.066,0.406-0.13,0.65
			c-0.102,0.395-0.121,0.646-0.26,1.17c-0.096,0.357-0.409,1.127,0.26,1.428c0.086-0.113,0.38-0.076,0.391-0.26
			c0.007-0.168,0.188-0.166,0.259-0.26c0.033-0.047-0.044-0.225,0-0.258c0.016-0.014,0.12,0.016,0.131,0
			c0.163-0.318-0.091-1.094,0.518-1.041c0.177,0.574-0.375,2.078-1.168,2.207c-0.555,0.09-1.053-0.189-1.429-0.779
			c-0.408,0.18-0.675,0.484-1.039,0.65c-0.21,0.094-0.466,0.189-0.908,0.129c-0.347-0.047-0.621-0.211-0.909-0.389
			c-0.287-0.176-0.317-0.322-0.519-0.777c-0.027-0.061-0.123,0.008-0.131-0.131c-0.016-0.281-0.191-0.609-0.13-1.168
			c0.017-0.15,0.065-0.398,0.13-0.65c0.043-0.172,0.152-0.551,0.26-0.779c0.03-0.062,0.122,0.014,0.13-0.129
			c0.009-0.166,0.217-0.164,0.26-0.26c0.027-0.062-0.042-0.209,0-0.26c0.056-0.072,0.355-0.381,0.52-0.521
			c0.104-0.088,0.271-0.039,0.39-0.129c0.139-0.104,0.228-0.264,0.519-0.389c0.22-0.094,0.749-0.307,1.169-0.26
			c0.573,0.062,0.69,0.283,1.168,0.648c0.167-0.766,0.302-1.465,0.521-2.336c0.05-0.205,0.109-0.492,0.261-0.65
			c-0.015-0.549-1.192,0.066-1.04-0.65C786.069,48.121,786.907,48.177,787.571,48.064z M784.455,51.699
			c-0.152-0.002-0.192,0.049-0.26,0.131c-0.03,0.037-0.213-0.023-0.261,0c-0.015,0.008,0.014,0.115,0,0.129
			c-0.031,0.039-0.211-0.025-0.259,0c-0.03,0.02-0.222,0.223-0.26,0.26c-0.212,0.211-0.272,0.465-0.389,0.65
			c-0.048,0.078-0.217,0.168-0.261,0.26c-0.031,0.068,0.02,0.184,0,0.258c-0.021,0.088-0.125,0.115-0.129,0.129
			c-0.16,0.541-0.324,1.432-0.389,1.689c-0.046,0.18-0.012,0.463,0,0.65c0.005,0.125,0.115,0.088,0.129,0.131
			c0.054,0.172,0.026,0.385,0.13,0.518c0.087,0.113,0.344,0.1,0.39,0.26c0.339,0.074,0.594-0.1,0.908-0.26
			c0.255-0.131,0.636-0.357,0.779-0.518c0.041-0.049-0.025-0.205,0-0.262c0.021-0.045,0.229-0.074,0.26-0.131
			c0.083-0.152,0.062-0.508,0.129-0.777c0.126-0.502,0.288-0.932,0.39-1.43c0.061-0.285,0.2-0.633,0.131-0.908
			C785.142,52.017,784.854,51.705,784.455,51.699z"/>
		<path fill-rule="evenodd" clip-rule="evenodd" d="M765.629,48.455c0.456-0.029,0.25,0.605,0.259,0.777
			c0.124,2.061-0.091,4.791,0,7.012c0.19,0.248,0.382,0.205,0.779,0.26c0.305,0.041,0.803-0.141,0.909,0.129
			c0.146,0.59-0.516,0.359-0.909,0.391c-0.78,0.061-1.685,0.047-2.596,0c-0.335-0.018-0.932,0.197-0.909-0.26
			c-0.05-0.611,1.243,0.006,1.557-0.391c0.234-1.033,0.131-2.135,0.131-3.375c0-1.146,0-2.391,0-3.506
			c-0.339,0.053-0.712,0.066-0.908,0.26c-0.271-0.076-0.854,0.16-0.909-0.129c-0.079-0.691,0.769-0.32,1.039-0.391
			c-0.023,0.006,0.514-0.123,0.519-0.131c0.012-0.012-0.014-0.121,0-0.129c0.158-0.064,0.38-0.027,0.519-0.129
			c0.107-0.08,0.169-0.396,0.39-0.389C765.543,48.455,765.585,48.455,765.629,48.455z"/>
		<path fill-rule="evenodd" clip-rule="evenodd" d="M756.279,49.232c0.131,0,0.261,0,0.39,0c0.294,1.135,0.052,2.805,0.131,4.154
			c1.139,0.375,3.146-0.113,4.284,0.26c-0.097,0.656-1.188,0.383-1.946,0.391c-0.761,0.008-1.572-0.006-2.208,0
			c-0.284,0.83-0.058,2.213-0.13,3.375c-0.021,0.33,0.134,0.822-0.26,0.91c-0.654-0.098-0.381-1.188-0.39-1.949
			c-0.008-0.756,0.007-1.57,0-2.207c-0.219-0.242-0.698-0.123-1.039-0.129c-0.717-0.01-1.494,0.055-2.336,0
			c-0.266-0.018-0.829,0.184-0.779-0.26c-0.013-0.453,0.62-0.248,0.909-0.262c0.903-0.035,2.229,0.029,3.245,0
			C756.22,52.115,756.001,50.425,756.279,49.232z"/>
		<path fill-rule="evenodd" clip-rule="evenodd" d="M688.375,50.142c0.221-0.047,0.244,0.1,0.26,0.26
			c-0.287,0.285-0.616,0.646-0.909,1.039c-0.131,0.174-0.233,0.275-0.389,0.518c-0.094,0.148-0.146,0.271-0.261,0.391
			c-0.109,0.113-0.117,0.371-0.259,0.648c-0.04,0.076-0.231,0.197-0.26,0.26c-0.244,0.549-0.372,1.287-0.521,1.947
			c-0.145,0.654-0.34,1.312-0.39,1.947c-0.18,2.357,0.069,4.736,0.649,6.492c0.037,0.111,0.057,0.354,0.131,0.521
			c0.033,0.076,0.232,0.195,0.259,0.258c0.093,0.219,0.045,0.35,0.131,0.52c0.225,0.443,0.655,1.045,1.037,1.557
			c0.056,0.074,0.122-0.02,0.131,0.131c0.015,0.277,0.664,0.459,0.649,0.908c-0.31,0.234-0.581-0.23-0.78-0.389
			c-0.252-0.203-0.57-0.406-0.778-0.65c-0.037-0.043,0.043-0.225,0-0.258c-0.125-0.102-0.16-0.131-0.259-0.26
			c-0.033-0.043-0.243-0.092-0.26-0.131c-0.029-0.062,0.04-0.203,0-0.258c-0.11-0.154-0.3-0.258-0.39-0.391
			c-0.058-0.084-0.069-0.166-0.131-0.26c-0.027-0.045-0.086-0.355-0.13-0.391c-0.014-0.012-0.121,0.018-0.129,0
			c-0.022-0.047,0.037-0.227,0-0.258c-0.232-0.191-0.507-1.082-0.649-1.559c-0.424-1.412-0.674-3.172-0.519-5.193
			c0.048-0.66,0.203-1.504,0.39-2.207c0.048-0.188,0.158-0.529,0.259-0.779c0.032-0.082,0.119-0.102,0.131-0.131
			c0.118-0.316,0.132-0.633,0.258-0.91c0.029-0.061,0.124,0.014,0.131-0.129c0.006-0.113,0.148-0.344,0.259-0.518
			c0.095-0.148,0.147-0.271,0.26-0.391c0.105-0.109,0.156-0.281,0.261-0.391c0.109-0.113,0.171-0.25,0.26-0.389
			c0.056-0.086,0.233-0.324,0.39-0.52c0.031-0.039,0.243-0.092,0.258-0.129c0.068-0.15,0.068-0.354,0.261-0.521
			c0.095-0.078,0.291-0.066,0.39-0.127c0.025-0.018,0.078-0.096,0.129-0.131C688.311,50.228,688.401,50.271,688.375,50.142z"/>
		<path fill-rule="evenodd" clip-rule="evenodd" d="M698.243,50.142c0.13,0,0.259,0,0.39,0c0.176,0.316,0.527,0.385,0.778,0.648
			c0.203,0.215,0.321,0.527,0.519,0.779c0.033,0.039,0.244,0.092,0.261,0.129c0.028,0.062-0.04,0.209,0,0.26
			c0.083,0.105,0.317,0.152,0.39,0.26c0.105,0.158,0.036,0.348,0.129,0.518c0.03,0.059,0.239,0.086,0.261,0.133
			c0.111,0.248,0.148,0.393,0.259,0.646c0.105,0.244,0.143,0.486,0.26,0.779c0.062,0.16,0.156,0.311,0.26,0.65
			c0.152,0.5,0.255,0.984,0.39,1.559c0.236,1.002,0.195,3.42,0,4.545c-0.017,0.094,0.062,0.457,0,0.518
			c-0.009,0.012-0.128-0.012-0.13,0c-0.021,0.098,0.064,0.455,0,0.52c-0.01,0.01-0.128-0.01-0.129,0c-0.022,0.1,0.064,0.455,0,0.521
			c-0.012,0.01-0.127-0.014-0.131,0c-0.066,0.223-0.066,0.426-0.13,0.648c-0.094,0.324-0.306,0.832-0.521,1.168
			c-0.027,0.045-0.085,0.355-0.128,0.391c-0.017,0.012-0.124-0.018-0.13,0c-0.022,0.047,0.037,0.227,0,0.26
			c-0.019,0.014-0.12-0.02-0.131,0c-0.026,0.047,0.041,0.225,0,0.258c-0.042,0.035-0.231,0.088-0.259,0.131
			c-0.03,0.047,0.041,0.225,0,0.26c-0.166,0.135-0.312,0.273-0.521,0.52c-0.399,0.477-0.819,0.936-1.297,1.297
			c-0.171,0.158-0.204,0.051-0.39,0c0.069-0.379,0.415-0.623,0.647-0.908c0.171-0.209,0.342-0.369,0.521-0.648
			c0.208-0.326,0.683-1.01,0.908-1.559c0.44-1.066,0.766-2.555,0.909-4.154c0.022-0.238-0.039-0.508,0-0.779
			c0.022-0.145,0.129-0.27,0.13-0.52c0.001-0.432-0.09-0.861-0.13-1.299c-0.038-0.436-0.071-0.869-0.131-1.299
			c-0.11-0.82-0.277-1.604-0.518-2.336c-0.453-1.379-1.263-2.533-2.078-3.508C698.408,50.419,698.185,50.406,698.243,50.142z"/>
		<path fill-rule="evenodd" clip-rule="evenodd" d="M777.705,51.05c0.099,0.879-0.179,1.381-0.131,2.207
			c0.066,0.34,0.168-0.119,0.389-0.129c0.025-0.004,0.107,0.014,0.13,0c0.125-0.082,0.239-0.299,0.39-0.393
			c0.365-0.225,0.723-0.516,1.169-0.518c0.112,0.105,0.077,0.355,0.261,0.391c-0.101,0.42-0.545,0.473-0.91,0.648
			c-0.311,0.15-0.67,0.34-1.039,0.389c-0.082,0.271,0.147,0.18,0.261,0.262c0.067,0.047,0.195,0.229,0.259,0.258
			c0.07,0.033,0.186-0.018,0.26,0c0.163,0.041,0.277,0.186,0.39,0.26c0.175,0.117,0.524,0.092,0.649,0.262
			c0.165,0.225-0.01,0.23,0,0.648c-0.581,0.115-0.863-0.209-1.169-0.391c-0.07-0.041,0.019-0.123-0.13-0.129
			c-0.241-0.014-0.422-0.389-0.777-0.521c-0.357,0.291-0.027,0.797,0,1.17c0.023,0.344-0.02,0.695,0,1.039c-0.218,0-0.435,0-0.65,0
			c-0.343-0.613,0.168-1.352,0-2.209c-0.382,0.135-0.65,0.443-1.039,0.65c-0.314,0.168-0.63,0.678-1.168,0.26
			c-0.07-0.402,0.019-0.469,0.26-0.648c0.045-0.035,0.224,0.041,0.259,0c0.014-0.016-0.016-0.123,0-0.131
			c0.048-0.021,0.229,0.039,0.261,0c0.013-0.018-0.019-0.119,0-0.131c0.047-0.025,0.227,0.041,0.259,0
			c0.013-0.014-0.017-0.121,0-0.129c0.048-0.02,0.229,0.039,0.259,0c0.017-0.018,0.336-0.367,0.65-0.258
			c-0.187-0.42-0.776-0.416-1.168-0.65c-0.378-0.227-0.917-0.227-0.779-0.908c0.439-0.332,0.841,0.076,1.168,0.26
			c0.069,0.039-0.017,0.121,0.129,0.127c0.168,0.01,0.164,0.195,0.261,0.262c0.047,0.033,0.225-0.043,0.26,0
			c0.08,0.098,0.097,0.246,0.259,0.26c0.367-0.416-0.027-1.178,0-1.688c0-0.129,0-0.26,0-0.391
			C777.079,51.031,777.384,51.033,777.705,51.05z"/>
		<path fill-rule="evenodd" clip-rule="evenodd" d="M733.169,57.542c0.08,0.463,0.4,0.785,0.649,1.168
			c0.074,0.113,0.195,0.168,0.26,0.26c0.032,0.047-0.043,0.225,0,0.26c0.02,0.016,0.115-0.02,0.13,0
			c0.091,0.137,0.159,0.375,0.26,0.521c0.063,0.088,0.199,0.176,0.26,0.258c0.059,0.078,0.067,0.176,0.13,0.26
			c0.095,0.125,0.302,0.273,0.389,0.389c0.073,0.102,0.046,0.279,0.13,0.391c0.047,0.062,0.219,0.068,0.26,0.129
			c0.232,0.334,0.29,0.596,0.649,0.908c0.082,0.072,0.269,0.256,0.39,0.26c-0.007,0,0.739,0.375,0.778,0.52
			c0.022,0.082-0.015,0.178,0,0.26c-0.922,0.289-2.37,0.055-3.505,0.131c-0.301-0.496-0.587-1.059-0.91-1.559
			c-0.046-0.072-0.12,0.021-0.128-0.131c-0.004-0.039-0.101-0.213-0.13-0.258c-0.058-0.084-0.213-0.184-0.26-0.26
			c-0.157-0.252-0.232-0.539-0.39-0.779c-0.048-0.074-0.122,0.02-0.131-0.131c-0.001-0.039-0.099-0.215-0.13-0.26
			c-0.058-0.086-0.206-0.18-0.26-0.258c-0.056-0.088-0.069-0.168-0.13-0.262c-0.038-0.061-0.11-0.096-0.129-0.129
			c-0.058-0.098-0.054-0.277-0.13-0.389c-0.032-0.047-0.241-0.09-0.261-0.131c-0.087-0.193-0.067-0.314-0.259-0.52
			c-0.115-0.121-0.081-0.326-0.259-0.391c-0.154-0.053-0.361,0.043-0.52,0c-0.245,0.26-0.127,0.797-0.131,1.17
			c-0.01,0.98-0.082,2.445,0.131,3.375c0.122,0.527,1.332-0.033,1.428,0.52c-0.032,0.627-0.848,0.367-1.298,0.391
			c-0.481,0.023-1.069,0-1.56,0c-1.128,0-2.312,0.1-3.115-0.131c-0.037-0.479,0.31-0.406,0.648-0.518
			c0.191-0.064,0.463,0.074,0.65,0c0.09-0.037,0.09-0.293,0.259-0.262c0-2.504,0-5.201,0-7.789c0-0.861,0.104-1.672-0.13-2.469
			c-0.256-0.436-1.443,0.059-1.428-0.646c0.105-0.027,0.129-0.131,0.26-0.131c2.69,0.246,7.037-0.576,8.959,0.648
			c0.062,0.039,0.097,0.111,0.13,0.129c0.235,0.141,0.687,0.346,0.908,0.648c0.035,0.049-0.042,0.227,0,0.262
			c0.188,0.152,0.258,0.268,0.39,0.648c0.131,0.383,0.123,1.32,0,1.818c-0.044,0.178-0.044,0.26-0.129,0.391
			c-0.04,0.059-0.109,0.096-0.131,0.131c-0.144,0.23-0.344,0.686-0.647,0.906c-0.152,0.109-0.348,0.047-0.521,0.131
			c-0.064,0.031,0.013,0.123-0.13,0.129C734.201,57.166,733.747,57.498,733.169,57.542z M727.586,52.218c0,1.678,0,3.484,0,5.193
			c0,1.848,0.104,3.551-0.13,5.195c0.606,0,1.212,0,1.818,0c-0.175-2.785-0.196-6.578-0.13-9.35c0.007-0.291,0.134-0.412,0-0.648
			c0.103-0.244,0.217-0.475,0.259-0.779c-0.649,0-1.298,0-1.947,0C727.451,52.007,727.517,52.115,727.586,52.218z M733.038,53.386
			c-0.059-0.225-0.14-0.461-0.258-0.65c-0.103-0.156-0.512-0.643-0.521-0.648c-0.095-0.053-0.375-0.082-0.649-0.129
			c-0.635-0.107-0.913-0.07-1.428,0c-0.542,0.498-0.379,1.41-0.39,2.336c-0.009,0.953,0.008,2.014,0,2.857
			c1.052-0.074,2.18-0.072,2.855-0.52C733.2,55.912,733.258,54.207,733.038,53.386z M733.818,54.294
			c0.034,0.684-0.123,1.479-0.26,1.82c-0.013,0.031,0.002,0.094,0,0.129c-0.009,0.168-0.457,0.549-0.13,0.648
			c0.174-0.271,0.555-0.174,0.779-0.26c0.055-0.02,0.008-0.098,0.13-0.129c0.273-0.068,0.244-0.082,0.39-0.26
			c0.035-0.045,0.218,0.039,0.259,0c0.056-0.057,0.095-0.33,0.132-0.389c0.021-0.035,0.088-0.07,0.128-0.131
			c0.086-0.129,0.086-0.213,0.13-0.389c0.096-0.381,0.194-0.938,0.131-1.559c-0.36-0.283-0.636-1.146-1.039-1.168
			c-0.373-0.02-0.985-0.639-1.299-0.521C733.388,52.708,733.777,53.441,733.818,54.294z M731.222,57.931
			c0.106,0.029,0.253,0.141,0.259,0.26c0.016,0.287,0.234,0.393,0.39,0.52c0.043,0.035-0.033,0.213,0,0.26
			c0.064,0.09,0.188,0.146,0.261,0.26c0.059,0.092,0.068,0.178,0.129,0.26c0.061,0.084,0.197,0.17,0.261,0.262
			c0.059,0.084,0.079,0.176,0.128,0.258c0.064,0.102,0.255,0.279,0.262,0.391c0.014,0.285,0.233,0.389,0.389,0.518
			c0.043,0.035-0.032,0.213,0,0.26c0.065,0.094,0.186,0.143,0.26,0.26c0.229,0.359,0.58,0.719,0.649,1.17
			c0.522-0.086,1.381,0.168,1.688-0.131c-0.29-0.359-0.62-0.68-0.91-1.039c-0.078-0.098-0.191-0.172-0.259-0.26
			c-0.083-0.107-0.043-0.275-0.13-0.389c-0.143-0.186-0.371-0.314-0.52-0.52c-0.146-0.199-0.25-0.439-0.39-0.648
			c-0.054-0.082-0.205-0.172-0.26-0.262c-0.171-0.275-0.277-0.455-0.391-0.648c-0.217-0.379-0.445-0.631-0.518-1.039
			C732.07,57.74,731.288,57.48,731.222,57.931z"/>
		<path fill-rule="evenodd" clip-rule="evenodd" d="M746.153,52.349c0.255-0.023,0.321-0.365,0.519-0.52
			c0.117-0.094,0.239-0.049,0.39-0.131c0.072-0.039,0.199-0.234,0.26-0.258c0.11-0.047,0.279,0.045,0.39,0
			c0.056-0.023-0.001-0.117,0.13-0.131c0.692-0.084,1.316,0.119,1.817,0.52c-0.021,0.15,0.028,0.23,0.131,0.258
			c0.123,1.203-0.237,2.062-0.521,2.988c-0.152,0.506-0.653,1.025-0.259,1.688c0.3-0.051,0.488-0.143,0.648-0.26
			c0.233-0.174,0.207-0.283,0.39-0.518c0.036-0.049,0.249-0.225,0.26-0.262c0.087-0.289-0.015-0.771,0.519-0.779
			c0.209,0.125-0.071,0.549-0.129,0.779c-0.09,0.359-0.19,0.479-0.39,0.779c-0.048,0.072-0.121-0.021-0.13,0.129
			c0,0.018-0.354,0.375-0.389,0.391c-0.107,0.049-0.281-0.047-0.39,0c-0.055,0.023-0.003,0.111-0.131,0.129
			c-0.143,0.021-0.376,0.025-0.518,0c-0.012-0.002,0.008-0.127,0-0.129c-0.226-0.072-0.435-0.008-0.65-0.26
			c-0.242-0.438-0.114-1.355,0.131-1.947c0.022-0.055,0.122,0.006,0.13-0.129c0.001-0.035-0.015-0.1,0-0.131
			c0.075-0.193,0.3-0.783,0.39-1.17c0.096-0.416,0.193-0.77,0.128-1.037c-0.066-0.275-0.244-0.436-0.518-0.65
			c-0.987,0.078-1.45,0.369-1.95,1.037c-0.139,0.189-0.214,0.379-0.389,0.65c-0.102,0.162-0.059,0.283-0.13,0.521
			c-0.041,0.133-0.067,0.312-0.129,0.518c-0.041,0.135-0.069,0.316-0.131,0.52c-0.04,0.135-0.066,0.314-0.129,0.52
			c-0.027,0.092-0.123,0.107-0.129,0.129c-0.172,0.605-0.008,1.67-1.04,1.559c-0.255-0.35-0.116-0.756,0-1.166
			c0.013-0.047-0.031-0.236,0-0.262c0.171-0.141,0.274-0.963,0.39-1.43c0.222-0.889,0.736-1.824,0.261-2.596
			c-1.056-0.016-0.798,1.281-1.299,1.816c-0.385,0.092-0.274-0.311-0.261-0.518c0.012-0.18,0.379-0.693,0.389-0.91
			c0.011-0.17,0.217-0.303,0.262-0.518C744.795,51.015,746.127,51.421,746.153,52.349z"/>
		<path fill-rule="evenodd" clip-rule="evenodd" d="M719.017,54.294c-1.605,0.6-3.476-0.004-4.934,0.393
			c-0.394,0.104-1.056,0.496-1.429,0.777c-0.302,0.229-0.605,0.537-0.908,0.908c-0.061,0.074-0.223,0.199-0.259,0.26
			c-0.103,0.168-0.039,0.342-0.131,0.52c-0.033,0.066-0.242,0.209-0.259,0.26c-0.104,0.301-0.127,0.721-0.131,1.039
			c0.183,0.244,0.66,0.125,0.91,0.129c1.526,0.031,3.467-0.018,5.192,0c0.659,0.008,1.372-0.1,1.947,0.131
			c-0.105,0.789-1.079,0.492-1.688,0.52c-1.874,0.086-4.453-0.064-6.362,0c-0.036,0.662,0.278,1.396,0.649,1.947
			c0.171,0.258,0.385,0.381,0.649,0.648c0.188,0.191,0.356,0.537,0.518,0.65c0.048,0.033,0.227-0.041,0.261,0
			c0.013,0.014-0.017,0.123,0,0.131c0.047,0.021,0.229-0.039,0.26,0c0.012,0.014-0.017,0.121,0,0.129
			c0.047,0.023,0.229-0.039,0.259,0c0.014,0.016-0.015,0.121,0,0.129c0.048,0.021,0.231-0.037,0.261,0
			c0.087,0.105,0.1,0.09,0.26,0.129c0.155,0.041,0.922,0.229,1.298,0.262c0.523,0.045,1.369-0.047,2.077,0
			c0.54,0.035,1.477-0.258,1.559,0.52c-0.683,0.234-1.432,0.125-2.078,0.129c-1.72,0.01-2.66,0.02-3.895-0.518
			c-0.06-0.027,0.01-0.125-0.131-0.131c-0.187-0.01-0.279-0.248-0.519-0.262c-0.08-0.004-0.985-0.803-1.168-1.037
			c-0.083-0.107-0.063-0.283-0.129-0.391c-0.056-0.086-0.213-0.18-0.261-0.258c-0.07-0.117-0.053-0.246-0.129-0.391
			c-0.037-0.066-0.239-0.203-0.261-0.26c-0.077-0.201-0.09-0.371-0.131-0.52c-0.217-0.824-0.217-2.369,0.261-3.115
			c0.028-0.045,0.124-0.119,0.131-0.131c0.084-0.174,0.029-0.348,0.129-0.52c0.03-0.053,0.239-0.084,0.261-0.129
			c0.025-0.061-0.043-0.209,0-0.258c0.088-0.111,0.302-0.152,0.39-0.262c0.235-0.299,0.324-0.623,0.519-0.779
			c0.045-0.035,0.225,0.045,0.26,0c0.028-0.033,0.096-0.24,0.129-0.258c0.173-0.096,0.341-0.035,0.519-0.131
			c0.067-0.037-0.015-0.123,0.131-0.131c0.114-0.006,0.345-0.148,0.519-0.26c0.268-0.168,0.666-0.197,1.169-0.258
			c0.04-0.006,0.239,0.025,0.26,0c0.221-0.27,2.375-0.238,3.117-0.131C718.449,53.826,719.045,53.703,719.017,54.294z"/>
		<path fill-rule="evenodd" clip-rule="evenodd" d="M695.516,57.671c-0.07-0.459,0.111-0.668,0.39-0.779
			c-0.062-0.408,0.595-0.096,0.65-0.389c-0.572-0.65-1.471-0.67-2.08-0.518c-0.168,0.041-0.291,0.246-0.518,0.258
			c-0.22,0.012-0.262,0.377-0.52,0.389c-0.25,0.014-0.146,0.238-0.259,0.391c-0.049,0.066-0.216,0.068-0.261,0.129
			c-0.071,0.1-0.047,0.281-0.129,0.391c-0.129,0.17-0.188,0.105-0.261,0.389c0.002-0.004-0.119,0.381-0.129,0.391
			c-0.092,0.074-0.165,0.361-0.261,0.648c-0.014,0.045-0.123,0-0.128,0.131c-0.004,0.049,0.032,0.361,0,0.389
			c-0.317,0.258-0.386,2.158-0.131,2.725c0.156,0.352,0.533,0.531,0.778,0.779c0.726,0.008,1.262,0.045,1.816-0.129
			c0.231-0.07,0.684-0.242,0.91-0.389c0.104-0.068,0.178-0.207,0.261-0.262c0.046-0.027,0.226,0.045,0.259,0
			c0.036-0.041,0.087-0.229,0.131-0.258c0.046-0.031,0.225,0.043,0.259,0c0.05-0.061,0.072-0.205,0.131-0.26
			c0.028-0.025,0.246-0.102,0.258-0.131c0.064-0.143-0.021-0.451,0.39-0.389c0.275,0.271-0.11,0.619-0.39,0.908
			c-0.054,0.059-0.262,0.289-0.389,0.391c-0.045,0.035-0.226-0.043-0.259,0c-0.034,0.041-0.09,0.232-0.131,0.26
			c-0.048,0.029-0.226-0.041-0.259,0c-0.013,0.016,0.017,0.121,0,0.129c-0.048,0.021-0.229-0.037-0.261,0
			c-0.013,0.018,0.017,0.123,0,0.129c-0.047,0.023-0.228-0.037-0.26,0c-0.012,0.018,0.017,0.123,0,0.131
			c-0.048,0.023-0.228-0.037-0.26,0c-0.261,0.318-2.183,0.406-2.854,0.131c-0.058-0.023,0.005-0.123-0.131-0.131
			c-0.27-0.014-0.442-0.27-0.65-0.518c-0.032-0.041-0.242-0.096-0.259-0.131c-0.029-0.068,0.04-0.199,0-0.262
			c-0.031-0.047-0.241-0.086-0.26-0.129c-0.086-0.189-0.051-0.318-0.13-0.52c-0.055-0.137-0.044-0.281-0.131-0.648
			c-0.054-0.23-0.168-0.896,0-1.559c0.001-0.006,0.111-0.051,0.131-0.129c0.044-0.178,0.044-0.26,0.13-0.389
			c0.03-0.047,0.084-0.354,0.131-0.391c0.089-0.074,0.222-0.398,0.388-0.65c0.062-0.09,0.199-0.176,0.261-0.258
			c0.055-0.076,0.508-0.441,0.521-0.65c0-0.004,0.509-0.512,0.647-0.52c0.173-0.008,0.202-0.248,0.39-0.258
			c0.114-0.008,0.345-0.15,0.52-0.26c0.128-0.082,0.203-0.084,0.39-0.131c0.096-0.023,0.106-0.125,0.129-0.131
			c0.565-0.133,1.53-0.137,1.949,0c0.045,0.016,0.001,0.125,0.129,0.131c0.378,0.02,1.047,0.76,1.039,1.299
			C697.189,57.912,696.119,58.64,695.516,57.671z"/>
		<path fill-rule="evenodd" clip-rule="evenodd" d="M677.599,55.855c0.186,0.547-0.315,0.305-0.521,0.389
			c-0.293,0.121-0.329,0.174-0.519,0.26c0.039,0.221,0.057,0.568,0.129,0.779c0.024,0.068,0.246,0.209,0.261,0.26
			c0.034,0.115-0.045,0.277,0,0.389c0.026,0.066,0.244,0.213,0.259,0.26c0.034,0.113-0.048,0.281,0,0.389
			c0.04,0.09,0.22,0.188,0.261,0.262c0.026,0.047-0.04,0.227,0,0.26c0.106,0.086,0.089,0.098,0.13,0.258
			c-0.001-0.004,0.118,0.381,0.13,0.393c0.105,0.086,0.089,0.096,0.13,0.258c-0.002-0.006,0.119,0.379,0.131,0.391
			c0.104,0.086,0.087,0.098,0.129,0.258c-0.001-0.004,0.118,0.381,0.13,0.391c0.013,0.012,0.123-0.016,0.131,0
			c0.078,0.201-0.045,0.541,0.258,0.648c0.217-0.125,0.18-0.449,0.26-0.648c0.023-0.055,0.122,0.006,0.13-0.131
			c0.018-0.338,0.358-0.895,0.52-1.297c0.019-0.047-0.036-0.232,0-0.262c0.118-0.096,0.201-0.234,0.259-0.389
			c0.019-0.047-0.035-0.23,0-0.26c0.013-0.01,0.125,0.014,0.131,0c0.072-0.199,0.058-0.449,0.129-0.648
			c0.023-0.068,0.246-0.211,0.261-0.262c0.035-0.117-0.032-0.27,0-0.389c0.009-0.031,0.124-0.012,0.129-0.129
			c0.01-0.174-0.006-0.348,0-0.52c-0.111-0.086-0.075-0.379-0.259-0.391c-0.061-0.002-0.61-0.031-0.52-0.387
			c0.016-0.549,0.996-0.131,1.428-0.262c0.437,0.082,1.207-0.168,1.429,0.131c0.064,0.627-0.687,0.438-1.039,0.648
			c-0.712,0.855-0.998,1.9-1.429,3.117c-0.01,0.029-0.104,0.031-0.129,0.131c-0.067,0.27-0.169,0.414-0.26,0.648
			c-0.076,0.193-0.048,0.318-0.13,0.518c-0.024,0.059-0.122-0.008-0.13,0.131c-0.016,0.279-0.143,0.354-0.26,0.648
			c-0.077,0.193-0.047,0.318-0.13,0.518c-0.022,0.059-0.123-0.004-0.13,0.131c-0.001,0.033,0.014,0.1,0,0.131
			c-0.058,0.146-0.229,0.723-0.518,0.91c-0.531,0.158-0.514-0.393-0.65-0.65c-0.379-0.719-0.585-1.418-0.91-2.336
			c-0.011-0.031-0.105-0.035-0.13-0.131c-0.066-0.271-0.169-0.418-0.26-0.648c-0.076-0.195-0.046-0.322-0.13-0.52
			c-0.022-0.059-0.122,0.008-0.128-0.131c-0.007-0.107-0.147-0.504-0.261-0.779c-0.022-0.055-0.123,0.008-0.129-0.129
			c-0.004-0.035,0.012-0.1,0-0.131c-0.125-0.309-0.435-1.006-0.65-1.428c-0.346-0.129-0.685-0.268-1.167-0.26
			c0-0.086,0-0.174,0-0.258c-0.022-0.152,0.027-0.234,0.13-0.262c0.826,0.018,1.793-0.023,2.725,0
			C677.043,55.73,677.447,55.605,677.599,55.855z"/>
	</g>
	<g>
		<g>
			<rect x="553.966" y="126.77" fill="#00A79D" stroke="#000000" width="18.251" height="18.253"/>
			<rect x="535.682" y="126.77" fill="#00A79D" stroke="#000000" width="18.252" height="18.253"/>
			<rect x="517.399" y="126.77" fill="#00A79D" stroke="#000000" width="18.252" height="18.253"/>
			<rect x="499.116" y="126.77" fill="#00A79D" stroke="#000000" width="18.252" height="18.253"/>
			<rect x="480.833" y="126.77" fill="#00A79D" stroke="#000000" width="18.254" height="18.253"/>
			<rect x="462.55" y="126.77" fill="#00A79D" stroke="#000000" width="18.253" height="18.253"/>
		</g>
		<rect x="462.548" y="126.77" fill="none" stroke="#000000" stroke-width="2" width="109.666" height="18.253"/>
	</g>
	<g>
		<g>
			<line fill="none" stroke="#00A79D" stroke-dasharray="4" x1="415.4" y1="24.521" x2="460.021" y2="121.286"/>
			<polygon fill="#00A79D" points="457.445,121.67 461.517,124.547 461.973,119.583 			"/>
		</g>
	</g>
	<g>
		<g>
			<rect x="553.965" y="24.51" fill="#FBB040" stroke="#000000" width="18.252" height="18.254"/>
			<rect x="535.681" y="24.51" fill="#FBB040" stroke="#000000" width="18.253" height="18.254"/>
			<rect x="517.398" y="24.51" fill="#FBB040" stroke="#000000" width="18.252" height="18.254"/>
			<rect x="499.115" y="24.51" fill="#FBB040" stroke="#000000" width="18.252" height="18.254"/>
			<rect x="480.831" y="24.51" fill="#FBB040" stroke="#000000" width="18.253" height="18.254"/>
			<rect x="462.549" y="24.51" fill="#FBB040" stroke="#000000" width="18.252" height="18.254"/>
		</g>
		<rect x="462.548" y="24.51" fill="none" stroke="#000000" stroke-width="2" width="109.665" height="18.254"/>
	</g>
	<g>
		<g>
			<rect x="553.965" y="56.51" fill="#FBB040" stroke="#000000" width="18.252" height="18.254"/>
			<rect x="535.681" y="56.51" fill="#FBB040" stroke="#000000" width="18.253" height="18.254"/>
			<rect x="517.398" y="56.51" fill="#FBB040" stroke="#000000" width="18.252" height="18.254"/>
			<rect x="499.115" y="56.51" fill="#FBB040" stroke="#000000" width="18.252" height="18.254"/>
			<rect x="480.831" y="56.51" fill="#FBB040" stroke="#000000" width="18.253" height="18.254"/>
			<rect x="462.549" y="56.51" fill="#FBB040" stroke="#000000" width="18.252" height="18.254"/>
		</g>
		<rect x="462.548" y="56.51" fill="none" stroke="#000000" stroke-width="2" width="109.665" height="18.254"/>
	</g>
	<rect x="487.597" y="7.335" fill="none" width="61.445" height="16.001"/>
	<text transform="matrix(1 0 0 1 503.21 18.2461)" font-family="'Times-Italic'" font-size="16">PCA</text>
	<rect x="492.812" y="108.565" fill="none" width="48" height="16.002"/>
	<text transform="matrix(1 0 0 1 512.2559 119.4756)" font-family="'Times-Italic'" font-size="16">μ</text>
	<text transform="matrix(1 0 0 1 578.084 38.6357)" font-family="'Times-Italic'" font-size="16">1</text>
	<g>
		<path d="M517.578,52.833c-0.443,0.001-0.756-0.298-0.758-0.719c0-0.418,0.312-0.706,0.756-0.707
			c0.432-0.001,0.756,0.272,0.756,0.718C518.332,52.546,518.01,52.833,517.578,52.833z"/>
		<path d="M517.574,50.351c-0.443,0.001-0.756-0.298-0.756-0.719c-0.002-0.419,0.309-0.708,0.752-0.708
			c0.434,0,0.756,0.272,0.758,0.719C518.328,50.062,518.006,50.35,517.574,50.351z"/>
		<path d="M517.57,47.866c-0.443,0.001-0.756-0.297-0.758-0.719c0-0.419,0.311-0.706,0.756-0.707
			c0.432-0.002,0.754,0.273,0.756,0.718C518.324,47.578,518.002,47.866,517.57,47.866z"/>
	</g>
	<g>
		<g>
			<line fill="none" stroke="#F7941E" stroke-dasharray="4" x1="415.363" y1="144.793" x2="457" y2="79.902"/>
			<polygon fill="#F7941E" points="458.711,81.867 458.944,76.886 454.515,79.174 			"/>
		</g>
	</g>
	<polyline fill="none" stroke="#000000" points="582.093,171.392 582.093,186.442 454.686,186.442 454.686,171.392 	"/>
	<g>
		<g>
			<line fill="none" stroke="#00A79D" stroke-dasharray="4" x1="415.363" y1="144.793" x2="457" y2="145.022"/>
			<polygon fill="#00A79D" points="456.257,147.52 460.588,145.05 456.284,142.533 			"/>
		</g>
	</g>
	<g>
		<g>
			<rect x="186.363" y="24.813" fill="#FFFFFF" stroke="#000000" width="29.999" height="29.999"/>
			<rect x="186.363" y="54.862" fill="#FFFFFF" stroke="#000000" width="29.999" height="29.999"/>
			<rect x="186.363" y="84.912" fill="#FFFFFF" stroke="#000000" width="29.999" height="29.999"/>
			<rect x="186.363" y="114.961" fill="#FFFFFF" stroke="#000000" width="29.999" height="29.998"/>
		</g>
		<rect x="186.363" y="24.788" fill="none" stroke="#000000" stroke-width="2" width="29.999" height="120.171"/>
	</g>
	<text transform="matrix(1 0 0 1 196.0259 17.5596)" font-family="'Times-Italic'" font-size="16">w</text>
	<polyline fill="none" stroke="#000000" points="221.19,171.393 221.19,186.443 181.534,186.443 181.534,171.393 	"/>
	<rect x="164.257" y="196.012" fill="none" width="74.21" height="25.992"/>
	<text transform="matrix(1 0 0 1 173.9019 205.3584)"><tspan x="0" y="0" font-family="'Helvetica'" font-size="13">surrogate </tspan><tspan x="-4.618" y="13" font-family="'Helvetica'" font-size="13">attention </tspan><tspan x="48.867" y="13" font-family="'Times-Italic'" font-size="16">w</tspan></text>
	<g>
		<line fill="none" stroke="#000000" stroke-dasharray="4" x1="122.341" y1="145.195" x2="84.909" y2="90.831"/>
		<line fill="none" stroke="#000000" stroke-dasharray="4" x1="122.341" y1="25.245" x2="85.657" y2="79.192"/>
	</g>
	<g>
		<rect x="696.369" y="126.388" fill="#FFFFFF" stroke="#000000" width="74.344" height="22.516"/>
		<text transform="matrix(1 0 0 1 706.8145 142.1006)" font-family="'Helvetica'" font-size="13">Classifier</text>
	</g>
	<g>
		<g>
			<line fill="none" stroke="#000000" x1="732.839" y1="95.08" x2="732.839" y2="112.348"/>
			<polygon points="727.838,110.888 732.823,119.524 737.809,110.888 			"/>
		</g>
	</g>
</g>
</svg>
