<?xml version="1.0" encoding="utf-8"?>
<!-- Generator: Adobe Illustrator 14.0.0, SVG Export Plug-In . SVG Version: 6.00 Build 43363)  -->
<!DOCTYPE svg PUBLIC "-//W3C//DTD SVG 1.1//EN" "http://www.w3.org/Graphics/SVG/1.1/DTD/svg11.dtd">
<svg version="1.1" id="Layer_1" xmlns="http://www.w3.org/2000/svg" xmlns:xlink="http://www.w3.org/1999/xlink" x="0px" y="0px"
	 width="792px" height="112px" viewBox="0 0 792 112" enable-background="new 0 0 792 112" xml:space="preserve">
<g>
	<g>
		<rect x="30.268" y="44.458" fill="#1C75BC" width="175.998" height="24.242"/>
		<path fill="#175885" d="M206.766,69.2H29.768V43.958h176.998V69.2L206.766,69.2z M30.768,68.2h174.998V44.958H30.768V68.2
			L30.768,68.2z"/>
	</g>
	<g>
		<path fill="#FFFFFF" d="M37.858,58.301l2.953-0.287c0.178,0.992,0.538,1.719,1.082,2.184c0.543,0.465,1.276,0.697,2.199,0.697
			c0.978,0,1.714-0.206,2.21-0.62c0.495-0.414,0.743-0.897,0.743-1.451c0-0.355-0.104-0.658-0.312-0.907
			c-0.209-0.25-0.573-0.467-1.092-0.651c-0.355-0.123-1.166-0.342-2.43-0.656c-1.627-0.403-2.769-0.899-3.425-1.487
			c-0.923-0.827-1.384-1.835-1.384-3.025c0-0.766,0.217-1.481,0.651-2.148c0.434-0.666,1.06-1.174,1.877-1.522
			c0.816-0.349,1.803-0.523,2.958-0.523c1.887,0,3.307,0.414,4.261,1.241c0.953,0.827,1.454,1.931,1.502,3.312l-3.035,0.133
			c-0.13-0.772-0.409-1.328-0.836-1.666c-0.427-0.339-1.068-0.508-1.922-0.508c-0.882,0-1.572,0.181-2.071,0.543
			c-0.321,0.232-0.482,0.543-0.482,0.933c0,0.355,0.15,0.66,0.451,0.913c0.383,0.321,1.312,0.656,2.789,1.005
			s2.568,0.709,3.276,1.082c0.707,0.373,1.261,0.882,1.661,1.528c0.399,0.646,0.6,1.444,0.6,2.394c0,0.862-0.239,1.668-0.718,2.42
			s-1.155,1.311-2.03,1.676s-1.965,0.549-3.271,0.549c-1.9,0-3.36-0.439-4.378-1.317S38.057,59.982,37.858,58.301z"/>
		<path fill="#FFFFFF" d="M57.607,52.303V54.6h-1.969v4.389c0,0.889,0.019,1.406,0.057,1.554c0.037,0.147,0.123,0.269,0.256,0.364
			c0.134,0.096,0.296,0.143,0.487,0.143c0.267,0,0.653-0.092,1.159-0.276l0.246,2.235c-0.67,0.287-1.429,0.431-2.276,0.431
			c-0.52,0-0.988-0.087-1.405-0.262c-0.417-0.174-0.723-0.399-0.918-0.677c-0.194-0.276-0.33-0.65-0.405-1.123
			c-0.062-0.334-0.092-1.012-0.092-2.029V54.6h-1.323v-2.297h1.323v-2.164l2.892-1.682v3.845H57.607z"/>
		<path fill="#FFFFFF" d="M65.913,59.727l2.871,0.482c-0.369,1.053-0.952,1.854-1.748,2.404c-0.797,0.551-1.793,0.825-2.989,0.825
			c-1.894,0-3.295-0.618-4.204-1.856c-0.718-0.99-1.077-2.242-1.077-3.752c0-1.805,0.472-3.218,1.415-4.24s2.136-1.533,3.579-1.533
			c1.62,0,2.898,0.535,3.835,1.604c0.937,1.07,1.384,2.709,1.343,4.917h-7.219c0.021,0.854,0.253,1.52,0.697,1.994
			c0.444,0.476,0.998,0.713,1.661,0.713c0.451,0,0.831-0.123,1.138-0.369S65.756,60.273,65.913,59.727z M66.077,56.814
			c-0.021-0.834-0.236-1.468-0.646-1.902c-0.41-0.434-0.909-0.651-1.497-0.651c-0.629,0-1.148,0.229-1.559,0.687
			s-0.612,1.08-0.605,1.866H66.077z"/>
		<path fill="#FFFFFF" d="M71.204,52.303h2.687v1.6c0.349-0.547,0.82-0.991,1.415-1.333s1.254-0.513,1.979-0.513
			c1.265,0,2.338,0.496,3.22,1.487s1.323,2.372,1.323,4.143c0,1.818-0.444,3.232-1.333,4.24c-0.889,1.009-1.965,1.513-3.23,1.513
			c-0.602,0-1.147-0.12-1.636-0.358c-0.489-0.24-1.003-0.65-1.543-1.23v5.485h-2.881V52.303z M74.055,57.563
			c0,1.224,0.243,2.127,0.728,2.712c0.485,0.584,1.077,0.877,1.774,0.877c0.67,0,1.227-0.269,1.671-0.806
			c0.444-0.536,0.667-1.417,0.667-2.64c0-1.142-0.229-1.989-0.687-2.543s-1.025-0.831-1.702-0.831c-0.704,0-1.289,0.271-1.753,0.815
			C74.287,55.691,74.055,56.497,74.055,57.563z"/>
		<path fill="#FFFFFF" d="M86.985,48.16v5.527c0.93-1.087,2.041-1.63,3.333-1.63c0.663,0,1.261,0.123,1.794,0.369
			s0.935,0.561,1.205,0.943s0.455,0.807,0.554,1.271s0.149,1.186,0.149,2.164v6.388h-2.881V57.44c0-1.142-0.055-1.866-0.164-2.174
			s-0.303-0.552-0.579-0.733c-0.277-0.181-0.624-0.272-1.041-0.272c-0.479,0-0.906,0.116-1.282,0.349s-0.651,0.583-0.826,1.051
			c-0.174,0.468-0.261,1.16-0.261,2.076v5.455h-2.881V48.16H86.985z"/>
		<path fill="#FFFFFF" d="M103.248,59.727l2.871,0.482c-0.369,1.053-0.952,1.854-1.748,2.404c-0.797,0.551-1.793,0.825-2.989,0.825
			c-1.894,0-3.295-0.618-4.204-1.856c-0.718-0.99-1.077-2.242-1.077-3.752c0-1.805,0.472-3.218,1.415-4.24s2.136-1.533,3.579-1.533
			c1.62,0,2.898,0.535,3.835,1.604c0.937,1.07,1.384,2.709,1.343,4.917h-7.219c0.021,0.854,0.253,1.52,0.697,1.994
			c0.444,0.476,0.998,0.713,1.661,0.713c0.451,0,0.831-0.123,1.138-0.369S103.09,60.273,103.248,59.727z M103.412,56.814
			c-0.021-0.834-0.236-1.468-0.646-1.902c-0.41-0.434-0.909-0.651-1.497-0.651c-0.629,0-1.148,0.229-1.559,0.687
			s-0.612,1.08-0.605,1.866H103.412z"/>
		<path fill="#FFFFFF" d="M118.526,63.192h-2.881v-5.558c0-1.176-0.062-1.936-0.185-2.281s-0.323-0.614-0.6-0.805
			c-0.277-0.191-0.61-0.287-1-0.287c-0.499,0-0.947,0.137-1.343,0.41s-0.668,0.636-0.815,1.087
			c-0.147,0.451-0.221,1.285-0.221,2.502v4.932H108.6v-10.89h2.676v1.6c0.95-1.23,2.146-1.846,3.589-1.846
			c0.636,0,1.217,0.115,1.743,0.344s0.924,0.521,1.194,0.876s0.458,0.759,0.564,1.21c0.105,0.451,0.159,1.097,0.159,1.938V63.192z"
			/>
		<path fill="#FFFFFF" d="M136.921,57.666l2.943,0.933c-0.451,1.641-1.202,2.859-2.251,3.655c-1.049,0.797-2.38,1.195-3.994,1.195
			c-1.996,0-3.637-0.683-4.922-2.046c-1.285-1.364-1.928-3.229-1.928-5.594c0-2.502,0.646-4.445,1.938-5.829
			c1.292-1.385,2.991-2.077,5.096-2.077c1.839,0,3.333,0.543,4.481,1.63c0.684,0.643,1.196,1.565,1.538,2.769l-3.004,0.718
			c-0.178-0.779-0.548-1.395-1.113-1.846c-0.563-0.451-1.249-0.677-2.056-0.677c-1.114,0-2.019,0.4-2.712,1.2
			c-0.694,0.8-1.041,2.095-1.041,3.886c0,1.9,0.342,3.254,1.025,4.061s1.572,1.21,2.666,1.21c0.807,0,1.5-0.257,2.082-0.769
			C136.251,59.572,136.668,58.766,136.921,57.666z"/>
		<path fill="#FFFFFF" d="M141.782,57.594c0-0.957,0.236-1.883,0.708-2.779s1.14-1.579,2.004-2.051s1.831-0.708,2.897-0.708
			c1.647,0,2.998,0.535,4.05,1.604c1.053,1.07,1.579,2.422,1.579,4.056c0,1.647-0.532,3.014-1.595,4.097s-2.401,1.625-4.014,1.625
			c-0.998,0-1.95-0.226-2.856-0.677s-1.594-1.112-2.066-1.984C142.018,59.906,141.782,58.845,141.782,57.594z M144.735,57.748
			c0,1.08,0.256,1.907,0.769,2.481s1.145,0.861,1.897,0.861s1.382-0.287,1.892-0.861s0.764-1.408,0.764-2.501
			c0-1.066-0.255-1.887-0.764-2.461s-1.14-0.861-1.892-0.861s-1.384,0.287-1.897,0.861S144.735,56.667,144.735,57.748z"/>
		<path fill="#FFFFFF" d="M155.276,63.192V48.16h2.881v15.032H155.276z"/>
		<path fill="#FFFFFF" d="M160.987,63.192V48.16h2.881v5.414c0.889-1.012,1.941-1.518,3.158-1.518c1.326,0,2.423,0.48,3.292,1.44
			c0.868,0.961,1.302,2.34,1.302,4.138c0,1.859-0.443,3.291-1.328,4.297c-0.885,1.004-1.96,1.507-3.225,1.507
			c-0.622,0-1.235-0.155-1.841-0.467c-0.604-0.311-1.126-0.771-1.563-1.379v1.6H160.987z M163.848,57.512
			c0,1.128,0.178,1.962,0.533,2.502c0.499,0.766,1.162,1.148,1.989,1.148c0.636,0,1.177-0.271,1.625-0.815
			c0.448-0.543,0.672-1.399,0.672-2.568c0-1.244-0.226-2.141-0.677-2.691s-1.029-0.826-1.733-0.826c-0.69,0-1.265,0.269-1.723,0.805
			S163.848,56.418,163.848,57.512z"/>
		<path fill="#FFFFFF" d="M180.244,59.727l2.871,0.482c-0.369,1.053-0.952,1.854-1.748,2.404c-0.797,0.551-1.793,0.825-2.989,0.825
			c-1.894,0-3.295-0.618-4.204-1.856c-0.718-0.99-1.077-2.242-1.077-3.752c0-1.805,0.472-3.218,1.415-4.24s2.136-1.533,3.579-1.533
			c1.62,0,2.898,0.535,3.835,1.604c0.937,1.07,1.384,2.709,1.343,4.917h-7.219c0.021,0.854,0.253,1.52,0.697,1.994
			c0.444,0.476,0.998,0.713,1.661,0.713c0.451,0,0.831-0.123,1.138-0.369S180.087,60.273,180.244,59.727z M180.408,56.814
			c-0.021-0.834-0.236-1.468-0.646-1.902c-0.41-0.434-0.909-0.651-1.497-0.651c-0.629,0-1.148,0.229-1.559,0.687
			s-0.612,1.08-0.605,1.866H180.408z"/>
		<path fill="#FFFFFF" d="M188.375,63.192h-2.881v-10.89h2.676v1.548c0.458-0.731,0.87-1.213,1.235-1.446s0.781-0.349,1.246-0.349
			c0.656,0,1.289,0.181,1.897,0.543l-0.892,2.512c-0.485-0.314-0.937-0.472-1.354-0.472c-0.403,0-0.745,0.111-1.025,0.333
			c-0.28,0.223-0.501,0.624-0.661,1.205c-0.161,0.581-0.241,1.798-0.241,3.65V63.192z"/>
		<path fill="#FFFFFF" d="M198.783,52.303V54.6h-1.969v4.389c0,0.889,0.019,1.406,0.057,1.554c0.037,0.147,0.123,0.269,0.256,0.364
			c0.134,0.096,0.296,0.143,0.487,0.143c0.267,0,0.653-0.092,1.159-0.276l0.246,2.235c-0.67,0.287-1.429,0.431-2.276,0.431
			c-0.52,0-0.988-0.087-1.405-0.262c-0.417-0.174-0.723-0.399-0.918-0.677c-0.194-0.276-0.33-0.65-0.405-1.123
			c-0.062-0.334-0.092-1.012-0.092-2.029V54.6H192.6v-2.297h1.323v-2.164l2.892-1.682v3.845H198.783z"/>
	</g>
</g>
<g>
	<g>
		<rect x="410.052" y="44.899" fill="#1C75BC" width="74.1" height="24.242"/>
		<path fill="#175885" d="M484.651,69.642h-75.1V44.399h75.1V69.642L484.651,69.642z M410.552,68.642h73.1V45.399h-73.1V68.642
			L410.552,68.642z"/>
	</g>
	<g>
		<path fill="#FFFFFF" d="M414.973,63.635V48.603h11.146v2.543h-8.111v3.333h7.547v2.533h-7.547v4.091h8.398v2.533H414.973z"/>
		<path fill="#FFFFFF" d="M431.953,63.635l-4.389-10.89h3.025l2.051,5.558l0.594,1.855c0.158-0.471,0.257-0.782,0.298-0.933
			c0.096-0.308,0.198-0.615,0.308-0.923l2.071-5.558h2.964l-4.328,10.89H431.953z"/>
		<path fill="#FFFFFF" d="M446.944,60.169l2.871,0.481c-0.369,1.053-0.952,1.855-1.748,2.405c-0.797,0.55-1.793,0.825-2.989,0.825
			c-1.894,0-3.295-0.619-4.204-1.855c-0.718-0.992-1.077-2.242-1.077-3.753c0-1.805,0.473-3.218,1.416-4.24s2.136-1.533,3.578-1.533
			c1.62,0,2.898,0.535,3.835,1.604c0.937,1.07,1.384,2.709,1.343,4.917h-7.219c0.021,0.854,0.254,1.52,0.697,1.994
			c0.445,0.476,0.998,0.713,1.662,0.713c0.451,0,0.83-0.123,1.138-0.369S446.787,60.716,446.944,60.169z M447.108,57.257
			c-0.021-0.834-0.235-1.468-0.646-1.902c-0.41-0.434-0.91-0.651-1.498-0.651c-0.629,0-1.148,0.229-1.559,0.687
			s-0.611,1.08-0.604,1.866H447.108z"/>
		<path fill="#FFFFFF" d="M452.317,63.635V48.603h2.882v15.032H452.317z"/>
		<path fill="#FFFFFF" d="M456.788,52.745h3.065l2.605,7.731l2.543-7.731h2.983l-3.845,10.479l-0.688,1.896
			c-0.253,0.637-0.494,1.121-0.723,1.457c-0.229,0.334-0.492,0.605-0.79,0.814c-0.297,0.209-0.663,0.371-1.097,0.487
			c-0.435,0.116-0.925,0.175-1.472,0.175c-0.554,0-1.097-0.059-1.63-0.175l-0.257-2.256c0.451,0.089,0.858,0.134,1.22,0.134
			c0.67,0,1.166-0.197,1.487-0.59c0.321-0.394,0.567-0.895,0.738-1.502L456.788,52.745z"/>
		<path fill="#FFFFFF" d="M479.736,63.635h-2.881v-5.558c0-1.176-0.062-1.936-0.186-2.281s-0.322-0.614-0.6-0.805
			s-0.609-0.287-1-0.287c-0.498,0-0.946,0.137-1.343,0.41s-0.669,0.636-0.815,1.087s-0.221,1.285-0.221,2.502v4.932h-2.881v-10.89
			h2.676v1.6c0.951-1.23,2.146-1.846,3.59-1.846c0.635,0,1.217,0.115,1.742,0.344c0.527,0.229,0.925,0.521,1.195,0.876
			c0.27,0.355,0.457,0.759,0.564,1.21c0.105,0.451,0.158,1.097,0.158,1.938V63.635z"/>
	</g>
</g>
<g>
	<path d="M217.947,61.734c-0.684,0.582-1.342,0.992-1.974,1.23c-0.633,0.24-1.311,0.359-2.036,0.359
		c-1.196,0-2.116-0.292-2.758-0.877c-0.643-0.584-0.964-1.331-0.964-2.24c0-0.533,0.121-1.021,0.364-1.461
		c0.242-0.441,0.56-0.795,0.953-1.062s0.836-0.468,1.328-0.605c0.362-0.096,0.909-0.188,1.641-0.277
		c1.49-0.178,2.587-0.39,3.292-0.636c0.007-0.253,0.01-0.414,0.01-0.482c0-0.752-0.174-1.282-0.523-1.589
		c-0.472-0.417-1.172-0.625-2.102-0.625c-0.868,0-1.509,0.152-1.923,0.457s-0.719,0.842-0.917,1.615l-1.805-0.246
		c0.164-0.772,0.434-1.396,0.81-1.872c0.376-0.475,0.919-0.841,1.63-1.097c0.711-0.257,1.535-0.385,2.471-0.385
		c0.93,0,1.685,0.109,2.266,0.328s1.008,0.494,1.282,0.825c0.273,0.332,0.465,0.75,0.574,1.256c0.062,0.314,0.092,0.882,0.092,1.702
		v2.461c0,1.715,0.039,2.801,0.118,3.255c0.079,0.455,0.234,0.891,0.467,1.308h-1.928C218.125,62.695,218.001,62.248,217.947,61.734
		z M217.793,57.613c-0.67,0.273-1.675,0.506-3.015,0.697c-0.759,0.109-1.295,0.232-1.61,0.369s-0.557,0.336-0.728,0.6
		s-0.256,0.555-0.256,0.877c0,0.492,0.186,0.902,0.559,1.23s0.918,0.492,1.636,0.492c0.711,0,1.343-0.156,1.897-0.467
		s0.96-0.736,1.22-1.277c0.198-0.416,0.297-1.031,0.297-1.845V57.613z"/>
	<path d="M222.52,63.078v-10.89h1.661v1.548c0.8-1.196,1.955-1.794,3.466-1.794c0.656,0,1.259,0.118,1.81,0.354
		c0.55,0.236,0.962,0.545,1.235,0.928s0.465,0.837,0.574,1.364c0.068,0.342,0.103,0.94,0.103,1.794v6.696h-1.846v-6.624
		c0-0.752-0.072-1.314-0.215-1.687s-0.398-0.67-0.764-0.893c-0.366-0.222-0.794-0.333-1.287-0.333c-0.786,0-1.465,0.25-2.036,0.749
		s-0.856,1.446-0.856,2.84v5.947H222.52z"/>
	<path d="M241.264,63.078v-1.374c-0.69,1.08-1.706,1.62-3.045,1.62c-0.868,0-1.667-0.239-2.394-0.718
		c-0.729-0.479-1.292-1.146-1.692-2.005c-0.399-0.857-0.6-1.844-0.6-2.958c0-1.087,0.181-2.073,0.543-2.958s0.906-1.564,1.63-2.036
		s1.535-0.708,2.43-0.708c0.656,0,1.241,0.139,1.753,0.415c0.513,0.277,0.93,0.638,1.251,1.082v-5.394h1.835v15.032H241.264z
		 M235.43,57.644c0,1.395,0.294,2.437,0.882,3.128c0.588,0.689,1.282,1.035,2.082,1.035c0.807,0,1.492-0.33,2.056-0.989
		c0.564-0.659,0.846-1.667,0.846-3.02c0-1.49-0.287-2.584-0.861-3.281s-1.282-1.046-2.123-1.046c-0.82,0-1.506,0.335-2.056,1.005
		C235.705,55.145,235.43,56.201,235.43,57.644z"/>
	<path d="M251.713,63.078V48.046h1.846v5.394c0.861-0.998,1.948-1.497,3.261-1.497c0.807,0,1.507,0.159,2.102,0.477
		c0.595,0.318,1.021,0.757,1.276,1.318c0.257,0.561,0.385,1.374,0.385,2.44v6.901h-1.846v-6.901c0-0.923-0.2-1.594-0.6-2.015
		c-0.4-0.42-0.966-0.63-1.697-0.63c-0.547,0-1.062,0.142-1.543,0.425c-0.482,0.284-0.826,0.668-1.031,1.154s-0.308,1.155-0.308,2.01
		v5.958H251.713z"/>
	<path d="M263.402,50.168v-2.123h1.846v2.123H263.402z M263.402,63.078v-10.89h1.846v10.89H263.402z"/>
	<path d="M267.319,59.828l1.825-0.287c0.103,0.73,0.388,1.291,0.856,1.682c0.468,0.389,1.123,0.584,1.964,0.584
		c0.848,0,1.477-0.172,1.887-0.518s0.615-0.75,0.615-1.215c0-0.418-0.181-0.746-0.543-0.984c-0.253-0.165-0.882-0.373-1.887-0.626
		c-1.354-0.342-2.292-0.637-2.815-0.887c-0.522-0.25-0.919-0.595-1.189-1.036c-0.27-0.44-0.405-0.928-0.405-1.461
		c0-0.485,0.111-0.935,0.333-1.349c0.222-0.413,0.524-0.757,0.907-1.03c0.287-0.212,0.678-0.391,1.174-0.538
		s1.027-0.221,1.595-0.221c0.854,0,1.604,0.123,2.251,0.369c0.646,0.246,1.123,0.579,1.43,1c0.308,0.42,0.52,0.982,0.636,1.687
		l-1.805,0.246c-0.082-0.561-0.32-0.998-0.712-1.312c-0.394-0.314-0.949-0.472-1.667-0.472c-0.848,0-1.453,0.14-1.815,0.42
		s-0.543,0.608-0.543,0.984c0,0.239,0.075,0.455,0.226,0.646c0.15,0.198,0.386,0.362,0.708,0.492
		c0.185,0.068,0.728,0.226,1.63,0.472c1.306,0.349,2.216,0.634,2.733,0.856c0.516,0.222,0.921,0.545,1.215,0.969
		s0.441,0.95,0.441,1.579c0,0.615-0.179,1.194-0.539,1.738c-0.358,0.543-0.876,0.964-1.553,1.261
		c-0.677,0.298-1.442,0.446-2.297,0.446c-1.415,0-2.494-0.294-3.235-0.882C267.998,61.854,267.524,60.982,267.319,59.828z"/>
	<path d="M284.351,63.078V48.046h1.846v15.032H284.351z"/>
	<path d="M288.371,57.633c0-2.017,0.561-3.51,1.682-4.481c0.937-0.807,2.078-1.21,3.425-1.21c1.497,0,2.721,0.491,3.671,1.472
		s1.425,2.336,1.425,4.065c0,1.401-0.21,2.504-0.63,3.307c-0.421,0.804-1.033,1.427-1.836,1.872c-0.803,0.443-1.68,0.666-2.63,0.666
		c-1.524,0-2.757-0.488-3.696-1.467C288.84,60.881,288.371,59.473,288.371,57.633z M290.268,57.633c0,1.394,0.304,2.439,0.913,3.132
		c0.608,0.694,1.374,1.041,2.297,1.041c0.916,0,1.678-0.349,2.287-1.046s0.913-1.761,0.913-3.189c0-1.347-0.306-2.367-0.918-3.061
		c-0.612-0.693-1.372-1.041-2.281-1.041c-0.923,0-1.688,0.345-2.297,1.036S290.268,56.239,290.268,57.633z"/>
	<path d="M300.737,63.078v-10.89h1.661v1.548c0.8-1.196,1.955-1.794,3.466-1.794c0.656,0,1.259,0.118,1.81,0.354
		c0.55,0.236,0.962,0.545,1.235,0.928s0.465,0.837,0.574,1.364c0.068,0.342,0.103,0.94,0.103,1.794v6.696h-1.846v-6.624
		c0-0.752-0.072-1.314-0.215-1.687s-0.398-0.67-0.764-0.893c-0.366-0.222-0.794-0.333-1.287-0.333c-0.786,0-1.465,0.25-2.036,0.749
		s-0.856,1.446-0.856,2.84v5.947H300.737z"/>
	<path d="M312.078,63.98l1.794,0.267c0.075,0.554,0.284,0.957,0.625,1.21c0.458,0.342,1.083,0.513,1.876,0.513
		c0.854,0,1.514-0.171,1.979-0.513s0.779-0.82,0.943-1.436c0.096-0.376,0.14-1.166,0.133-2.369
		c-0.807,0.951-1.812,1.426-3.015,1.426c-1.497,0-2.656-0.54-3.476-1.62s-1.23-2.376-1.23-3.886c0-1.039,0.188-1.998,0.564-2.876
		c0.376-0.878,0.921-1.557,1.635-2.035s1.554-0.718,2.518-0.718c1.285,0,2.345,0.52,3.179,1.559v-1.312h1.702v9.413
		c0,1.695-0.173,2.896-0.518,3.604c-0.346,0.707-0.893,1.267-1.641,1.677c-0.749,0.41-1.67,0.615-2.764,0.615
		c-1.299,0-2.348-0.293-3.148-0.877C312.437,66.036,312.05,65.156,312.078,63.98z M313.605,57.438c0,1.429,0.284,2.472,0.851,3.128
		s1.278,0.984,2.133,0.984c0.848,0,1.559-0.326,2.133-0.979s0.861-1.677,0.861-3.071c0-1.333-0.296-2.338-0.887-3.015
		c-0.592-0.677-1.304-1.015-2.138-1.015c-0.82,0-1.518,0.333-2.092,1C313.893,55.137,313.605,56.126,313.605,57.438z"/>
	<path d="M328.125,61.428l0.267,1.63c-0.52,0.109-0.984,0.164-1.395,0.164c-0.67,0-1.189-0.106-1.559-0.317
		c-0.369-0.213-0.629-0.49-0.779-0.836s-0.226-1.072-0.226-2.18v-6.265h-1.354v-1.436h1.354v-2.697l1.835-1.107v3.804h1.856v1.436
		h-1.856v6.368c0,0.525,0.032,0.864,0.097,1.015s0.171,0.271,0.318,0.358c0.146,0.09,0.357,0.134,0.63,0.134
		C327.52,61.499,327.79,61.475,328.125,61.428z"/>
	<path d="M329.94,50.168v-2.123h1.846v2.123H329.94z M329.94,63.078v-10.89h1.846v10.89H329.94z"/>
	<path d="M334.595,63.078v-10.89h1.651v1.528c0.342-0.533,0.796-0.962,1.364-1.287s1.213-0.487,1.938-0.487
		c0.807,0,1.468,0.167,1.984,0.502c0.516,0.335,0.88,0.803,1.092,1.405c0.861-1.271,1.982-1.907,3.363-1.907
		c1.08,0,1.911,0.299,2.492,0.897s0.872,1.519,0.872,2.763v7.475h-1.835v-6.86c0-0.738-0.06-1.27-0.179-1.594
		c-0.12-0.325-0.337-0.586-0.651-0.785s-0.684-0.297-1.107-0.297c-0.766,0-1.401,0.255-1.907,0.764
		c-0.506,0.51-0.759,1.325-0.759,2.446v6.327h-1.846v-7.075c0-0.82-0.15-1.436-0.451-1.846s-0.793-0.615-1.477-0.615
		c-0.52,0-1,0.137-1.44,0.41c-0.441,0.273-0.761,0.673-0.959,1.2s-0.297,1.285-0.297,2.276v5.65H334.595z"/>
	<path d="M359.543,59.571l1.907,0.235c-0.301,1.115-0.858,1.979-1.671,2.595s-1.853,0.923-3.117,0.923
		c-1.593,0-2.856-0.49-3.789-1.472c-0.934-0.98-1.4-2.356-1.4-4.127c0-1.832,0.472-3.254,1.415-4.266s2.167-1.518,3.671-1.518
		c1.456,0,2.646,0.496,3.568,1.487s1.384,2.386,1.384,4.184c0,0.109-0.003,0.273-0.01,0.492h-8.121
		c0.068,1.196,0.407,2.112,1.015,2.749c0.608,0.635,1.367,0.953,2.276,0.953c0.677,0,1.254-0.178,1.733-0.533
		S359.263,60.351,359.543,59.571z M353.483,56.587h6.081c-0.082-0.916-0.314-1.603-0.697-2.061c-0.588-0.711-1.35-1.066-2.287-1.066
		c-0.848,0-1.561,0.284-2.138,0.851S353.544,55.637,353.483,56.587z"/>
	<path d="M371.612,63.078l-3.333-10.89h1.907l1.733,6.286l0.646,2.338c0.027-0.117,0.215-0.865,0.564-2.246l1.733-6.378h1.897
		l1.63,6.316l0.543,2.081l0.625-2.102l1.866-6.296h1.794l-3.404,10.89h-1.917l-1.733-6.521l-0.42-1.856l-2.205,8.377H371.612z"/>
	<path d="M384.778,50.168v-2.123h1.846v2.123H384.778z M384.778,63.078v-10.89h1.846v10.89H384.778z"/>
	<path d="M389.874,63.078v-9.454h-1.63v-1.436h1.63V51.03c0-0.731,0.065-1.275,0.195-1.63c0.178-0.479,0.49-0.866,0.938-1.164
		c0.448-0.297,1.075-0.446,1.882-0.446c0.52,0,1.094,0.062,1.723,0.185l-0.277,1.61c-0.383-0.068-0.745-0.103-1.087-0.103
		c-0.561,0-0.957,0.12-1.189,0.359s-0.349,0.687-0.349,1.343v1.005h2.123v1.436h-2.123v9.454H389.874z"/>
	<path d="M402.723,59.571l1.906,0.235c-0.301,1.115-0.857,1.979-1.671,2.595s-1.853,0.923-3.117,0.923
		c-1.593,0-2.856-0.49-3.789-1.472c-0.934-0.98-1.4-2.356-1.4-4.127c0-1.832,0.472-3.254,1.415-4.266s2.167-1.518,3.671-1.518
		c1.456,0,2.646,0.496,3.568,1.487s1.385,2.386,1.385,4.184c0,0.109-0.004,0.273-0.011,0.492h-8.121
		c0.068,1.196,0.407,2.112,1.015,2.749c0.609,0.635,1.367,0.953,2.277,0.953c0.676,0,1.254-0.178,1.732-0.533
		S402.441,60.351,402.723,59.571z M396.662,56.587h6.08c-0.082-0.916-0.314-1.603-0.697-2.061c-0.588-0.711-1.35-1.066-2.286-1.066
		c-0.848,0-1.561,0.284-2.138,0.851C397.043,54.878,396.724,55.637,396.662,56.587z"/>
	<path d="M488.64,50.168v-2.123h1.846v2.123H488.64z M488.64,63.078v-10.89h1.846v10.89H488.64z"/>
	<path d="M493.295,63.078v-10.89h1.661v1.548c0.8-1.196,1.955-1.794,3.466-1.794c0.656,0,1.26,0.118,1.811,0.354
		c0.549,0.236,0.961,0.545,1.234,0.928s0.465,0.837,0.574,1.364c0.068,0.342,0.104,0.94,0.104,1.794v6.696h-1.846v-6.624
		c0-0.752-0.072-1.314-0.216-1.687s-0.398-0.67-0.765-0.893c-0.365-0.222-0.794-0.333-1.286-0.333c-0.786,0-1.465,0.25-2.036,0.749
		c-0.57,0.499-0.855,1.446-0.855,2.84v5.947H493.295z"/>
	<path d="M517.914,61.734c-0.684,0.582-1.342,0.992-1.973,1.23c-0.633,0.24-1.312,0.359-2.036,0.359
		c-1.196,0-2.116-0.292-2.759-0.877c-0.643-0.584-0.963-1.331-0.963-2.24c0-0.533,0.121-1.021,0.363-1.461
		c0.242-0.441,0.561-0.795,0.953-1.062c0.394-0.267,0.836-0.468,1.328-0.605c0.363-0.096,0.91-0.188,1.641-0.277
		c1.49-0.178,2.588-0.39,3.292-0.636c0.007-0.253,0.011-0.414,0.011-0.482c0-0.752-0.175-1.282-0.523-1.589
		c-0.472-0.417-1.172-0.625-2.102-0.625c-0.869,0-1.51,0.152-1.924,0.457c-0.413,0.304-0.719,0.842-0.917,1.615l-1.805-0.246
		c0.164-0.772,0.435-1.396,0.81-1.872c0.377-0.475,0.92-0.841,1.631-1.097c0.711-0.257,1.535-0.385,2.471-0.385
		c0.93,0,1.686,0.109,2.267,0.328s1.009,0.494,1.282,0.825c0.273,0.332,0.465,0.75,0.574,1.256c0.061,0.314,0.092,0.882,0.092,1.702
		v2.461c0,1.715,0.039,2.801,0.117,3.255c0.079,0.455,0.234,0.891,0.467,1.308h-1.928C518.092,62.695,517.969,62.248,517.914,61.734
		z M517.761,57.613c-0.67,0.273-1.675,0.506-3.015,0.697c-0.759,0.109-1.295,0.232-1.609,0.369s-0.558,0.336-0.729,0.6
		s-0.256,0.555-0.256,0.877c0,0.492,0.186,0.902,0.559,1.23c0.372,0.328,0.918,0.492,1.635,0.492c0.711,0,1.344-0.156,1.897-0.467
		s0.96-0.736,1.22-1.277c0.199-0.416,0.298-1.031,0.298-1.845V57.613z"/>
	<path d="M528.322,67.252V52.188h1.682v1.415c0.396-0.554,0.844-0.969,1.344-1.246c0.498-0.276,1.104-0.415,1.814-0.415
		c0.93,0,1.75,0.239,2.461,0.718s1.248,1.153,1.609,2.025c0.363,0.871,0.544,1.827,0.544,2.866c0,1.114-0.2,2.118-0.601,3.009
		c-0.398,0.893-0.98,1.576-1.742,2.051c-0.763,0.475-1.564,0.713-2.404,0.713c-0.615,0-1.168-0.13-1.656-0.39
		c-0.489-0.26-0.891-0.588-1.205-0.984v5.302H528.322z M529.994,57.695c0,1.401,0.283,2.437,0.851,3.107s1.255,1.005,2.062,1.005
		c0.82,0,1.521-0.347,2.107-1.041c0.584-0.693,0.876-1.769,0.876-3.225c0-1.388-0.286-2.427-0.856-3.117s-1.252-1.036-2.045-1.036
		c-0.787,0-1.482,0.368-2.088,1.102C530.297,55.226,529.994,56.293,529.994,57.695z"/>
	<path d="M540.002,63.078V48.046h1.846v5.394c0.861-0.998,1.947-1.497,3.26-1.497c0.807,0,1.508,0.159,2.103,0.477
		c0.595,0.318,1.021,0.757,1.276,1.318c0.257,0.561,0.385,1.374,0.385,2.44v6.901h-1.846v-6.901c0-0.923-0.2-1.594-0.6-2.015
		c-0.4-0.42-0.966-0.63-1.697-0.63c-0.547,0-1.062,0.142-1.543,0.425c-0.482,0.284-0.826,0.668-1.031,1.154s-0.307,1.155-0.307,2.01
		v5.958H540.002z"/>
	<path d="M550.994,57.633c0-2.017,0.561-3.51,1.682-4.481c0.936-0.807,2.078-1.21,3.424-1.21c1.498,0,2.721,0.491,3.672,1.472
		c0.949,0.981,1.425,2.336,1.425,4.065c0,1.401-0.21,2.504-0.63,3.307c-0.422,0.804-1.033,1.427-1.836,1.872
		c-0.804,0.443-1.68,0.666-2.631,0.666c-1.523,0-2.756-0.488-3.695-1.467C551.463,60.881,550.994,59.473,550.994,57.633z
		 M552.891,57.633c0,1.394,0.305,2.439,0.912,3.132c0.609,0.694,1.375,1.041,2.297,1.041c0.916,0,1.679-0.349,2.287-1.046
		s0.912-1.761,0.912-3.189c0-1.347-0.306-2.367-0.918-3.061c-0.611-0.693-1.371-1.041-2.281-1.041c-0.922,0-1.688,0.345-2.297,1.036
		C553.195,55.196,552.891,56.239,552.891,57.633z"/>
	<path d="M567.39,61.428l0.267,1.63c-0.52,0.109-0.984,0.164-1.395,0.164c-0.67,0-1.189-0.106-1.559-0.317
		c-0.369-0.213-0.629-0.49-0.779-0.836s-0.226-1.072-0.226-2.18v-6.265h-1.354v-1.436h1.354v-2.697l1.835-1.107v3.804h1.856v1.436
		h-1.856v6.368c0,0.525,0.033,0.864,0.098,1.015s0.171,0.271,0.318,0.358c0.146,0.09,0.357,0.134,0.631,0.134
		C566.785,61.499,567.055,61.475,567.39,61.428z"/>
	<path d="M568.508,57.633c0-2.017,0.561-3.51,1.682-4.481c0.936-0.807,2.078-1.21,3.424-1.21c1.498,0,2.721,0.491,3.672,1.472
		c0.949,0.981,1.425,2.336,1.425,4.065c0,1.401-0.21,2.504-0.63,3.307c-0.422,0.804-1.033,1.427-1.836,1.872
		c-0.804,0.443-1.68,0.666-2.631,0.666c-1.523,0-2.756-0.488-3.695-1.467C568.977,60.881,568.508,59.473,568.508,57.633z
		 M570.404,57.633c0,1.394,0.305,2.439,0.912,3.132c0.609,0.694,1.375,1.041,2.297,1.041c0.916,0,1.679-0.349,2.287-1.046
		s0.912-1.761,0.912-3.189c0-1.347-0.306-2.367-0.918-3.061c-0.611-0.693-1.371-1.041-2.281-1.041c-0.922,0-1.688,0.345-2.297,1.036
		C570.709,55.196,570.404,56.239,570.404,57.633z"/>
	<path d="M587.148,63.078v-9.454h-1.63v-1.436h1.63V51.03c0-0.731,0.065-1.275,0.195-1.63c0.178-0.479,0.49-0.866,0.938-1.164
		c0.448-0.297,1.076-0.446,1.883-0.446c0.52,0,1.094,0.062,1.723,0.185l-0.277,1.61c-0.383-0.068-0.745-0.103-1.087-0.103
		c-0.561,0-0.957,0.12-1.189,0.359s-0.349,0.687-0.349,1.343v1.005h2.123v1.436h-2.123v9.454H587.148z"/>
	<path d="M592.521,63.078v-10.89h1.662v1.651c0.424-0.772,0.814-1.282,1.174-1.528c0.358-0.246,0.754-0.369,1.184-0.369
		c0.623,0,1.255,0.198,1.897,0.595l-0.636,1.712c-0.451-0.267-0.902-0.4-1.354-0.4c-0.403,0-0.766,0.122-1.087,0.364
		s-0.55,0.579-0.687,1.01c-0.205,0.656-0.309,1.374-0.309,2.153v5.701H592.521z"/>
	<path d="M598.849,57.633c0-2.017,0.561-3.51,1.682-4.481c0.937-0.807,2.078-1.21,3.425-1.21c1.497,0,2.721,0.491,3.671,1.472
		s1.425,2.336,1.425,4.065c0,1.401-0.21,2.504-0.63,3.307c-0.421,0.804-1.032,1.427-1.836,1.872c-0.804,0.443-1.68,0.666-2.63,0.666
		c-1.524,0-2.757-0.488-3.696-1.467C599.318,60.881,598.849,59.473,598.849,57.633z M600.746,57.633
		c0,1.394,0.304,2.439,0.912,3.132c0.608,0.694,1.374,1.041,2.297,1.041c0.916,0,1.678-0.349,2.287-1.046
		c0.607-0.697,0.912-1.761,0.912-3.189c0-1.347-0.307-2.367-0.918-3.061c-0.611-0.693-1.372-1.041-2.281-1.041
		c-0.923,0-1.688,0.345-2.297,1.036S600.746,56.239,600.746,57.633z"/>
	<path d="M611.215,63.078v-10.89h1.65v1.528c0.342-0.533,0.797-0.962,1.364-1.287s1.214-0.487,1.938-0.487
		c0.807,0,1.467,0.167,1.984,0.502c0.516,0.335,0.879,0.803,1.092,1.405c0.861-1.271,1.982-1.907,3.363-1.907
		c1.08,0,1.91,0.299,2.491,0.897s0.872,1.519,0.872,2.763v7.475h-1.836v-6.86c0-0.738-0.061-1.27-0.18-1.594
		s-0.336-0.586-0.65-0.785s-0.684-0.297-1.107-0.297c-0.766,0-1.402,0.255-1.908,0.764c-0.506,0.51-0.758,1.325-0.758,2.446v6.327
		h-1.846v-7.075c0-0.82-0.15-1.436-0.451-1.846s-0.793-0.615-1.477-0.615c-0.52,0-1,0.137-1.441,0.41s-0.76,0.673-0.959,1.2
		c-0.197,0.526-0.297,1.285-0.297,2.276v5.65H611.215z"/>
	<path d="M638.572,61.428l0.267,1.63c-0.52,0.109-0.984,0.164-1.395,0.164c-0.67,0-1.189-0.106-1.559-0.317
		c-0.369-0.213-0.629-0.49-0.779-0.836s-0.226-1.072-0.226-2.18v-6.265h-1.354v-1.436h1.354v-2.697l1.836-1.107v3.804h1.855v1.436
		h-1.855v6.368c0,0.525,0.031,0.864,0.097,1.015s0.171,0.271,0.318,0.358c0.146,0.09,0.356,0.134,0.63,0.134
		C637.967,61.499,638.237,61.475,638.572,61.428z"/>
	<path d="M640.377,63.078V48.046h1.846v5.394c0.861-0.998,1.948-1.497,3.261-1.497c0.807,0,1.507,0.159,2.103,0.477
		c0.594,0.318,1.02,0.757,1.275,1.318c0.258,0.561,0.385,1.374,0.385,2.44v6.901H647.4v-6.901c0-0.923-0.199-1.594-0.6-2.015
		c-0.4-0.42-0.965-0.63-1.697-0.63c-0.547,0-1.061,0.142-1.543,0.425c-0.482,0.284-0.825,0.668-1.03,1.154s-0.308,1.155-0.308,2.01
		v5.958H640.377z"/>
	<path d="M659.511,59.571l1.907,0.235c-0.301,1.115-0.857,1.979-1.672,2.595c-0.812,0.615-1.852,0.923-3.117,0.923
		c-1.592,0-2.855-0.49-3.788-1.472c-0.934-0.98-1.399-2.356-1.399-4.127c0-1.832,0.471-3.254,1.414-4.266s2.168-1.518,3.672-1.518
		c1.455,0,2.645,0.496,3.568,1.487c0.922,0.991,1.384,2.386,1.384,4.184c0,0.109-0.003,0.273-0.011,0.492h-8.121
		c0.068,1.196,0.407,2.112,1.016,2.749c0.608,0.635,1.367,0.953,2.276,0.953c0.677,0,1.255-0.178,1.733-0.533
		S659.23,60.351,659.511,59.571z M653.451,56.587h6.08c-0.082-0.916-0.314-1.603-0.697-2.061c-0.588-0.711-1.35-1.066-2.287-1.066
		c-0.848,0-1.561,0.284-2.138,0.851S653.512,55.637,653.451,56.587z"/>
	<path d="M663.746,50.168v-2.123h1.846v2.123H663.746z M663.746,63.078v-10.89h1.846v10.89H663.746z"/>
	<path d="M668.381,63.078v-10.89h1.66v1.651c0.424-0.772,0.815-1.282,1.175-1.528c0.358-0.246,0.753-0.369,1.185-0.369
		c0.621,0,1.254,0.198,1.896,0.595l-0.636,1.712c-0.451-0.267-0.902-0.4-1.354-0.4c-0.403,0-0.766,0.122-1.087,0.364
		s-0.551,0.579-0.688,1.01c-0.205,0.656-0.307,1.374-0.307,2.153v5.701H668.381z"/>
	<path d="M683.238,63.078l-3.332-10.89h1.906l1.733,6.286l0.646,2.338c0.027-0.117,0.216-0.865,0.564-2.246l1.732-6.378h1.897
		l1.63,6.316l0.544,2.081l0.626-2.102l1.865-6.296h1.795l-3.404,10.89h-1.918l-1.732-6.521l-0.42-1.856l-2.205,8.377H683.238z"/>
	<path d="M703.849,59.571l1.907,0.235c-0.301,1.115-0.857,1.979-1.672,2.595c-0.812,0.615-1.852,0.923-3.117,0.923
		c-1.592,0-2.855-0.49-3.788-1.472c-0.934-0.98-1.399-2.356-1.399-4.127c0-1.832,0.471-3.254,1.414-4.266s2.168-1.518,3.672-1.518
		c1.455,0,2.645,0.496,3.568,1.487c0.922,0.991,1.384,2.386,1.384,4.184c0,0.109-0.003,0.273-0.011,0.492h-8.121
		c0.068,1.196,0.407,2.112,1.016,2.749c0.608,0.635,1.367,0.953,2.276,0.953c0.677,0,1.255-0.178,1.733-0.533
		S703.568,60.351,703.849,59.571z M697.789,56.587h6.08c-0.082-0.916-0.314-1.603-0.697-2.061c-0.588-0.711-1.35-1.066-2.287-1.066
		c-0.848,0-1.561,0.284-2.138,0.851S697.85,55.637,697.789,56.587z"/>
	<path d="M715.139,63.078v-1.374c-0.691,1.08-1.706,1.62-3.046,1.62c-0.868,0-1.667-0.239-2.394-0.718
		c-0.729-0.479-1.293-1.146-1.693-2.005c-0.398-0.857-0.6-1.844-0.6-2.958c0-1.087,0.182-2.073,0.544-2.958s0.905-1.564,1.63-2.036
		s1.535-0.708,2.431-0.708c0.656,0,1.241,0.139,1.753,0.415c0.514,0.277,0.93,0.638,1.252,1.082v-5.394h1.835v15.032H715.139z
		 M709.304,57.644c0,1.395,0.294,2.437,0.882,3.128c0.588,0.689,1.281,1.035,2.082,1.035c0.807,0,1.492-0.33,2.055-0.989
		c0.564-0.659,0.847-1.667,0.847-3.02c0-1.49-0.287-2.584-0.861-3.281s-1.282-1.046-2.122-1.046c-0.82,0-1.506,0.335-2.057,1.005
		S709.304,56.201,709.304,57.644z"/>
	<path d="M726.817,63.078v-1.374c-0.69,1.08-1.706,1.62-3.046,1.62c-0.867,0-1.666-0.239-2.394-0.718
		c-0.729-0.479-1.292-1.146-1.692-2.005c-0.399-0.857-0.6-1.844-0.6-2.958c0-1.087,0.182-2.073,0.543-2.958
		c0.363-0.885,0.906-1.564,1.631-2.036s1.535-0.708,2.43-0.708c0.656,0,1.241,0.139,1.754,0.415c0.513,0.277,0.93,0.638,1.251,1.082
		v-5.394h1.835v15.032H726.817z M720.982,57.644c0,1.395,0.295,2.437,0.883,3.128c0.588,0.689,1.281,1.035,2.081,1.035
		c0.807,0,1.492-0.33,2.056-0.989c0.564-0.659,0.846-1.667,0.846-3.02c0-1.49-0.287-2.584-0.861-3.281s-1.281-1.046-2.122-1.046
		c-0.82,0-1.506,0.335-2.056,1.005C721.258,55.145,720.982,56.201,720.982,57.644z"/>
	<path d="M731.441,50.168v-2.123h1.846v2.123H731.441z M731.441,63.078v-10.89h1.846v10.89H731.441z"/>
	<path d="M736.098,63.078v-10.89h1.66v1.548c0.801-1.196,1.955-1.794,3.467-1.794c0.656,0,1.259,0.118,1.81,0.354
		c0.55,0.236,0.962,0.545,1.235,0.928s0.465,0.837,0.574,1.364c0.068,0.342,0.103,0.94,0.103,1.794v6.696h-1.846v-6.624
		c0-0.752-0.071-1.314-0.216-1.687c-0.143-0.373-0.398-0.67-0.764-0.893c-0.365-0.222-0.795-0.333-1.287-0.333
		c-0.785,0-1.465,0.25-2.035,0.749s-0.855,1.446-0.855,2.84v5.947H736.098z"/>
	<path d="M747.438,63.98l1.795,0.267c0.075,0.554,0.283,0.957,0.625,1.21c0.459,0.342,1.084,0.513,1.877,0.513
		c0.854,0,1.514-0.171,1.979-0.513s0.779-0.82,0.943-1.436c0.096-0.376,0.141-1.166,0.134-2.369
		c-0.807,0.951-1.812,1.426-3.015,1.426c-1.497,0-2.656-0.54-3.477-1.62s-1.23-2.376-1.23-3.886c0-1.039,0.188-1.998,0.564-2.876
		c0.376-0.878,0.921-1.557,1.635-2.035c0.715-0.479,1.555-0.718,2.518-0.718c1.285,0,2.346,0.52,3.18,1.559v-1.312h1.701v9.413
		c0,1.695-0.172,2.896-0.518,3.604c-0.346,0.707-0.893,1.267-1.641,1.677s-1.67,0.615-2.764,0.615c-1.299,0-2.348-0.293-3.147-0.877
		C747.797,66.036,747.41,65.156,747.438,63.98z M748.966,57.438c0,1.429,0.284,2.472,0.851,3.128
		c0.568,0.656,1.279,0.984,2.133,0.984c0.848,0,1.559-0.326,2.133-0.979s0.861-1.677,0.861-3.071c0-1.333-0.295-2.338-0.887-3.015
		s-1.304-1.015-2.138-1.015c-0.82,0-1.518,0.333-2.092,1C749.253,55.137,748.966,56.126,748.966,57.438z"/>
</g>
<g>
	<polygon points="760.821,47.618 759.821,47.618 759.821,39.556 25.423,39.556 25.423,47.618 24.423,47.618 24.423,38.556 
		760.821,38.556 760.821,47.618 	"/>
</g>
<g>
	<path d="M354.641,26.733h0.338c0.15,0.827,0.328,1.432,0.533,1.815c0.376,0.704,0.937,1.056,1.682,1.056
		c0.417,0,0.767-0.147,1.051-0.441s0.426-0.684,0.426-1.169c0-0.301-0.036-0.547-0.107-0.738c-0.072-0.191-0.163-0.366-0.272-0.523
		l-0.851-1.261c-0.513-0.766-0.834-1.278-0.964-1.538c-0.198-0.39-0.297-0.779-0.297-1.169c0-0.595,0.213-1.119,0.641-1.574
		c0.427-0.455,1.034-0.682,1.82-0.682c0.335,0,0.718,0.063,1.148,0.19s0.725,0.189,0.882,0.189c0.171,0,0.297-0.034,0.379-0.103
		s0.157-0.161,0.226-0.277h0.297l-0.42,2.912h-0.338c-0.089-0.663-0.222-1.162-0.4-1.497c-0.328-0.622-0.848-0.933-1.559-0.933
		c-0.301,0-0.569,0.094-0.805,0.282c-0.236,0.188-0.354,0.463-0.354,0.825c0,0.28,0.053,0.526,0.159,0.738s0.347,0.588,0.723,1.128
		l0.728,1.046c0.376,0.54,0.643,0.981,0.8,1.323s0.236,0.711,0.236,1.107c0,0.738-0.314,1.36-0.943,1.866s-1.377,0.759-2.246,0.759
		c-0.28,0-0.68-0.058-1.2-0.174s-0.82-0.174-0.902-0.174c-0.137,0-0.238,0.031-0.302,0.092c-0.065,0.062-0.125,0.154-0.18,0.277
		h-0.338L354.641,26.733z"/>
	<path d="M364.772,22.66c1.354-1.42,2.751-2.13,4.194-2.13c0.533,0,0.957,0.123,1.271,0.369s0.472,0.61,0.472,1.095
		c0,0.982-0.576,1.824-1.728,2.523s-2.363,1.127-3.635,1.284l-0.584,0.072c-0.089,0.28-0.15,0.504-0.185,0.672
		s-0.051,0.377-0.051,0.63c0,0.602,0.196,1.07,0.59,1.405c0.393,0.335,0.859,0.502,1.399,0.502c0.513,0,1.056-0.171,1.63-0.513
		c0.328-0.198,0.803-0.554,1.425-1.066l0.267,0.236c-0.308,0.39-0.749,0.79-1.323,1.2c-1.019,0.731-2.041,1.097-3.066,1.097
		c-0.725,0-1.36-0.256-1.907-0.768s-0.82-1.247-0.82-2.202C362.721,25.548,363.405,24.08,364.772,22.66z M368.094,24.034
		c0.82-0.726,1.23-1.447,1.23-2.164c0-0.259-0.062-0.465-0.185-0.619c-0.123-0.154-0.304-0.23-0.543-0.23
		c-0.444,0-0.88,0.189-1.307,0.568c-0.428,0.378-0.812,0.806-1.154,1.284c-0.362,0.56-0.649,1.095-0.861,1.606
		c-0.116,0.272-0.239,0.583-0.369,0.931C366.211,25.219,367.274,24.761,368.094,24.034z"/>
	<path d="M371.765,29.789l1.755-6.337c0.15-0.536,0.238-0.861,0.262-0.974s0.036-0.235,0.036-0.366c0-0.2-0.056-0.356-0.169-0.469
		s-0.333-0.17-0.662-0.17c-0.082,0-0.162,0.005-0.241,0.015c-0.079,0.011-0.166,0.022-0.262,0.036v-0.338
		c0.441-0.068,0.755-0.12,0.942-0.154c0.187-0.034,0.389-0.075,0.606-0.123l1.823-0.4c0.041,0.027,0.068,0.058,0.082,0.092
		l-1.359,4.409c0.84-1.278,1.542-2.229,2.106-2.851c0.991-1.101,1.879-1.651,2.664-1.651c0.303,0,0.564,0.058,0.785,0.174
		c0.419,0.226,0.629,0.632,0.629,1.22c0,0.164-0.018,0.335-0.051,0.513c-0.035,0.178-0.079,0.369-0.133,0.574l-1.35,4.912
		c-0.027,0.103-0.058,0.228-0.092,0.374c-0.034,0.147-0.051,0.251-0.051,0.313c0,0.103,0.024,0.195,0.072,0.277
		s0.124,0.123,0.229,0.123c0.17,0,0.367-0.104,0.59-0.312c0.223-0.208,0.586-0.655,1.091-1.338l0.297,0.267
		c-0.55,0.759-0.985,1.292-1.307,1.6c-0.55,0.54-1.076,0.81-1.579,0.81c-0.228,0-0.448-0.077-0.659-0.23
		c-0.212-0.154-0.318-0.433-0.318-0.836c0-0.116,0.009-0.239,0.026-0.369s0.039-0.243,0.066-0.338l1.309-4.983
		c0.068-0.273,0.114-0.498,0.139-0.671c0.023-0.175,0.036-0.299,0.036-0.375c0-0.164-0.04-0.306-0.118-0.425
		c-0.079-0.12-0.219-0.18-0.419-0.18c-0.52,0-1.174,0.464-1.963,1.393c-0.464,0.553-0.935,1.212-1.413,1.977
		c-0.357,0.594-0.638,1.173-0.843,1.736c-0.206,0.563-0.532,1.589-0.979,3.076H371.765z"/>
	<path d="M382.679,28.922c0.007-0.072,0.021-0.145,0.041-0.22l1.982-7.156h-1.559c0-0.185,0.014-0.301,0.041-0.349
		c0.028-0.048,0.097-0.096,0.207-0.144c0.694-0.295,1.233-0.58,1.614-0.854c0.382-0.274,0.903-0.803,1.563-1.585l0.164-0.195
		c0.021-0.027,0.046-0.05,0.077-0.067s0.063-0.026,0.097-0.026c0.068,0.014,0.116,0.027,0.144,0.041
		c0.021,0.048,0.032,0.091,0.036,0.128c0.003,0.038,0.001,0.077-0.005,0.118l-0.604,2.235h1.69l-0.123,0.699h-1.769l-1.89,6.89
		c-0.035,0.123-0.024,0.24,0.031,0.353s0.147,0.169,0.277,0.169c0.178,0,0.428-0.178,0.749-0.533
		c0.185-0.191,0.496-0.571,0.934-1.138l0.267,0.154l-0.144,0.215c-0.589,0.882-1.107,1.496-1.556,1.841
		c-0.449,0.345-0.875,0.518-1.279,0.518c-0.35,0-0.603-0.092-0.76-0.277c-0.158-0.185-0.236-0.393-0.236-0.625
		C382.668,29.058,382.672,28.994,382.679,28.922z"/>
	<path d="M390.427,22.66c1.354-1.42,2.751-2.13,4.194-2.13c0.533,0,0.957,0.123,1.271,0.369s0.472,0.61,0.472,1.095
		c0,0.982-0.576,1.824-1.728,2.523s-2.363,1.127-3.635,1.284l-0.584,0.072c-0.089,0.28-0.15,0.504-0.185,0.672
		s-0.051,0.377-0.051,0.63c0,0.602,0.196,1.07,0.59,1.405c0.393,0.335,0.859,0.502,1.399,0.502c0.513,0,1.056-0.171,1.63-0.513
		c0.328-0.198,0.803-0.554,1.425-1.066l0.267,0.236c-0.308,0.39-0.749,0.79-1.323,1.2c-1.019,0.731-2.041,1.097-3.066,1.097
		c-0.725,0-1.36-0.256-1.907-0.768s-0.82-1.247-0.82-2.202C388.376,25.548,389.06,24.08,390.427,22.66z M393.75,24.034
		c0.82-0.726,1.23-1.447,1.23-2.164c0-0.259-0.062-0.465-0.185-0.619c-0.123-0.154-0.304-0.23-0.543-0.23
		c-0.444,0-0.88,0.189-1.307,0.568c-0.428,0.378-0.812,0.806-1.154,1.284c-0.362,0.56-0.649,1.095-0.861,1.606
		c-0.116,0.272-0.239,0.583-0.369,0.931C391.866,25.219,392.929,24.761,393.75,24.034z"/>
	<path d="M397.42,29.789l1.756-6.337c0.15-0.536,0.237-0.861,0.262-0.974c0.023-0.113,0.035-0.235,0.035-0.366
		c0-0.2-0.057-0.356-0.169-0.469s-0.333-0.17-0.661-0.17c-0.082,0-0.162,0.005-0.241,0.015c-0.079,0.011-0.166,0.022-0.262,0.036
		v-0.338c0.441-0.068,0.755-0.12,0.942-0.154c0.187-0.034,0.389-0.075,0.605-0.123l1.823-0.4c0.04,0.027,0.067,0.058,0.081,0.092
		l-1.359,4.409c0.84-1.278,1.542-2.229,2.107-2.851c0.99-1.101,1.879-1.651,2.663-1.651c0.303,0,0.564,0.058,0.784,0.174
		c0.42,0.226,0.629,0.632,0.629,1.22c0,0.164-0.018,0.335-0.051,0.513c-0.035,0.178-0.079,0.369-0.133,0.574l-1.35,4.912
		c-0.027,0.103-0.059,0.228-0.093,0.374c-0.034,0.147-0.052,0.251-0.052,0.313c0,0.103,0.024,0.195,0.072,0.277
		s0.124,0.123,0.229,0.123c0.171,0,0.367-0.104,0.59-0.312s0.587-0.655,1.092-1.338l0.297,0.267c-0.549,0.759-0.984,1.292-1.307,1.6
		c-0.55,0.54-1.076,0.81-1.578,0.81c-0.229,0-0.448-0.077-0.66-0.23c-0.211-0.154-0.317-0.433-0.317-0.836
		c0-0.116,0.009-0.239,0.026-0.369c0.017-0.13,0.039-0.243,0.066-0.338l1.309-4.983c0.068-0.273,0.113-0.498,0.139-0.671
		c0.023-0.175,0.035-0.299,0.035-0.375c0-0.164-0.039-0.306-0.118-0.425s-0.219-0.18-0.419-0.18c-0.52,0-1.174,0.464-1.963,1.393
		c-0.465,0.553-0.936,1.212-1.413,1.977c-0.356,0.594-0.638,1.173-0.843,1.736c-0.206,0.563-0.533,1.589-0.98,3.076H397.42z"/>
	<path d="M415.908,21.091c0.369,0.375,0.554,0.739,0.554,1.093c0,0.32-0.096,0.569-0.287,0.746
		c-0.191,0.177-0.417,0.266-0.677,0.266c-0.253,0-0.465-0.079-0.636-0.236s-0.257-0.352-0.257-0.584c0-0.178,0.057-0.369,0.17-0.574
		c0.112-0.205,0.169-0.338,0.169-0.4c0-0.123-0.07-0.227-0.21-0.312c-0.141-0.085-0.364-0.128-0.672-0.128
		c-1.101,0-2.056,0.626-2.866,1.879c-0.81,1.252-1.215,2.566-1.215,3.942c0,0.773,0.164,1.379,0.492,1.817s0.82,0.657,1.477,0.657
		c0.526,0,1.037-0.152,1.533-0.456c0.495-0.304,0.952-0.692,1.368-1.164l0.072-0.082l0.297,0.226
		c-0.479,0.608-0.939,1.077-1.384,1.405c-0.786,0.567-1.657,0.851-2.614,0.851c-0.916,0-1.658-0.292-2.226-0.877
		c-0.567-0.584-0.851-1.382-0.851-2.394c0-1.552,0.632-2.98,1.896-4.286c1.251-1.299,2.604-1.948,4.061-1.948
		C414.938,20.529,415.539,20.717,415.908,21.091z"/>
	<path d="M419.568,22.66c1.354-1.42,2.752-2.13,4.194-2.13c0.533,0,0.957,0.123,1.271,0.369s0.472,0.61,0.472,1.095
		c0,0.982-0.576,1.824-1.729,2.523c-1.151,0.699-2.363,1.127-3.635,1.284l-0.584,0.072c-0.089,0.28-0.15,0.504-0.185,0.672
		s-0.052,0.377-0.052,0.63c0,0.602,0.197,1.07,0.59,1.405s0.859,0.502,1.4,0.502c0.512,0,1.056-0.171,1.63-0.513
		c0.328-0.198,0.804-0.554,1.425-1.066l0.268,0.236c-0.309,0.39-0.749,0.79-1.323,1.2c-1.019,0.731-2.04,1.097-3.065,1.097
		c-0.725,0-1.361-0.256-1.908-0.768s-0.82-1.247-0.82-2.202C417.518,25.548,418.201,24.08,419.568,22.66z M422.891,24.034
		c0.82-0.726,1.23-1.447,1.23-2.164c0-0.259-0.061-0.465-0.184-0.619c-0.123-0.154-0.305-0.23-0.544-0.23
		c-0.444,0-0.88,0.189-1.308,0.568s-0.812,0.806-1.153,1.284c-0.362,0.56-0.649,1.095-0.861,1.606
		c-0.116,0.272-0.239,0.583-0.369,0.931C421.008,25.219,422.07,24.761,422.891,24.034z"/>
</g>
<g>
	<path d="M90.757,80.104c0.33,0.225,0.494,0.596,0.494,1.114c0,0.231-0.056,0.554-0.169,0.966c-0.113,0.413-0.316,1.078-0.611,1.995
		c0.761-1.16,1.416-2.044,1.965-2.652c0.995-1.099,1.872-1.648,2.633-1.648c0.322,0,0.617,0.108,0.884,0.327
		c0.268,0.218,0.401,0.568,0.401,1.053c0,0.15-0.065,0.514-0.195,1.094l-1.613,5.596c-0.027,0.088-0.017,0.18,0.031,0.271
		c0.047,0.093,0.137,0.139,0.267,0.139c0.123,0,0.231-0.03,0.323-0.092s0.21-0.164,0.354-0.309c0.137-0.137,0.248-0.256,0.333-0.359
		c0.085-0.103,0.33-0.4,0.733-0.894l0.318,0.246l-0.103,0.144c-0.493,0.698-0.988,1.254-1.487,1.668
		c-0.5,0.414-0.992,0.621-1.478,0.621c-0.219,0-0.403-0.055-0.554-0.164c-0.232-0.178-0.349-0.475-0.349-0.893
		c0-0.102,0.008-0.211,0.025-0.328c0.017-0.116,0.042-0.246,0.077-0.39l1.592-5.75c0.021-0.082,0.036-0.151,0.046-0.206
		s0.015-0.109,0.015-0.164c0-0.164-0.043-0.291-0.13-0.38c-0.087-0.089-0.197-0.134-0.33-0.134c-0.468,0-1.012,0.346-1.634,1.037
		c-0.621,0.691-1.162,1.393-1.623,2.105c-0.419,0.725-0.714,1.332-0.885,1.822c-0.171,0.489-0.484,1.562-0.938,3.219h-1.595
		l2.053-7.3c0.014-0.062,0.026-0.122,0.036-0.18s0.015-0.118,0.015-0.18c0-0.165-0.036-0.293-0.109-0.386
		c-0.073-0.092-0.193-0.139-0.361-0.139c-0.44,0-0.984,0.359-1.631,1.078c-0.647,0.72-1.177,1.391-1.589,2.014
		c-0.406,0.609-0.794,1.42-1.165,2.434c-0.217,0.615-0.505,1.502-0.864,2.658H82.37l1.977-7.291
		c0.021-0.076,0.037-0.148,0.051-0.218c0.013-0.069,0.021-0.142,0.021-0.218c0-0.27-0.092-0.432-0.277-0.486
		s-0.541-0.072-1.066-0.053v-0.338c0.687-0.109,1.8-0.335,3.338-0.677l0.082,0.071l-1.163,4.198c0.771-1.111,1.499-2.04,2.187-2.786
		c0.944-0.988,1.777-1.483,2.499-1.483C90.295,79.878,90.542,79.953,90.757,80.104z"/>
	<path d="M100.002,82.029c1.354-1.42,2.751-2.131,4.194-2.131c0.533,0,0.957,0.123,1.271,0.369c0.314,0.245,0.472,0.609,0.472,1.094
		c0,0.982-0.576,1.824-1.728,2.523s-2.363,1.127-3.635,1.284l-0.584,0.071c-0.089,0.281-0.15,0.505-0.185,0.672
		c-0.034,0.168-0.051,0.378-0.051,0.631c0,0.602,0.196,1.07,0.59,1.404c0.393,0.336,0.859,0.503,1.399,0.503
		c0.513,0,1.056-0.171,1.63-0.513c0.328-0.198,0.803-0.554,1.425-1.066l0.267,0.236c-0.308,0.389-0.749,0.789-1.323,1.199
		c-1.019,0.731-2.041,1.098-3.066,1.098c-0.725,0-1.36-0.256-1.907-0.769s-0.82-1.247-0.82-2.202
		C97.951,84.918,98.635,83.449,100.002,82.029z M103.324,83.403c0.82-0.726,1.23-1.447,1.23-2.163c0-0.26-0.062-0.466-0.185-0.619
		c-0.123-0.154-0.304-0.23-0.543-0.23c-0.444,0-0.88,0.189-1.307,0.568c-0.428,0.378-0.812,0.806-1.154,1.283
		c-0.362,0.56-0.649,1.095-0.861,1.606c-0.116,0.272-0.239,0.583-0.369,0.931C101.441,84.588,102.504,84.13,103.324,83.403z"/>
	<path d="M106.995,89.158l1.755-6.338c0.15-0.535,0.238-0.86,0.262-0.974s0.036-0.235,0.036-0.366c0-0.199-0.056-0.355-0.169-0.469
		s-0.333-0.17-0.662-0.17c-0.082,0-0.162,0.006-0.241,0.016s-0.166,0.021-0.262,0.035v-0.338c0.441-0.068,0.755-0.119,0.942-0.154
		c0.187-0.033,0.389-0.074,0.606-0.123l1.823-0.399c0.041,0.027,0.068,0.058,0.082,0.093l-1.359,4.408
		c0.84-1.277,1.542-2.229,2.106-2.85c0.991-1.102,1.879-1.651,2.664-1.651c0.303,0,0.564,0.058,0.785,0.175
		c0.419,0.225,0.629,0.632,0.629,1.22c0,0.164-0.018,0.335-0.051,0.513c-0.035,0.178-0.079,0.369-0.133,0.574l-1.35,4.912
		c-0.027,0.102-0.058,0.227-0.092,0.373c-0.034,0.148-0.051,0.252-0.051,0.313c0,0.103,0.024,0.194,0.072,0.276
		s0.124,0.123,0.229,0.123c0.17,0,0.367-0.104,0.59-0.312c0.223-0.208,0.586-0.654,1.091-1.338l0.297,0.267
		c-0.55,0.759-0.985,1.292-1.307,1.6c-0.55,0.54-1.076,0.81-1.579,0.81c-0.228,0-0.448-0.076-0.659-0.23
		c-0.212-0.154-0.318-0.432-0.318-0.836c0-0.115,0.009-0.238,0.026-0.369c0.017-0.129,0.039-0.242,0.066-0.338l1.309-4.983
		c0.068-0.273,0.114-0.497,0.139-0.671c0.023-0.176,0.036-0.3,0.036-0.375c0-0.164-0.04-0.306-0.118-0.426
		c-0.079-0.119-0.219-0.18-0.419-0.18c-0.52,0-1.174,0.465-1.963,1.394c-0.464,0.554-0.935,1.212-1.413,1.978
		c-0.357,0.594-0.638,1.173-0.843,1.736c-0.206,0.562-0.532,1.588-0.979,3.076H106.995z"/>
	<path d="M117.909,88.291c0.007-0.071,0.021-0.145,0.041-0.22l1.982-7.156h-1.559c0-0.185,0.014-0.301,0.041-0.349
		c0.028-0.049,0.097-0.096,0.207-0.145c0.694-0.295,1.233-0.58,1.614-0.854c0.382-0.274,0.903-0.803,1.563-1.585l0.164-0.195
		c0.021-0.027,0.046-0.051,0.077-0.067s0.063-0.026,0.097-0.026c0.068,0.014,0.116,0.027,0.144,0.041
		c0.021,0.049,0.032,0.092,0.036,0.129c0.003,0.037,0.001,0.076-0.005,0.117l-0.604,2.236h1.69l-0.123,0.698h-1.769l-1.89,6.89
		c-0.035,0.123-0.024,0.24,0.031,0.354s0.147,0.169,0.277,0.169c0.178,0,0.428-0.178,0.749-0.533
		c0.185-0.191,0.496-0.571,0.934-1.138l0.267,0.153l-0.144,0.216c-0.589,0.881-1.107,1.495-1.556,1.84
		c-0.449,0.346-0.875,0.518-1.279,0.518c-0.35,0-0.603-0.092-0.76-0.276c-0.158-0.185-0.236-0.394-0.236-0.625
		C117.898,88.427,117.902,88.363,117.909,88.291z"/>
	<path d="M127.712,79.863c0.037,0.023,0.052,0.053,0.046,0.086l-2.07,7.322c-0.096,0.389-0.144,0.621-0.144,0.697
		c0,0.102,0.021,0.191,0.062,0.266c0.034,0.082,0.119,0.123,0.256,0.123c0.232,0,0.54-0.201,0.923-0.604
		c0.226-0.239,0.502-0.581,0.831-1.025l0.267,0.226l-0.103,0.144c-0.513,0.718-0.937,1.233-1.271,1.548
		c-0.526,0.492-1.04,0.738-1.538,0.738c-0.294,0-0.539-0.123-0.733-0.369s-0.292-0.536-0.292-0.871c0-0.198,0.014-0.371,0.041-0.518
		c0.027-0.146,0.078-0.364,0.154-0.651l1.459-5.271c0.021-0.082,0.038-0.157,0.051-0.226s0.021-0.137,0.021-0.205
		c0-0.246-0.09-0.397-0.271-0.456c-0.181-0.059-0.538-0.088-1.07-0.088v-0.338c0.563-0.068,0.968-0.121,1.216-0.158
		c0.248-0.038,0.497-0.078,0.748-0.119c0.326-0.055,0.634-0.115,0.926-0.184S127.675,79.839,127.712,79.863z M126.744,77.294
		c-0.198-0.219-0.297-0.481-0.297-0.79c0-0.314,0.099-0.58,0.297-0.799s0.438-0.328,0.718-0.328s0.521,0.109,0.723,0.328
		s0.303,0.484,0.303,0.799s-0.101,0.58-0.303,0.795s-0.442,0.323-0.723,0.323S126.942,77.513,126.744,77.294z"/>
	<path d="M137.89,80.775c0.472,0.611,0.708,1.334,0.708,2.168c0,1.449-0.639,2.871-1.917,4.266
		c-1.319,1.449-2.728,2.174-4.225,2.174c-0.943,0-1.699-0.273-2.266-0.82s-0.851-1.315-0.851-2.307c0-1.497,0.636-2.93,1.907-4.297
		c1.299-1.4,2.704-2.102,4.214-2.102C136.608,79.857,137.418,80.164,137.89,80.775z M131.538,88.363
		c0.284,0.373,0.699,0.559,1.246,0.559c1.114,0,2.102-0.841,2.963-2.522c0.731-1.442,1.097-2.769,1.097-3.979
		c0-0.513-0.062-0.927-0.185-1.241c-0.239-0.594-0.677-0.892-1.312-0.892c-1.046,0-2.027,0.782-2.943,2.349
		c-0.861,1.463-1.292,2.901-1.292,4.316C131.112,87.521,131.254,87.99,131.538,88.363z"/>
	<path d="M139.664,89.158l1.755-6.338c0.15-0.535,0.238-0.86,0.262-0.974s0.036-0.235,0.036-0.366c0-0.199-0.056-0.355-0.169-0.469
		s-0.333-0.17-0.662-0.17c-0.082,0-0.162,0.006-0.241,0.016s-0.166,0.021-0.262,0.035v-0.338c0.441-0.068,0.755-0.119,0.942-0.154
		c0.187-0.033,0.389-0.074,0.606-0.123l1.823-0.399c0.041,0.027,0.068,0.058,0.082,0.093l-1.359,4.408
		c0.84-1.277,1.542-2.229,2.106-2.85c0.991-1.102,1.879-1.651,2.664-1.651c0.303,0,0.564,0.058,0.785,0.175
		c0.419,0.225,0.628,0.632,0.628,1.22c0,0.164-0.017,0.335-0.051,0.513s-0.079,0.369-0.134,0.574l-1.35,4.912
		c-0.027,0.102-0.058,0.227-0.092,0.373c-0.034,0.148-0.052,0.252-0.052,0.313c0,0.103,0.024,0.194,0.072,0.276
		s0.124,0.123,0.229,0.123c0.171,0,0.367-0.104,0.59-0.312c0.224-0.208,0.587-0.654,1.092-1.338l0.297,0.267
		c-0.549,0.759-0.984,1.292-1.307,1.6c-0.55,0.54-1.076,0.81-1.578,0.81c-0.229,0-0.448-0.076-0.66-0.23s-0.317-0.432-0.317-0.836
		c0-0.115,0.009-0.238,0.025-0.369c0.018-0.129,0.04-0.242,0.067-0.338l1.309-4.983c0.067-0.273,0.114-0.497,0.138-0.671
		c0.024-0.176,0.036-0.3,0.036-0.375c0-0.164-0.04-0.306-0.118-0.426c-0.079-0.119-0.219-0.18-0.42-0.18
		c-0.519,0-1.174,0.465-1.962,1.394c-0.464,0.554-0.935,1.212-1.413,1.978c-0.357,0.594-0.638,1.173-0.843,1.736
		c-0.206,0.562-0.532,1.588-0.979,3.076H139.664z"/>
	<path d="M150.8,88.809l0.697-0.01c0.457-0.055,0.823-0.155,1.097-0.303c0.273-0.146,0.462-0.401,0.563-0.764l2.863-10.336
		c0.048-0.171,0.083-0.316,0.107-0.436c0.023-0.119,0.036-0.228,0.036-0.323c0-0.239-0.079-0.399-0.236-0.481
		s-0.406-0.123-0.748-0.123l-1.005,0.051v-0.318l0.266-0.041c0.191-0.033,0.699-0.133,1.522-0.297s1.409-0.283,1.758-0.359
		l0.317-0.071l0.194-0.03l0.123,0.071c0,0.041-0.001,0.082-0.005,0.123s-0.012,0.082-0.025,0.123l-3.415,12.562
		c-0.014,0.055-0.025,0.109-0.036,0.164c-0.01,0.055-0.016,0.109-0.016,0.164c0,0.279,0.123,0.457,0.369,0.533
		c0.246,0.074,0.722,0.123,1.426,0.143v0.309H150.8V88.809z"/>
</g>
<g>
	<path d="M419.21,80.103c0.329,0.226,0.494,0.597,0.494,1.114c0,0.232-0.056,0.555-0.169,0.967s-0.316,1.078-0.611,1.994
		c0.762-1.16,1.416-2.044,1.965-2.652c0.994-1.099,1.872-1.648,2.633-1.648c0.322,0,0.617,0.109,0.885,0.328
		c0.268,0.217,0.4,0.568,0.4,1.052c0,0.15-0.064,0.515-0.194,1.094l-1.613,5.597c-0.027,0.088-0.017,0.179,0.03,0.271
		c0.048,0.092,0.137,0.139,0.268,0.139c0.123,0,0.23-0.031,0.322-0.092c0.093-0.062,0.211-0.165,0.354-0.309
		c0.137-0.137,0.248-0.257,0.334-0.359c0.086-0.104,0.33-0.4,0.733-0.895l0.317,0.246l-0.102,0.145
		c-0.493,0.697-0.988,1.254-1.488,1.668c-0.499,0.414-0.991,0.621-1.477,0.621c-0.219,0-0.404-0.055-0.555-0.164
		c-0.232-0.178-0.348-0.476-0.348-0.893c0-0.103,0.008-0.212,0.025-0.328c0.017-0.117,0.042-0.246,0.076-0.391l1.593-5.75
		c0.021-0.082,0.036-0.15,0.046-0.205c0.011-0.055,0.016-0.109,0.016-0.164c0-0.164-0.043-0.291-0.13-0.381
		c-0.087-0.088-0.196-0.133-0.329-0.133c-0.469,0-1.013,0.346-1.635,1.037c-0.621,0.691-1.162,1.393-1.623,2.104
		c-0.418,0.726-0.713,1.333-0.885,1.822c-0.171,0.489-0.483,1.562-0.938,3.219h-1.594l2.053-7.3c0.014-0.061,0.025-0.121,0.036-0.18
		c0.011-0.058,0.015-0.117,0.015-0.18c0-0.164-0.035-0.293-0.109-0.385c-0.072-0.092-0.193-0.139-0.361-0.139
		c-0.439,0-0.984,0.359-1.631,1.078s-1.176,1.391-1.588,2.014c-0.406,0.608-0.795,1.42-1.165,2.434
		c-0.217,0.615-0.505,1.501-0.864,2.657h-1.574l1.977-7.29c0.021-0.076,0.037-0.148,0.052-0.219
		c0.013-0.068,0.021-0.141,0.021-0.217c0-0.27-0.092-0.432-0.277-0.486c-0.184-0.056-0.54-0.073-1.066-0.053v-0.338
		c0.688-0.109,1.801-0.336,3.338-0.678l0.082,0.072l-1.162,4.197c0.77-1.111,1.498-2.039,2.186-2.785
		c0.944-0.989,1.777-1.484,2.5-1.484C418.748,79.877,418.994,79.953,419.21,80.103z"/>
	<path d="M428.455,82.028c1.354-1.42,2.751-2.13,4.193-2.13c0.533,0,0.957,0.123,1.271,0.368s0.472,0.61,0.472,1.095
		c0,0.982-0.576,1.824-1.728,2.523c-1.152,0.699-2.363,1.127-3.635,1.283l-0.585,0.072c-0.089,0.28-0.15,0.504-0.185,0.672
		s-0.051,0.377-0.051,0.631c0,0.602,0.195,1.069,0.59,1.404c0.393,0.335,0.859,0.502,1.398,0.502c0.514,0,1.057-0.17,1.631-0.512
		c0.328-0.199,0.803-0.555,1.426-1.066l0.266,0.235c-0.307,0.39-0.748,0.79-1.322,1.2c-1.019,0.73-2.041,1.097-3.066,1.097
		c-0.725,0-1.359-0.256-1.906-0.769c-0.547-0.512-0.82-1.246-0.82-2.201C426.404,84.917,427.088,83.449,428.455,82.028z
		 M431.777,83.402c0.82-0.726,1.23-1.447,1.23-2.163c0-0.259-0.062-0.466-0.186-0.618c-0.123-0.154-0.304-0.23-0.543-0.23
		c-0.444,0-0.881,0.189-1.307,0.567c-0.428,0.378-0.812,0.806-1.154,1.284c-0.362,0.559-0.649,1.094-0.861,1.605
		c-0.116,0.273-0.239,0.584-0.369,0.932C429.894,84.588,430.957,84.129,431.777,83.402z"/>
	<path d="M435.447,89.157l1.756-6.337c0.15-0.536,0.237-0.861,0.262-0.975c0.023-0.113,0.035-0.234,0.035-0.365
		c0-0.199-0.057-0.355-0.169-0.469s-0.333-0.17-0.661-0.17c-0.082,0-0.162,0.005-0.241,0.015c-0.079,0.011-0.166,0.022-0.262,0.036
		v-0.338c0.441-0.068,0.755-0.12,0.942-0.154c0.187-0.034,0.389-0.075,0.605-0.123l1.823-0.4c0.04,0.027,0.067,0.059,0.081,0.093
		l-1.359,4.409c0.84-1.278,1.542-2.229,2.107-2.851c0.99-1.101,1.879-1.651,2.663-1.651c0.303,0,0.564,0.059,0.784,0.175
		c0.42,0.226,0.629,0.632,0.629,1.22c0,0.164-0.018,0.336-0.051,0.514c-0.035,0.178-0.079,0.369-0.133,0.574l-1.35,4.911
		c-0.027,0.103-0.059,0.228-0.093,0.374c-0.034,0.147-0.052,0.252-0.052,0.312c0,0.104,0.024,0.195,0.072,0.277
		s0.124,0.123,0.229,0.123c0.171,0,0.367-0.104,0.59-0.312s0.587-0.654,1.092-1.338l0.297,0.266c-0.549,0.76-0.984,1.293-1.307,1.6
		c-0.55,0.541-1.076,0.811-1.578,0.811c-0.229,0-0.448-0.077-0.66-0.23c-0.211-0.154-0.317-0.433-0.317-0.836
		c0-0.116,0.009-0.239,0.026-0.369c0.017-0.13,0.039-0.242,0.066-0.338l1.309-4.984c0.068-0.273,0.113-0.497,0.139-0.671
		c0.023-0.175,0.035-0.3,0.035-0.374c0-0.164-0.039-0.307-0.118-0.426s-0.219-0.18-0.419-0.18c-0.52,0-1.174,0.465-1.963,1.393
		c-0.465,0.554-0.936,1.213-1.413,1.978c-0.356,0.595-0.638,1.173-0.843,1.736c-0.206,0.563-0.533,1.589-0.98,3.076H435.447z"/>
	<path d="M446.361,88.291c0.007-0.072,0.021-0.145,0.041-0.221l1.982-7.156h-1.559c0-0.184,0.014-0.301,0.041-0.349
		s0.096-0.096,0.206-0.144c0.694-0.295,1.233-0.58,1.614-0.855c0.382-0.273,0.902-0.803,1.562-1.585l0.164-0.195
		c0.021-0.027,0.047-0.05,0.078-0.067c0.03-0.017,0.062-0.025,0.097-0.025c0.068,0.014,0.116,0.027,0.144,0.041
		c0.021,0.048,0.032,0.091,0.036,0.128c0.003,0.038,0.001,0.077-0.005,0.118l-0.604,2.235h1.689l-0.123,0.698h-1.768l-1.891,6.891
		c-0.034,0.123-0.023,0.24,0.031,0.354c0.055,0.112,0.146,0.168,0.277,0.168c0.178,0,0.428-0.178,0.748-0.533
		c0.186-0.191,0.496-0.57,0.935-1.138l0.267,0.153l-0.145,0.216c-0.588,0.882-1.107,1.495-1.555,1.841
		c-0.449,0.345-0.875,0.518-1.279,0.518c-0.35,0-0.604-0.092-0.76-0.277c-0.158-0.184-0.236-0.393-0.236-0.625
		C446.352,88.426,446.354,88.363,446.361,88.291z"/>
	<path d="M456.165,79.862c0.037,0.024,0.052,0.053,0.046,0.087l-2.07,7.321c-0.096,0.39-0.144,0.622-0.144,0.697
		c0,0.103,0.021,0.191,0.062,0.267c0.034,0.082,0.119,0.123,0.256,0.123c0.232,0,0.541-0.201,0.924-0.605
		c0.225-0.238,0.502-0.58,0.83-1.025l0.267,0.227l-0.103,0.143c-0.513,0.719-0.937,1.234-1.271,1.549
		c-0.526,0.492-1.039,0.738-1.538,0.738c-0.294,0-0.538-0.123-0.733-0.369s-0.292-0.537-0.292-0.871
		c0-0.199,0.014-0.371,0.041-0.519c0.026-0.146,0.078-0.364,0.153-0.651l1.46-5.27c0.021-0.082,0.038-0.158,0.052-0.227
		s0.02-0.137,0.02-0.205c0-0.246-0.09-0.397-0.271-0.456c-0.18-0.058-0.537-0.087-1.07-0.087v-0.338
		c0.564-0.068,0.969-0.121,1.217-0.159s0.496-0.077,0.748-0.118c0.325-0.055,0.634-0.116,0.926-0.185
		C455.963,79.86,456.127,79.838,456.165,79.862z M455.197,77.293c-0.199-0.219-0.298-0.481-0.298-0.789
		c0-0.314,0.099-0.581,0.298-0.8c0.197-0.219,0.438-0.328,0.717-0.328c0.281,0,0.521,0.109,0.723,0.328
		c0.202,0.219,0.303,0.485,0.303,0.8s-0.101,0.579-0.303,0.795c-0.201,0.215-0.441,0.322-0.723,0.322
		C455.635,77.621,455.395,77.512,455.197,77.293z"/>
	<path d="M466.343,80.774c0.472,0.612,0.707,1.335,0.707,2.169c0,1.449-0.639,2.871-1.917,4.266
		c-1.319,1.449-2.728,2.174-4.225,2.174c-0.943,0-1.699-0.273-2.266-0.82c-0.568-0.547-0.852-1.316-0.852-2.307
		c0-1.498,0.636-2.93,1.907-4.297c1.299-1.401,2.704-2.102,4.214-2.102C465.061,79.857,465.871,80.163,466.343,80.774z
		 M459.99,88.362c0.283,0.373,0.699,0.56,1.246,0.56c1.114,0,2.102-0.842,2.963-2.523c0.732-1.441,1.098-2.768,1.098-3.979
		c0-0.512-0.062-0.926-0.185-1.24c-0.239-0.595-0.677-0.893-1.312-0.893c-1.046,0-2.026,0.783-2.942,2.349
		c-0.861,1.463-1.293,2.901-1.293,4.317C459.564,87.52,459.707,87.99,459.99,88.362z"/>
	<path d="M468.116,89.157l1.756-6.337c0.15-0.536,0.237-0.861,0.261-0.975c0.024-0.113,0.036-0.234,0.036-0.365
		c0-0.199-0.057-0.355-0.169-0.469c-0.113-0.113-0.333-0.17-0.661-0.17c-0.082,0-0.163,0.005-0.241,0.015
		c-0.079,0.011-0.166,0.022-0.262,0.036v-0.338c0.441-0.068,0.756-0.12,0.942-0.154s0.389-0.075,0.605-0.123l1.823-0.4
		c0.041,0.027,0.067,0.059,0.081,0.093l-1.359,4.409c0.84-1.278,1.542-2.229,2.106-2.851c0.991-1.101,1.88-1.651,2.664-1.651
		c0.303,0,0.564,0.059,0.785,0.175c0.419,0.226,0.628,0.632,0.628,1.22c0,0.164-0.017,0.336-0.051,0.514s-0.079,0.369-0.134,0.574
		l-1.35,4.911c-0.027,0.103-0.058,0.228-0.092,0.374c-0.034,0.147-0.052,0.252-0.052,0.312c0,0.104,0.024,0.195,0.072,0.277
		s0.124,0.123,0.229,0.123c0.171,0,0.367-0.104,0.59-0.312c0.224-0.209,0.587-0.654,1.092-1.338l0.297,0.266
		c-0.549,0.76-0.984,1.293-1.307,1.6c-0.55,0.541-1.076,0.811-1.578,0.811c-0.229,0-0.448-0.077-0.66-0.23
		c-0.212-0.154-0.317-0.433-0.317-0.836c0-0.116,0.009-0.239,0.025-0.369c0.018-0.13,0.04-0.242,0.067-0.338l1.309-4.984
		c0.067-0.273,0.114-0.497,0.138-0.671c0.024-0.175,0.036-0.3,0.036-0.374c0-0.164-0.04-0.307-0.118-0.426
		c-0.079-0.119-0.219-0.18-0.42-0.18c-0.519,0-1.173,0.465-1.963,1.393c-0.464,0.554-0.935,1.213-1.412,1.978
		c-0.357,0.595-0.638,1.173-0.844,1.736c-0.205,0.563-0.531,1.589-0.979,3.076H468.116z"/>
	<path d="M478.474,88.799l4.43-4.697c0.758-0.799,1.363-1.518,1.814-2.152c0.8-1.121,1.199-2.072,1.199-2.852
		c0-0.725-0.233-1.34-0.702-1.846c-0.468-0.506-1.109-0.758-1.923-0.758c-0.766,0-1.436,0.256-2.01,0.769
		c-0.307,0.28-0.618,0.684-0.933,1.21l-0.44-0.154c0.525-1.422,1.354-2.406,2.48-2.953c0.588-0.279,1.214-0.42,1.877-0.42
		c1.073,0,1.919,0.365,2.538,1.098c0.618,0.73,0.928,1.545,0.928,2.439c0,0.779-0.23,1.515-0.69,2.205
		c-0.461,0.69-1.24,1.604-2.34,2.738l-3.914,4.039v0.093h3.842c0.561,0,0.977-0.093,1.25-0.276c0.273-0.186,0.528-0.53,0.766-1.036
		l0.338,0.144l-1.045,2.769h-7.465V88.799z"/>
</g>
<g>
	<polygon points="406.091,77.602 209.572,77.602 209.572,68.128 210.572,68.128 210.572,76.602 405.091,76.602 405.091,68.128 
		406.091,68.128 406.091,77.602 	"/>
</g>
<g>
	<path d="M289.609,85.863c0.037,0.023,0.052,0.053,0.046,0.086l-2.07,7.322c-0.096,0.389-0.144,0.621-0.144,0.697
		c0,0.102,0.021,0.191,0.062,0.266c0.034,0.082,0.119,0.123,0.256,0.123c0.232,0,0.54-0.201,0.923-0.604
		c0.226-0.239,0.502-0.581,0.831-1.025l0.267,0.226l-0.103,0.144c-0.513,0.718-0.937,1.233-1.271,1.548
		c-0.526,0.492-1.04,0.738-1.538,0.738c-0.294,0-0.539-0.123-0.733-0.369s-0.292-0.536-0.292-0.871c0-0.198,0.014-0.371,0.041-0.518
		c0.027-0.146,0.078-0.364,0.154-0.651l1.459-5.271c0.021-0.082,0.038-0.157,0.051-0.226s0.021-0.137,0.021-0.205
		c0-0.246-0.09-0.397-0.271-0.456c-0.181-0.059-0.538-0.088-1.07-0.088v-0.338c0.563-0.068,0.968-0.121,1.216-0.158
		c0.248-0.038,0.497-0.078,0.748-0.119c0.326-0.055,0.634-0.115,0.926-0.184S289.571,85.839,289.609,85.863z M288.641,83.294
		c-0.198-0.219-0.297-0.481-0.297-0.79c0-0.314,0.099-0.58,0.297-0.799s0.438-0.328,0.718-0.328s0.521,0.109,0.723,0.328
		s0.303,0.484,0.303,0.799s-0.101,0.58-0.303,0.795s-0.442,0.323-0.723,0.323S288.839,83.513,288.641,83.294z"/>
	<path d="M291.061,95.158l1.755-6.338c0.15-0.535,0.238-0.86,0.262-0.974s0.036-0.235,0.036-0.366c0-0.199-0.056-0.355-0.169-0.469
		s-0.333-0.17-0.662-0.17c-0.082,0-0.162,0.006-0.241,0.016s-0.166,0.021-0.262,0.035v-0.338c0.441-0.068,0.755-0.119,0.942-0.154
		c0.187-0.033,0.389-0.074,0.606-0.123l1.823-0.399c0.041,0.027,0.068,0.058,0.082,0.093l-1.359,4.408
		c0.84-1.277,1.542-2.229,2.106-2.85c0.991-1.102,1.879-1.651,2.664-1.651c0.303,0,0.564,0.058,0.785,0.175
		c0.419,0.225,0.629,0.632,0.629,1.22c0,0.164-0.018,0.335-0.051,0.513c-0.035,0.178-0.079,0.369-0.133,0.574l-1.35,4.912
		c-0.027,0.102-0.058,0.227-0.092,0.373c-0.034,0.148-0.051,0.252-0.051,0.313c0,0.103,0.024,0.194,0.072,0.276
		s0.124,0.123,0.229,0.123c0.17,0,0.367-0.104,0.59-0.312c0.223-0.208,0.586-0.654,1.091-1.338l0.297,0.267
		c-0.55,0.759-0.985,1.292-1.307,1.6c-0.55,0.54-1.076,0.81-1.579,0.81c-0.228,0-0.448-0.076-0.659-0.23
		c-0.212-0.154-0.318-0.432-0.318-0.836c0-0.115,0.009-0.238,0.026-0.369c0.017-0.129,0.039-0.242,0.066-0.338l1.309-4.983
		c0.068-0.273,0.114-0.497,0.139-0.671c0.023-0.176,0.036-0.3,0.036-0.375c0-0.164-0.04-0.306-0.118-0.426
		c-0.079-0.119-0.219-0.18-0.419-0.18c-0.52,0-1.174,0.465-1.963,1.394c-0.464,0.554-0.935,1.212-1.413,1.978
		c-0.357,0.594-0.638,1.173-0.843,1.736c-0.206,0.562-0.532,1.588-0.979,3.076H291.061z"/>
	<path d="M301.561,95.158l1.755-6.338c0.15-0.535,0.238-0.86,0.262-0.974s0.036-0.235,0.036-0.366c0-0.199-0.056-0.355-0.169-0.469
		s-0.333-0.17-0.662-0.17c-0.082,0-0.162,0.006-0.241,0.016s-0.166,0.021-0.262,0.035v-0.338c0.441-0.068,0.755-0.119,0.942-0.154
		c0.187-0.033,0.389-0.074,0.606-0.123l1.823-0.399c0.041,0.027,0.068,0.058,0.082,0.093l-1.359,4.408
		c0.84-1.277,1.542-2.229,2.106-2.85c0.991-1.102,1.879-1.651,2.664-1.651c0.303,0,0.564,0.058,0.785,0.175
		c0.419,0.225,0.629,0.632,0.629,1.22c0,0.164-0.018,0.335-0.051,0.513c-0.035,0.178-0.079,0.369-0.133,0.574l-1.35,4.912
		c-0.027,0.102-0.058,0.227-0.092,0.373c-0.034,0.148-0.051,0.252-0.051,0.313c0,0.103,0.024,0.194,0.072,0.276
		s0.124,0.123,0.229,0.123c0.17,0,0.367-0.104,0.59-0.312c0.223-0.208,0.586-0.654,1.091-1.338l0.297,0.267
		c-0.55,0.759-0.985,1.292-1.307,1.6c-0.55,0.54-1.076,0.81-1.579,0.81c-0.228,0-0.448-0.076-0.659-0.23
		c-0.212-0.154-0.318-0.432-0.318-0.836c0-0.115,0.009-0.238,0.026-0.369c0.017-0.129,0.039-0.242,0.066-0.338l1.309-4.983
		c0.068-0.273,0.114-0.497,0.139-0.671c0.023-0.176,0.036-0.3,0.036-0.375c0-0.164-0.04-0.306-0.118-0.426
		c-0.079-0.119-0.219-0.18-0.419-0.18c-0.52,0-1.174,0.465-1.963,1.394c-0.464,0.554-0.935,1.212-1.413,1.978
		c-0.357,0.594-0.638,1.173-0.843,1.736c-0.206,0.562-0.532,1.588-0.979,3.076H301.561z"/>
	<path d="M314.388,88.029c1.354-1.42,2.751-2.131,4.194-2.131c0.533,0,0.957,0.123,1.271,0.369c0.314,0.245,0.472,0.609,0.472,1.094
		c0,0.982-0.576,1.824-1.728,2.523s-2.363,1.127-3.635,1.284l-0.584,0.071c-0.089,0.281-0.15,0.505-0.185,0.672
		c-0.034,0.168-0.051,0.378-0.051,0.631c0,0.602,0.196,1.07,0.59,1.404c0.393,0.336,0.859,0.503,1.399,0.503
		c0.513,0,1.056-0.171,1.63-0.513c0.328-0.198,0.803-0.554,1.425-1.066l0.267,0.236c-0.308,0.389-0.749,0.789-1.323,1.199
		c-1.019,0.731-2.041,1.098-3.066,1.098c-0.725,0-1.36-0.256-1.907-0.769s-0.82-1.247-0.82-2.202
		C312.337,90.918,313.021,89.449,314.388,88.029z M317.71,89.403c0.82-0.726,1.23-1.447,1.23-2.163c0-0.26-0.062-0.466-0.185-0.619
		c-0.123-0.154-0.304-0.23-0.543-0.23c-0.444,0-0.88,0.189-1.307,0.568c-0.428,0.378-0.812,0.806-1.154,1.283
		c-0.362,0.56-0.649,1.095-0.861,1.606c-0.116,0.272-0.239,0.583-0.369,0.931C315.827,90.588,316.89,90.13,317.71,89.403z"/>
	<path d="M325.415,85.883c0.024,0.038,0.036,0.08,0.036,0.129c-0.006,0.068-0.013,0.121-0.019,0.156l-1.045,3.999l0.238-0.474
		c0.492-0.965,1.067-1.844,1.727-2.641s1.286-1.195,1.88-1.195c0.321,0,0.569,0.105,0.743,0.318
		c0.174,0.211,0.261,0.454,0.261,0.728c0,0.308-0.087,0.562-0.261,0.765c-0.174,0.201-0.414,0.302-0.721,0.302
		c-0.211,0-0.372-0.041-0.481-0.123c-0.109-0.082-0.194-0.178-0.255-0.287l-0.123-0.226c-0.027-0.041-0.06-0.073-0.097-0.098
		c-0.038-0.023-0.083-0.035-0.138-0.035c-0.267,0-0.652,0.372-1.155,1.117c-0.503,0.745-0.953,1.552-1.35,2.42
		c-0.239,0.527-0.506,1.225-0.8,2.092c-0.186,0.547-0.434,1.322-0.744,2.328h-1.574l1.709-6.174
		c0.096-0.355,0.172-0.673,0.231-0.953c0.058-0.28,0.087-0.51,0.087-0.688c0-0.205-0.051-0.361-0.154-0.471s-0.28-0.164-0.533-0.164
		c-0.082,0-0.185,0.006-0.308,0.02s-0.27,0.031-0.441,0.052v-0.339l0.41-0.082c0.534-0.109,1.117-0.225,1.75-0.348
		c0.632-0.123,0.966-0.186,1-0.186C325.348,85.826,325.391,85.846,325.415,85.883z"/>
</g>
</svg>
