<?xml version="1.0" encoding="utf-8"?>
<!-- Generator: Adobe Illustrator 14.0.0, SVG Export Plug-In . SVG Version: 6.00 Build 43363)  -->
<!DOCTYPE svg PUBLIC "-//W3C//DTD SVG 1.1//EN" "http://www.w3.org/Graphics/SVG/1.1/DTD/svg11.dtd">
<svg version="1.1" id="Layer_1" xmlns="http://www.w3.org/2000/svg" xmlns:xlink="http://www.w3.org/1999/xlink" x="0px" y="0px"
	 width="792px" height="89px" viewBox="0 0 792 89" enable-background="new 0 0 792 89" xml:space="preserve">
<g>
	<g>
		<rect x="30.268" y="52.458" fill="#1C75BC" width="175.998" height="24.242"/>
		<path fill="#175885" d="M206.766,77.2H29.768V51.958h176.998V77.2L206.766,77.2z M30.768,76.2h174.998V52.958H30.768V76.2
			L30.768,76.2z"/>
	</g>
	<g>
		<path fill="#FFFFFF" d="M37.858,66.301l2.953-0.287c0.178,0.992,0.538,1.719,1.082,2.184c0.543,0.465,1.276,0.697,2.199,0.697
			c0.978,0,1.714-0.206,2.21-0.62c0.495-0.414,0.743-0.897,0.743-1.451c0-0.355-0.104-0.658-0.312-0.907
			c-0.209-0.25-0.573-0.467-1.092-0.651c-0.355-0.123-1.166-0.342-2.43-0.656c-1.627-0.403-2.769-0.899-3.425-1.487
			c-0.923-0.827-1.384-1.835-1.384-3.025c0-0.766,0.217-1.481,0.651-2.148c0.434-0.666,1.06-1.174,1.877-1.522
			c0.816-0.349,1.803-0.523,2.958-0.523c1.887,0,3.307,0.414,4.261,1.241c0.953,0.827,1.454,1.931,1.502,3.312l-3.035,0.133
			c-0.13-0.772-0.409-1.328-0.836-1.666c-0.427-0.339-1.068-0.508-1.922-0.508c-0.882,0-1.572,0.181-2.071,0.543
			c-0.321,0.232-0.482,0.543-0.482,0.933c0,0.355,0.15,0.66,0.451,0.913c0.383,0.321,1.312,0.656,2.789,1.005
			s2.568,0.709,3.276,1.082c0.707,0.373,1.261,0.882,1.661,1.528c0.399,0.646,0.6,1.444,0.6,2.394c0,0.862-0.239,1.668-0.718,2.42
			s-1.155,1.311-2.03,1.676s-1.965,0.549-3.271,0.549c-1.9,0-3.36-0.439-4.378-1.317S38.057,67.982,37.858,66.301z"/>
		<path fill="#FFFFFF" d="M57.607,60.303V62.6h-1.969v4.389c0,0.889,0.019,1.406,0.057,1.554c0.037,0.147,0.123,0.269,0.256,0.364
			c0.134,0.096,0.296,0.143,0.487,0.143c0.267,0,0.653-0.092,1.159-0.276l0.246,2.235c-0.67,0.287-1.429,0.431-2.276,0.431
			c-0.52,0-0.988-0.087-1.405-0.262c-0.417-0.174-0.723-0.399-0.918-0.677c-0.194-0.276-0.33-0.65-0.405-1.123
			c-0.062-0.334-0.092-1.012-0.092-2.029V62.6h-1.323v-2.297h1.323v-2.164l2.892-1.682v3.845H57.607z"/>
		<path fill="#FFFFFF" d="M65.913,67.727l2.871,0.482c-0.369,1.053-0.952,1.854-1.748,2.404c-0.797,0.551-1.793,0.825-2.989,0.825
			c-1.894,0-3.295-0.618-4.204-1.856c-0.718-0.99-1.077-2.242-1.077-3.752c0-1.805,0.472-3.218,1.415-4.24s2.136-1.533,3.579-1.533
			c1.62,0,2.898,0.535,3.835,1.604c0.937,1.07,1.384,2.709,1.343,4.917h-7.219c0.021,0.854,0.253,1.52,0.697,1.994
			c0.444,0.476,0.998,0.713,1.661,0.713c0.451,0,0.831-0.123,1.138-0.369S65.756,68.273,65.913,67.727z M66.077,64.814
			c-0.021-0.834-0.236-1.468-0.646-1.902c-0.41-0.434-0.909-0.651-1.497-0.651c-0.629,0-1.148,0.229-1.559,0.687
			s-0.612,1.08-0.605,1.866H66.077z"/>
		<path fill="#FFFFFF" d="M71.204,60.303h2.687v1.6c0.349-0.547,0.82-0.991,1.415-1.333s1.254-0.513,1.979-0.513
			c1.265,0,2.338,0.496,3.22,1.487s1.323,2.372,1.323,4.143c0,1.818-0.444,3.232-1.333,4.24c-0.889,1.009-1.965,1.513-3.23,1.513
			c-0.602,0-1.147-0.12-1.636-0.358c-0.489-0.24-1.003-0.65-1.543-1.23v5.485h-2.881V60.303z M74.055,65.563
			c0,1.224,0.243,2.127,0.728,2.712c0.485,0.584,1.077,0.877,1.774,0.877c0.67,0,1.227-0.269,1.671-0.806
			c0.444-0.536,0.667-1.417,0.667-2.64c0-1.142-0.229-1.989-0.687-2.543s-1.025-0.831-1.702-0.831c-0.704,0-1.289,0.271-1.753,0.815
			C74.287,63.691,74.055,64.497,74.055,65.563z"/>
		<path fill="#FFFFFF" d="M86.985,56.16v5.527c0.93-1.087,2.041-1.63,3.333-1.63c0.663,0,1.261,0.123,1.794,0.369
			s0.935,0.561,1.205,0.943s0.455,0.807,0.554,1.271s0.149,1.186,0.149,2.164v6.388h-2.881V65.44c0-1.142-0.055-1.866-0.164-2.174
			s-0.303-0.552-0.579-0.733c-0.277-0.181-0.624-0.272-1.041-0.272c-0.479,0-0.906,0.116-1.282,0.349s-0.651,0.583-0.826,1.051
			c-0.174,0.468-0.261,1.16-0.261,2.076v5.455h-2.881V56.16H86.985z"/>
		<path fill="#FFFFFF" d="M103.248,67.727l2.871,0.482c-0.369,1.053-0.952,1.854-1.748,2.404c-0.797,0.551-1.793,0.825-2.989,0.825
			c-1.894,0-3.295-0.618-4.204-1.856c-0.718-0.99-1.077-2.242-1.077-3.752c0-1.805,0.472-3.218,1.415-4.24s2.136-1.533,3.579-1.533
			c1.62,0,2.898,0.535,3.835,1.604c0.937,1.07,1.384,2.709,1.343,4.917h-7.219c0.021,0.854,0.253,1.52,0.697,1.994
			c0.444,0.476,0.998,0.713,1.661,0.713c0.451,0,0.831-0.123,1.138-0.369S103.09,68.273,103.248,67.727z M103.412,64.814
			c-0.021-0.834-0.236-1.468-0.646-1.902c-0.41-0.434-0.909-0.651-1.497-0.651c-0.629,0-1.148,0.229-1.559,0.687
			s-0.612,1.08-0.605,1.866H103.412z"/>
		<path fill="#FFFFFF" d="M118.526,71.192h-2.881v-5.558c0-1.176-0.062-1.936-0.185-2.281s-0.323-0.614-0.6-0.805
			c-0.277-0.191-0.61-0.287-1-0.287c-0.499,0-0.947,0.137-1.343,0.41s-0.668,0.636-0.815,1.087
			c-0.147,0.451-0.221,1.285-0.221,2.502v4.932H108.6v-10.89h2.676v1.6c0.95-1.23,2.146-1.846,3.589-1.846
			c0.636,0,1.217,0.115,1.743,0.344s0.924,0.521,1.194,0.876s0.458,0.759,0.564,1.21c0.105,0.451,0.159,1.097,0.159,1.938V71.192z"
			/>
		<path fill="#FFFFFF" d="M136.921,65.666l2.943,0.933c-0.451,1.641-1.202,2.859-2.251,3.655c-1.049,0.797-2.38,1.195-3.994,1.195
			c-1.996,0-3.637-0.683-4.922-2.046c-1.285-1.364-1.928-3.229-1.928-5.594c0-2.502,0.646-4.445,1.938-5.829
			c1.292-1.385,2.991-2.077,5.096-2.077c1.839,0,3.333,0.543,4.481,1.63c0.684,0.643,1.196,1.565,1.538,2.769l-3.004,0.718
			c-0.178-0.779-0.548-1.395-1.113-1.846c-0.563-0.451-1.249-0.677-2.056-0.677c-1.114,0-2.019,0.4-2.712,1.2
			c-0.694,0.8-1.041,2.095-1.041,3.886c0,1.9,0.342,3.254,1.025,4.061s1.572,1.21,2.666,1.21c0.807,0,1.5-0.257,2.082-0.769
			C136.251,67.572,136.668,66.766,136.921,65.666z"/>
		<path fill="#FFFFFF" d="M141.782,65.594c0-0.957,0.236-1.883,0.708-2.779s1.14-1.579,2.004-2.051s1.831-0.708,2.897-0.708
			c1.647,0,2.998,0.535,4.05,1.604c1.053,1.07,1.579,2.422,1.579,4.056c0,1.647-0.532,3.014-1.595,4.097s-2.401,1.625-4.014,1.625
			c-0.998,0-1.95-0.226-2.856-0.677s-1.594-1.112-2.066-1.984C142.018,67.906,141.782,66.845,141.782,65.594z M144.735,65.748
			c0,1.08,0.256,1.907,0.769,2.481s1.145,0.861,1.897,0.861s1.382-0.287,1.892-0.861s0.764-1.408,0.764-2.501
			c0-1.066-0.255-1.887-0.764-2.461s-1.14-0.861-1.892-0.861s-1.384,0.287-1.897,0.861S144.735,64.667,144.735,65.748z"/>
		<path fill="#FFFFFF" d="M155.276,71.192V56.16h2.881v15.032H155.276z"/>
		<path fill="#FFFFFF" d="M160.987,71.192V56.16h2.881v5.414c0.889-1.012,1.941-1.518,3.158-1.518c1.326,0,2.423,0.48,3.292,1.44
			c0.868,0.961,1.302,2.34,1.302,4.138c0,1.859-0.443,3.291-1.328,4.297c-0.885,1.004-1.96,1.507-3.225,1.507
			c-0.622,0-1.235-0.155-1.841-0.467c-0.604-0.311-1.126-0.771-1.563-1.379v1.6H160.987z M163.848,65.512
			c0,1.128,0.178,1.962,0.533,2.502c0.499,0.766,1.162,1.148,1.989,1.148c0.636,0,1.177-0.271,1.625-0.815
			c0.448-0.543,0.672-1.399,0.672-2.568c0-1.244-0.226-2.141-0.677-2.691s-1.029-0.826-1.733-0.826c-0.69,0-1.265,0.269-1.723,0.805
			S163.848,64.418,163.848,65.512z"/>
		<path fill="#FFFFFF" d="M180.244,67.727l2.871,0.482c-0.369,1.053-0.952,1.854-1.748,2.404c-0.797,0.551-1.793,0.825-2.989,0.825
			c-1.894,0-3.295-0.618-4.204-1.856c-0.718-0.99-1.077-2.242-1.077-3.752c0-1.805,0.472-3.218,1.415-4.24s2.136-1.533,3.579-1.533
			c1.62,0,2.898,0.535,3.835,1.604c0.937,1.07,1.384,2.709,1.343,4.917h-7.219c0.021,0.854,0.253,1.52,0.697,1.994
			c0.444,0.476,0.998,0.713,1.661,0.713c0.451,0,0.831-0.123,1.138-0.369S180.087,68.273,180.244,67.727z M180.408,64.814
			c-0.021-0.834-0.236-1.468-0.646-1.902c-0.41-0.434-0.909-0.651-1.497-0.651c-0.629,0-1.148,0.229-1.559,0.687
			s-0.612,1.08-0.605,1.866H180.408z"/>
		<path fill="#FFFFFF" d="M188.375,71.192h-2.881v-10.89h2.676v1.548c0.458-0.731,0.87-1.213,1.235-1.446s0.781-0.349,1.246-0.349
			c0.656,0,1.289,0.181,1.897,0.543l-0.892,2.512c-0.485-0.314-0.937-0.472-1.354-0.472c-0.403,0-0.745,0.111-1.025,0.333
			c-0.28,0.223-0.501,0.624-0.661,1.205c-0.161,0.581-0.241,1.798-0.241,3.65V71.192z"/>
		<path fill="#FFFFFF" d="M198.783,60.303V62.6h-1.969v4.389c0,0.889,0.019,1.406,0.057,1.554c0.037,0.147,0.123,0.269,0.256,0.364
			c0.134,0.096,0.296,0.143,0.487,0.143c0.267,0,0.653-0.092,1.159-0.276l0.246,2.235c-0.67,0.287-1.429,0.431-2.276,0.431
			c-0.52,0-0.988-0.087-1.405-0.262c-0.417-0.174-0.723-0.399-0.918-0.677c-0.194-0.276-0.33-0.65-0.405-1.123
			c-0.062-0.334-0.092-1.012-0.092-2.029V62.6H192.6v-2.297h1.323v-2.164l2.892-1.682v3.845H198.783z"/>
	</g>
</g>
<g>
	<g>
		<rect x="410.052" y="52.899" fill="#1C75BC" width="74.1" height="24.242"/>
		<path fill="#175885" d="M484.651,77.642h-75.1V52.399h75.1V77.642L484.651,77.642z M410.552,76.642h73.1V53.399h-73.1V76.642
			L410.552,76.642z"/>
	</g>
	<g>
		<path fill="#FFFFFF" d="M414.973,71.635V56.603h11.146v2.543h-8.111v3.333h7.547v2.533h-7.547v4.091h8.398v2.533H414.973z"/>
		<path fill="#FFFFFF" d="M431.953,71.635l-4.389-10.89h3.025l2.051,5.558l0.594,1.855c0.158-0.471,0.257-0.782,0.298-0.933
			c0.096-0.308,0.198-0.615,0.308-0.923l2.071-5.558h2.964l-4.328,10.89H431.953z"/>
		<path fill="#FFFFFF" d="M446.944,68.169l2.871,0.481c-0.369,1.053-0.952,1.855-1.748,2.405c-0.797,0.55-1.793,0.825-2.989,0.825
			c-1.894,0-3.295-0.619-4.204-1.855c-0.718-0.992-1.077-2.242-1.077-3.753c0-1.805,0.473-3.218,1.416-4.24s2.136-1.533,3.578-1.533
			c1.62,0,2.898,0.535,3.835,1.604c0.937,1.07,1.384,2.709,1.343,4.917h-7.219c0.021,0.854,0.254,1.52,0.697,1.994
			c0.445,0.476,0.998,0.713,1.662,0.713c0.451,0,0.83-0.123,1.138-0.369S446.787,68.716,446.944,68.169z M447.108,65.257
			c-0.021-0.834-0.235-1.468-0.646-1.902c-0.41-0.434-0.91-0.651-1.498-0.651c-0.629,0-1.148,0.229-1.559,0.687
			s-0.611,1.08-0.604,1.866H447.108z"/>
		<path fill="#FFFFFF" d="M452.317,71.635V56.603h2.882v15.032H452.317z"/>
		<path fill="#FFFFFF" d="M456.788,60.745h3.065l2.605,7.731l2.543-7.731h2.983l-3.845,10.479l-0.688,1.896
			c-0.253,0.637-0.494,1.121-0.723,1.457c-0.229,0.334-0.492,0.605-0.79,0.814c-0.297,0.209-0.663,0.371-1.097,0.487
			c-0.435,0.116-0.925,0.175-1.472,0.175c-0.554,0-1.097-0.059-1.63-0.175l-0.257-2.256c0.451,0.089,0.858,0.134,1.22,0.134
			c0.67,0,1.166-0.197,1.487-0.59c0.321-0.394,0.567-0.895,0.738-1.502L456.788,60.745z"/>
		<path fill="#FFFFFF" d="M479.736,71.635h-2.881v-5.558c0-1.176-0.062-1.936-0.186-2.281s-0.322-0.614-0.6-0.805
			s-0.609-0.287-1-0.287c-0.498,0-0.946,0.137-1.343,0.41s-0.669,0.636-0.815,1.087s-0.221,1.285-0.221,2.502v4.932h-2.881v-10.89
			h2.676v1.6c0.951-1.23,2.146-1.846,3.59-1.846c0.635,0,1.217,0.115,1.742,0.344c0.527,0.229,0.925,0.521,1.195,0.876
			c0.27,0.355,0.457,0.759,0.564,1.21c0.105,0.451,0.158,1.097,0.158,1.938V71.635z"/>
	</g>
</g>
<g>
	<path d="M217.947,69.734c-0.684,0.582-1.342,0.992-1.974,1.23c-0.633,0.24-1.311,0.359-2.036,0.359
		c-1.196,0-2.116-0.292-2.758-0.877c-0.643-0.584-0.964-1.331-0.964-2.24c0-0.533,0.121-1.021,0.364-1.461
		c0.242-0.441,0.56-0.795,0.953-1.062s0.836-0.468,1.328-0.605c0.362-0.096,0.909-0.188,1.641-0.277
		c1.49-0.178,2.587-0.39,3.292-0.636c0.007-0.253,0.01-0.414,0.01-0.482c0-0.752-0.174-1.282-0.523-1.589
		c-0.472-0.417-1.172-0.625-2.102-0.625c-0.868,0-1.509,0.152-1.923,0.457s-0.719,0.842-0.917,1.615l-1.805-0.246
		c0.164-0.772,0.434-1.396,0.81-1.872c0.376-0.475,0.919-0.841,1.63-1.097c0.711-0.257,1.535-0.385,2.471-0.385
		c0.93,0,1.685,0.109,2.266,0.328s1.008,0.494,1.282,0.825c0.273,0.332,0.465,0.75,0.574,1.256c0.062,0.314,0.092,0.882,0.092,1.702
		v2.461c0,1.715,0.039,2.801,0.118,3.255c0.079,0.455,0.234,0.891,0.467,1.308h-1.928C218.125,70.695,218.001,70.248,217.947,69.734
		z M217.793,65.613c-0.67,0.273-1.675,0.506-3.015,0.697c-0.759,0.109-1.295,0.232-1.61,0.369s-0.557,0.336-0.728,0.6
		s-0.256,0.555-0.256,0.877c0,0.492,0.186,0.902,0.559,1.23s0.918,0.492,1.636,0.492c0.711,0,1.343-0.156,1.897-0.467
		s0.96-0.736,1.22-1.277c0.198-0.416,0.297-1.031,0.297-1.845V65.613z"/>
	<path d="M222.52,71.078v-10.89h1.661v1.548c0.8-1.196,1.955-1.794,3.466-1.794c0.656,0,1.259,0.118,1.81,0.354
		c0.55,0.236,0.962,0.545,1.235,0.928s0.465,0.837,0.574,1.364c0.068,0.342,0.103,0.94,0.103,1.794v6.696h-1.846v-6.624
		c0-0.752-0.072-1.314-0.215-1.687s-0.398-0.67-0.764-0.893c-0.366-0.222-0.794-0.333-1.287-0.333c-0.786,0-1.465,0.25-2.036,0.749
		s-0.856,1.446-0.856,2.84v5.947H222.52z"/>
	<path d="M241.264,71.078v-1.374c-0.69,1.08-1.706,1.62-3.045,1.62c-0.868,0-1.667-0.239-2.394-0.718
		c-0.729-0.479-1.292-1.146-1.692-2.005c-0.399-0.857-0.6-1.844-0.6-2.958c0-1.087,0.181-2.073,0.543-2.958s0.906-1.564,1.63-2.036
		s1.535-0.708,2.43-0.708c0.656,0,1.241,0.139,1.753,0.415c0.513,0.277,0.93,0.638,1.251,1.082v-5.394h1.835v15.032H241.264z
		 M235.43,65.644c0,1.395,0.294,2.437,0.882,3.128c0.588,0.689,1.282,1.035,2.082,1.035c0.807,0,1.492-0.33,2.056-0.989
		c0.564-0.659,0.846-1.667,0.846-3.02c0-1.49-0.287-2.584-0.861-3.281s-1.282-1.046-2.123-1.046c-0.82,0-1.506,0.335-2.056,1.005
		C235.705,63.145,235.43,64.201,235.43,65.644z"/>
	<path d="M251.713,71.078V56.046h1.846v5.394c0.861-0.998,1.948-1.497,3.261-1.497c0.807,0,1.507,0.159,2.102,0.477
		c0.595,0.318,1.021,0.757,1.276,1.318c0.257,0.561,0.385,1.374,0.385,2.44v6.901h-1.846v-6.901c0-0.923-0.2-1.594-0.6-2.015
		c-0.4-0.42-0.966-0.63-1.697-0.63c-0.547,0-1.062,0.142-1.543,0.425c-0.482,0.284-0.826,0.668-1.031,1.154s-0.308,1.155-0.308,2.01
		v5.958H251.713z"/>
	<path d="M263.402,58.168v-2.123h1.846v2.123H263.402z M263.402,71.078v-10.89h1.846v10.89H263.402z"/>
	<path d="M267.319,67.828l1.825-0.287c0.103,0.73,0.388,1.291,0.856,1.682c0.468,0.389,1.123,0.584,1.964,0.584
		c0.848,0,1.477-0.172,1.887-0.518s0.615-0.75,0.615-1.215c0-0.418-0.181-0.746-0.543-0.984c-0.253-0.165-0.882-0.373-1.887-0.626
		c-1.354-0.342-2.292-0.637-2.815-0.887c-0.522-0.25-0.919-0.595-1.189-1.036c-0.27-0.44-0.405-0.928-0.405-1.461
		c0-0.485,0.111-0.935,0.333-1.349c0.222-0.413,0.524-0.757,0.907-1.03c0.287-0.212,0.678-0.391,1.174-0.538
		s1.027-0.221,1.595-0.221c0.854,0,1.604,0.123,2.251,0.369c0.646,0.246,1.123,0.579,1.43,1c0.308,0.42,0.52,0.982,0.636,1.687
		l-1.805,0.246c-0.082-0.561-0.32-0.998-0.712-1.312c-0.394-0.314-0.949-0.472-1.667-0.472c-0.848,0-1.453,0.14-1.815,0.42
		s-0.543,0.608-0.543,0.984c0,0.239,0.075,0.455,0.226,0.646c0.15,0.198,0.386,0.362,0.708,0.492
		c0.185,0.068,0.728,0.226,1.63,0.472c1.306,0.349,2.216,0.634,2.733,0.856c0.516,0.222,0.921,0.545,1.215,0.969
		s0.441,0.95,0.441,1.579c0,0.615-0.179,1.194-0.539,1.738c-0.358,0.543-0.876,0.964-1.553,1.261
		c-0.677,0.298-1.442,0.446-2.297,0.446c-1.415,0-2.494-0.294-3.235-0.882C267.998,69.854,267.524,68.982,267.319,67.828z"/>
	<path d="M284.351,71.078V56.046h1.846v15.032H284.351z"/>
	<path d="M288.371,65.633c0-2.017,0.561-3.51,1.682-4.481c0.937-0.807,2.078-1.21,3.425-1.21c1.497,0,2.721,0.491,3.671,1.472
		s1.425,2.336,1.425,4.065c0,1.401-0.21,2.504-0.63,3.307c-0.421,0.804-1.033,1.427-1.836,1.872c-0.803,0.443-1.68,0.666-2.63,0.666
		c-1.524,0-2.757-0.488-3.696-1.467C288.84,68.881,288.371,67.473,288.371,65.633z M290.268,65.633c0,1.394,0.304,2.439,0.913,3.132
		c0.608,0.694,1.374,1.041,2.297,1.041c0.916,0,1.678-0.349,2.287-1.046s0.913-1.761,0.913-3.189c0-1.347-0.306-2.367-0.918-3.061
		c-0.612-0.693-1.372-1.041-2.281-1.041c-0.923,0-1.688,0.345-2.297,1.036S290.268,64.239,290.268,65.633z"/>
	<path d="M300.737,71.078v-10.89h1.661v1.548c0.8-1.196,1.955-1.794,3.466-1.794c0.656,0,1.259,0.118,1.81,0.354
		c0.55,0.236,0.962,0.545,1.235,0.928s0.465,0.837,0.574,1.364c0.068,0.342,0.103,0.94,0.103,1.794v6.696h-1.846v-6.624
		c0-0.752-0.072-1.314-0.215-1.687s-0.398-0.67-0.764-0.893c-0.366-0.222-0.794-0.333-1.287-0.333c-0.786,0-1.465,0.25-2.036,0.749
		s-0.856,1.446-0.856,2.84v5.947H300.737z"/>
	<path d="M312.078,71.98l1.794,0.267c0.075,0.554,0.284,0.957,0.625,1.21c0.458,0.342,1.083,0.513,1.876,0.513
		c0.854,0,1.514-0.171,1.979-0.513s0.779-0.82,0.943-1.436c0.096-0.376,0.14-1.166,0.133-2.369
		c-0.807,0.951-1.812,1.426-3.015,1.426c-1.497,0-2.656-0.54-3.476-1.62s-1.23-2.376-1.23-3.886c0-1.039,0.188-1.998,0.564-2.876
		c0.376-0.878,0.921-1.557,1.635-2.035s1.554-0.718,2.518-0.718c1.285,0,2.345,0.52,3.179,1.559v-1.312h1.702v9.413
		c0,1.695-0.173,2.896-0.518,3.604c-0.346,0.707-0.893,1.267-1.641,1.677c-0.749,0.41-1.67,0.615-2.764,0.615
		c-1.299,0-2.348-0.293-3.148-0.877C312.437,74.036,312.05,73.156,312.078,71.98z M313.605,65.438c0,1.429,0.284,2.472,0.851,3.128
		s1.278,0.984,2.133,0.984c0.848,0,1.559-0.326,2.133-0.979s0.861-1.677,0.861-3.071c0-1.333-0.296-2.338-0.887-3.015
		c-0.592-0.677-1.304-1.015-2.138-1.015c-0.82,0-1.518,0.333-2.092,1C313.893,63.137,313.605,64.126,313.605,65.438z"/>
	<path d="M328.125,69.428l0.267,1.63c-0.52,0.109-0.984,0.164-1.395,0.164c-0.67,0-1.189-0.106-1.559-0.317
		c-0.369-0.213-0.629-0.49-0.779-0.836s-0.226-1.072-0.226-2.18v-6.265h-1.354v-1.436h1.354v-2.697l1.835-1.107v3.804h1.856v1.436
		h-1.856v6.368c0,0.525,0.032,0.864,0.097,1.015s0.171,0.271,0.318,0.358c0.146,0.09,0.357,0.134,0.63,0.134
		C327.52,69.499,327.79,69.475,328.125,69.428z"/>
	<path d="M329.94,58.168v-2.123h1.846v2.123H329.94z M329.94,71.078v-10.89h1.846v10.89H329.94z"/>
	<path d="M334.595,71.078v-10.89h1.651v1.528c0.342-0.533,0.796-0.962,1.364-1.287s1.213-0.487,1.938-0.487
		c0.807,0,1.468,0.167,1.984,0.502c0.516,0.335,0.88,0.803,1.092,1.405c0.861-1.271,1.982-1.907,3.363-1.907
		c1.08,0,1.911,0.299,2.492,0.897s0.872,1.519,0.872,2.763v7.475h-1.835v-6.86c0-0.738-0.06-1.27-0.179-1.594
		c-0.12-0.325-0.337-0.586-0.651-0.785s-0.684-0.297-1.107-0.297c-0.766,0-1.401,0.255-1.907,0.764
		c-0.506,0.51-0.759,1.325-0.759,2.446v6.327h-1.846v-7.075c0-0.82-0.15-1.436-0.451-1.846s-0.793-0.615-1.477-0.615
		c-0.52,0-1,0.137-1.44,0.41c-0.441,0.273-0.761,0.673-0.959,1.2s-0.297,1.285-0.297,2.276v5.65H334.595z"/>
	<path d="M359.543,67.571l1.907,0.235c-0.301,1.115-0.858,1.979-1.671,2.595s-1.853,0.923-3.117,0.923
		c-1.593,0-2.856-0.49-3.789-1.472c-0.934-0.98-1.4-2.356-1.4-4.127c0-1.832,0.472-3.254,1.415-4.266s2.167-1.518,3.671-1.518
		c1.456,0,2.646,0.496,3.568,1.487s1.384,2.386,1.384,4.184c0,0.109-0.003,0.273-0.01,0.492h-8.121
		c0.068,1.196,0.407,2.112,1.015,2.749c0.608,0.635,1.367,0.953,2.276,0.953c0.677,0,1.254-0.178,1.733-0.533
		S359.263,68.351,359.543,67.571z M353.483,64.587h6.081c-0.082-0.916-0.314-1.603-0.697-2.061c-0.588-0.711-1.35-1.066-2.287-1.066
		c-0.848,0-1.561,0.284-2.138,0.851S353.544,63.637,353.483,64.587z"/>
	<path d="M371.612,71.078l-3.333-10.89h1.907l1.733,6.286l0.646,2.338c0.027-0.117,0.215-0.865,0.564-2.246l1.733-6.378h1.897
		l1.63,6.316l0.543,2.081l0.625-2.102l1.866-6.296h1.794l-3.404,10.89h-1.917l-1.733-6.521l-0.42-1.856l-2.205,8.377H371.612z"/>
	<path d="M384.778,58.168v-2.123h1.846v2.123H384.778z M384.778,71.078v-10.89h1.846v10.89H384.778z"/>
	<path d="M389.874,71.078v-9.454h-1.63v-1.436h1.63V59.03c0-0.731,0.065-1.275,0.195-1.63c0.178-0.479,0.49-0.866,0.938-1.164
		c0.448-0.297,1.075-0.446,1.882-0.446c0.52,0,1.094,0.062,1.723,0.185l-0.277,1.61c-0.383-0.068-0.745-0.103-1.087-0.103
		c-0.561,0-0.957,0.12-1.189,0.359s-0.349,0.687-0.349,1.343v1.005h2.123v1.436h-2.123v9.454H389.874z"/>
	<path d="M402.723,67.571l1.906,0.235c-0.301,1.115-0.857,1.979-1.671,2.595s-1.853,0.923-3.117,0.923
		c-1.593,0-2.856-0.49-3.789-1.472c-0.934-0.98-1.4-2.356-1.4-4.127c0-1.832,0.472-3.254,1.415-4.266s2.167-1.518,3.671-1.518
		c1.456,0,2.646,0.496,3.568,1.487s1.385,2.386,1.385,4.184c0,0.109-0.004,0.273-0.011,0.492h-8.121
		c0.068,1.196,0.407,2.112,1.015,2.749c0.609,0.635,1.367,0.953,2.277,0.953c0.676,0,1.254-0.178,1.732-0.533
		S402.441,68.351,402.723,67.571z M396.662,64.587h6.08c-0.082-0.916-0.314-1.603-0.697-2.061c-0.588-0.711-1.35-1.066-2.286-1.066
		c-0.848,0-1.561,0.284-2.138,0.851C397.043,62.878,396.724,63.637,396.662,64.587z"/>
	<path d="M488.64,58.168v-2.123h1.846v2.123H488.64z M488.64,71.078v-10.89h1.846v10.89H488.64z"/>
	<path d="M493.295,71.078v-10.89h1.661v1.548c0.8-1.196,1.955-1.794,3.466-1.794c0.656,0,1.26,0.118,1.811,0.354
		c0.549,0.236,0.961,0.545,1.234,0.928s0.465,0.837,0.574,1.364c0.068,0.342,0.104,0.94,0.104,1.794v6.696h-1.846v-6.624
		c0-0.752-0.072-1.314-0.216-1.687s-0.398-0.67-0.765-0.893c-0.365-0.222-0.794-0.333-1.286-0.333c-0.786,0-1.465,0.25-2.036,0.749
		c-0.57,0.499-0.855,1.446-0.855,2.84v5.947H493.295z"/>
	<path d="M517.914,69.734c-0.684,0.582-1.342,0.992-1.973,1.23c-0.633,0.24-1.312,0.359-2.036,0.359
		c-1.196,0-2.116-0.292-2.759-0.877c-0.643-0.584-0.963-1.331-0.963-2.24c0-0.533,0.121-1.021,0.363-1.461
		c0.242-0.441,0.561-0.795,0.953-1.062c0.394-0.267,0.836-0.468,1.328-0.605c0.363-0.096,0.91-0.188,1.641-0.277
		c1.49-0.178,2.588-0.39,3.292-0.636c0.007-0.253,0.011-0.414,0.011-0.482c0-0.752-0.175-1.282-0.523-1.589
		c-0.472-0.417-1.172-0.625-2.102-0.625c-0.869,0-1.51,0.152-1.924,0.457c-0.413,0.304-0.719,0.842-0.917,1.615l-1.805-0.246
		c0.164-0.772,0.435-1.396,0.81-1.872c0.377-0.475,0.92-0.841,1.631-1.097c0.711-0.257,1.535-0.385,2.471-0.385
		c0.93,0,1.686,0.109,2.267,0.328s1.009,0.494,1.282,0.825c0.273,0.332,0.465,0.75,0.574,1.256c0.061,0.314,0.092,0.882,0.092,1.702
		v2.461c0,1.715,0.039,2.801,0.117,3.255c0.079,0.455,0.234,0.891,0.467,1.308h-1.928C518.092,70.695,517.969,70.248,517.914,69.734
		z M517.761,65.613c-0.67,0.273-1.675,0.506-3.015,0.697c-0.759,0.109-1.295,0.232-1.609,0.369s-0.558,0.336-0.729,0.6
		s-0.256,0.555-0.256,0.877c0,0.492,0.186,0.902,0.559,1.23c0.372,0.328,0.918,0.492,1.635,0.492c0.711,0,1.344-0.156,1.897-0.467
		s0.96-0.736,1.22-1.277c0.199-0.416,0.298-1.031,0.298-1.845V65.613z"/>
	<path d="M528.322,75.252V60.188h1.682v1.415c0.396-0.554,0.844-0.969,1.344-1.246c0.498-0.276,1.104-0.415,1.814-0.415
		c0.93,0,1.75,0.239,2.461,0.718s1.248,1.153,1.609,2.025c0.363,0.871,0.544,1.827,0.544,2.866c0,1.114-0.2,2.118-0.601,3.009
		c-0.398,0.893-0.98,1.576-1.742,2.051c-0.763,0.475-1.564,0.713-2.404,0.713c-0.615,0-1.168-0.13-1.656-0.39
		c-0.489-0.26-0.891-0.588-1.205-0.984v5.302H528.322z M529.994,65.695c0,1.401,0.283,2.437,0.851,3.107s1.255,1.005,2.062,1.005
		c0.82,0,1.521-0.347,2.107-1.041c0.584-0.693,0.876-1.769,0.876-3.225c0-1.388-0.286-2.427-0.856-3.117s-1.252-1.036-2.045-1.036
		c-0.787,0-1.482,0.368-2.088,1.102C530.297,63.226,529.994,64.293,529.994,65.695z"/>
	<path d="M540.002,71.078V56.046h1.846v5.394c0.861-0.998,1.947-1.497,3.26-1.497c0.807,0,1.508,0.159,2.103,0.477
		c0.595,0.318,1.021,0.757,1.276,1.318c0.257,0.561,0.385,1.374,0.385,2.44v6.901h-1.846v-6.901c0-0.923-0.2-1.594-0.6-2.015
		c-0.4-0.42-0.966-0.63-1.697-0.63c-0.547,0-1.062,0.142-1.543,0.425c-0.482,0.284-0.826,0.668-1.031,1.154s-0.307,1.155-0.307,2.01
		v5.958H540.002z"/>
	<path d="M550.994,65.633c0-2.017,0.561-3.51,1.682-4.481c0.936-0.807,2.078-1.21,3.424-1.21c1.498,0,2.721,0.491,3.672,1.472
		c0.949,0.981,1.425,2.336,1.425,4.065c0,1.401-0.21,2.504-0.63,3.307c-0.422,0.804-1.033,1.427-1.836,1.872
		c-0.804,0.443-1.68,0.666-2.631,0.666c-1.523,0-2.756-0.488-3.695-1.467C551.463,68.881,550.994,67.473,550.994,65.633z
		 M552.891,65.633c0,1.394,0.305,2.439,0.912,3.132c0.609,0.694,1.375,1.041,2.297,1.041c0.916,0,1.679-0.349,2.287-1.046
		s0.912-1.761,0.912-3.189c0-1.347-0.306-2.367-0.918-3.061c-0.611-0.693-1.371-1.041-2.281-1.041c-0.922,0-1.688,0.345-2.297,1.036
		C553.195,63.196,552.891,64.239,552.891,65.633z"/>
	<path d="M567.39,69.428l0.267,1.63c-0.52,0.109-0.984,0.164-1.395,0.164c-0.67,0-1.189-0.106-1.559-0.317
		c-0.369-0.213-0.629-0.49-0.779-0.836s-0.226-1.072-0.226-2.18v-6.265h-1.354v-1.436h1.354v-2.697l1.835-1.107v3.804h1.856v1.436
		h-1.856v6.368c0,0.525,0.033,0.864,0.098,1.015s0.171,0.271,0.318,0.358c0.146,0.09,0.357,0.134,0.631,0.134
		C566.785,69.499,567.055,69.475,567.39,69.428z"/>
	<path d="M568.508,65.633c0-2.017,0.561-3.51,1.682-4.481c0.936-0.807,2.078-1.21,3.424-1.21c1.498,0,2.721,0.491,3.672,1.472
		c0.949,0.981,1.425,2.336,1.425,4.065c0,1.401-0.21,2.504-0.63,3.307c-0.422,0.804-1.033,1.427-1.836,1.872
		c-0.804,0.443-1.68,0.666-2.631,0.666c-1.523,0-2.756-0.488-3.695-1.467C568.977,68.881,568.508,67.473,568.508,65.633z
		 M570.404,65.633c0,1.394,0.305,2.439,0.912,3.132c0.609,0.694,1.375,1.041,2.297,1.041c0.916,0,1.679-0.349,2.287-1.046
		s0.912-1.761,0.912-3.189c0-1.347-0.306-2.367-0.918-3.061c-0.611-0.693-1.371-1.041-2.281-1.041c-0.922,0-1.688,0.345-2.297,1.036
		C570.709,63.196,570.404,64.239,570.404,65.633z"/>
	<path d="M587.148,71.078v-9.454h-1.63v-1.436h1.63V59.03c0-0.731,0.065-1.275,0.195-1.63c0.178-0.479,0.49-0.866,0.938-1.164
		c0.448-0.297,1.076-0.446,1.883-0.446c0.52,0,1.094,0.062,1.723,0.185l-0.277,1.61c-0.383-0.068-0.745-0.103-1.087-0.103
		c-0.561,0-0.957,0.12-1.189,0.359s-0.349,0.687-0.349,1.343v1.005h2.123v1.436h-2.123v9.454H587.148z"/>
	<path d="M592.521,71.078v-10.89h1.662v1.651c0.424-0.772,0.814-1.282,1.174-1.528c0.358-0.246,0.754-0.369,1.184-0.369
		c0.623,0,1.255,0.198,1.897,0.595l-0.636,1.712c-0.451-0.267-0.902-0.4-1.354-0.4c-0.403,0-0.766,0.122-1.087,0.364
		s-0.55,0.579-0.687,1.01c-0.205,0.656-0.309,1.374-0.309,2.153v5.701H592.521z"/>
	<path d="M598.849,65.633c0-2.017,0.561-3.51,1.682-4.481c0.937-0.807,2.078-1.21,3.425-1.21c1.497,0,2.721,0.491,3.671,1.472
		s1.425,2.336,1.425,4.065c0,1.401-0.21,2.504-0.63,3.307c-0.421,0.804-1.032,1.427-1.836,1.872c-0.804,0.443-1.68,0.666-2.63,0.666
		c-1.524,0-2.757-0.488-3.696-1.467C599.318,68.881,598.849,67.473,598.849,65.633z M600.746,65.633
		c0,1.394,0.304,2.439,0.912,3.132c0.608,0.694,1.374,1.041,2.297,1.041c0.916,0,1.678-0.349,2.287-1.046
		c0.607-0.697,0.912-1.761,0.912-3.189c0-1.347-0.307-2.367-0.918-3.061c-0.611-0.693-1.372-1.041-2.281-1.041
		c-0.923,0-1.688,0.345-2.297,1.036S600.746,64.239,600.746,65.633z"/>
	<path d="M611.215,71.078v-10.89h1.65v1.528c0.342-0.533,0.797-0.962,1.364-1.287s1.214-0.487,1.938-0.487
		c0.807,0,1.467,0.167,1.984,0.502c0.516,0.335,0.879,0.803,1.092,1.405c0.861-1.271,1.982-1.907,3.363-1.907
		c1.08,0,1.91,0.299,2.491,0.897s0.872,1.519,0.872,2.763v7.475h-1.836v-6.86c0-0.738-0.061-1.27-0.18-1.594
		s-0.336-0.586-0.65-0.785s-0.684-0.297-1.107-0.297c-0.766,0-1.402,0.255-1.908,0.764c-0.506,0.51-0.758,1.325-0.758,2.446v6.327
		h-1.846v-7.075c0-0.82-0.15-1.436-0.451-1.846s-0.793-0.615-1.477-0.615c-0.52,0-1,0.137-1.441,0.41s-0.76,0.673-0.959,1.2
		c-0.197,0.526-0.297,1.285-0.297,2.276v5.65H611.215z"/>
	<path d="M638.572,69.428l0.267,1.63c-0.52,0.109-0.984,0.164-1.395,0.164c-0.67,0-1.189-0.106-1.559-0.317
		c-0.369-0.213-0.629-0.49-0.779-0.836s-0.226-1.072-0.226-2.18v-6.265h-1.354v-1.436h1.354v-2.697l1.836-1.107v3.804h1.855v1.436
		h-1.855v6.368c0,0.525,0.031,0.864,0.097,1.015s0.171,0.271,0.318,0.358c0.146,0.09,0.356,0.134,0.63,0.134
		C637.967,69.499,638.237,69.475,638.572,69.428z"/>
	<path d="M640.377,71.078V56.046h1.846v5.394c0.861-0.998,1.948-1.497,3.261-1.497c0.807,0,1.507,0.159,2.103,0.477
		c0.594,0.318,1.02,0.757,1.275,1.318c0.258,0.561,0.385,1.374,0.385,2.44v6.901H647.4v-6.901c0-0.923-0.199-1.594-0.6-2.015
		c-0.4-0.42-0.965-0.63-1.697-0.63c-0.547,0-1.061,0.142-1.543,0.425c-0.482,0.284-0.825,0.668-1.03,1.154s-0.308,1.155-0.308,2.01
		v5.958H640.377z"/>
	<path d="M659.511,67.571l1.907,0.235c-0.301,1.115-0.857,1.979-1.672,2.595c-0.812,0.615-1.852,0.923-3.117,0.923
		c-1.592,0-2.855-0.49-3.788-1.472c-0.934-0.98-1.399-2.356-1.399-4.127c0-1.832,0.471-3.254,1.414-4.266s2.168-1.518,3.672-1.518
		c1.455,0,2.645,0.496,3.568,1.487c0.922,0.991,1.384,2.386,1.384,4.184c0,0.109-0.003,0.273-0.011,0.492h-8.121
		c0.068,1.196,0.407,2.112,1.016,2.749c0.608,0.635,1.367,0.953,2.276,0.953c0.677,0,1.255-0.178,1.733-0.533
		S659.23,68.351,659.511,67.571z M653.451,64.587h6.08c-0.082-0.916-0.314-1.603-0.697-2.061c-0.588-0.711-1.35-1.066-2.287-1.066
		c-0.848,0-1.561,0.284-2.138,0.851S653.512,63.637,653.451,64.587z"/>
	<path d="M663.746,58.168v-2.123h1.846v2.123H663.746z M663.746,71.078v-10.89h1.846v10.89H663.746z"/>
	<path d="M668.381,71.078v-10.89h1.66v1.651c0.424-0.772,0.815-1.282,1.175-1.528c0.358-0.246,0.753-0.369,1.185-0.369
		c0.621,0,1.254,0.198,1.896,0.595l-0.636,1.712c-0.451-0.267-0.902-0.4-1.354-0.4c-0.403,0-0.766,0.122-1.087,0.364
		s-0.551,0.579-0.688,1.01c-0.205,0.656-0.307,1.374-0.307,2.153v5.701H668.381z"/>
	<path d="M683.238,71.078l-3.332-10.89h1.906l1.733,6.286l0.646,2.338c0.027-0.117,0.216-0.865,0.564-2.246l1.732-6.378h1.897
		l1.63,6.316l0.544,2.081l0.626-2.102l1.865-6.296h1.795l-3.404,10.89h-1.918l-1.732-6.521l-0.42-1.856l-2.205,8.377H683.238z"/>
	<path d="M703.849,67.571l1.907,0.235c-0.301,1.115-0.857,1.979-1.672,2.595c-0.812,0.615-1.852,0.923-3.117,0.923
		c-1.592,0-2.855-0.49-3.788-1.472c-0.934-0.98-1.399-2.356-1.399-4.127c0-1.832,0.471-3.254,1.414-4.266s2.168-1.518,3.672-1.518
		c1.455,0,2.645,0.496,3.568,1.487c0.922,0.991,1.384,2.386,1.384,4.184c0,0.109-0.003,0.273-0.011,0.492h-8.121
		c0.068,1.196,0.407,2.112,1.016,2.749c0.608,0.635,1.367,0.953,2.276,0.953c0.677,0,1.255-0.178,1.733-0.533
		S703.568,68.351,703.849,67.571z M697.789,64.587h6.08c-0.082-0.916-0.314-1.603-0.697-2.061c-0.588-0.711-1.35-1.066-2.287-1.066
		c-0.848,0-1.561,0.284-2.138,0.851S697.85,63.637,697.789,64.587z"/>
	<path d="M715.139,71.078v-1.374c-0.691,1.08-1.706,1.62-3.046,1.62c-0.868,0-1.667-0.239-2.394-0.718
		c-0.729-0.479-1.293-1.146-1.693-2.005c-0.398-0.857-0.6-1.844-0.6-2.958c0-1.087,0.182-2.073,0.544-2.958s0.905-1.564,1.63-2.036
		s1.535-0.708,2.431-0.708c0.656,0,1.241,0.139,1.753,0.415c0.514,0.277,0.93,0.638,1.252,1.082v-5.394h1.835v15.032H715.139z
		 M709.304,65.644c0,1.395,0.294,2.437,0.882,3.128c0.588,0.689,1.281,1.035,2.082,1.035c0.807,0,1.492-0.33,2.055-0.989
		c0.564-0.659,0.847-1.667,0.847-3.02c0-1.49-0.287-2.584-0.861-3.281s-1.282-1.046-2.122-1.046c-0.82,0-1.506,0.335-2.057,1.005
		S709.304,64.201,709.304,65.644z"/>
	<path d="M726.817,71.078v-1.374c-0.69,1.08-1.706,1.62-3.046,1.62c-0.867,0-1.666-0.239-2.394-0.718
		c-0.729-0.479-1.292-1.146-1.692-2.005c-0.399-0.857-0.6-1.844-0.6-2.958c0-1.087,0.182-2.073,0.543-2.958
		c0.363-0.885,0.906-1.564,1.631-2.036s1.535-0.708,2.43-0.708c0.656,0,1.241,0.139,1.754,0.415c0.513,0.277,0.93,0.638,1.251,1.082
		v-5.394h1.835v15.032H726.817z M720.982,65.644c0,1.395,0.295,2.437,0.883,3.128c0.588,0.689,1.281,1.035,2.081,1.035
		c0.807,0,1.492-0.33,2.056-0.989c0.564-0.659,0.846-1.667,0.846-3.02c0-1.49-0.287-2.584-0.861-3.281s-1.281-1.046-2.122-1.046
		c-0.82,0-1.506,0.335-2.056,1.005C721.258,63.145,720.982,64.201,720.982,65.644z"/>
	<path d="M731.441,58.168v-2.123h1.846v2.123H731.441z M731.441,71.078v-10.89h1.846v10.89H731.441z"/>
	<path d="M736.098,71.078v-10.89h1.66v1.548c0.801-1.196,1.955-1.794,3.467-1.794c0.656,0,1.259,0.118,1.81,0.354
		c0.55,0.236,0.962,0.545,1.235,0.928s0.465,0.837,0.574,1.364c0.068,0.342,0.103,0.94,0.103,1.794v6.696h-1.846v-6.624
		c0-0.752-0.071-1.314-0.216-1.687c-0.143-0.373-0.398-0.67-0.764-0.893c-0.365-0.222-0.795-0.333-1.287-0.333
		c-0.785,0-1.465,0.25-2.035,0.749s-0.855,1.446-0.855,2.84v5.947H736.098z"/>
	<path d="M747.438,71.98l1.795,0.267c0.075,0.554,0.283,0.957,0.625,1.21c0.459,0.342,1.084,0.513,1.877,0.513
		c0.854,0,1.514-0.171,1.979-0.513s0.779-0.82,0.943-1.436c0.096-0.376,0.141-1.166,0.134-2.369
		c-0.807,0.951-1.812,1.426-3.015,1.426c-1.497,0-2.656-0.54-3.477-1.62s-1.23-2.376-1.23-3.886c0-1.039,0.188-1.998,0.564-2.876
		c0.376-0.878,0.921-1.557,1.635-2.035c0.715-0.479,1.555-0.718,2.518-0.718c1.285,0,2.346,0.52,3.18,1.559v-1.312h1.701v9.413
		c0,1.695-0.172,2.896-0.518,3.604c-0.346,0.707-0.893,1.267-1.641,1.677s-1.67,0.615-2.764,0.615c-1.299,0-2.348-0.293-3.147-0.877
		C747.797,74.036,747.41,73.156,747.438,71.98z M748.966,65.438c0,1.429,0.284,2.472,0.851,3.128
		c0.568,0.656,1.279,0.984,2.133,0.984c0.848,0,1.559-0.326,2.133-0.979s0.861-1.677,0.861-3.071c0-1.333-0.295-2.338-0.887-3.015
		s-1.304-1.015-2.138-1.015c-0.82,0-1.518,0.333-2.092,1C749.253,63.137,748.966,64.126,748.966,65.438z"/>
</g>
<g>
	<polygon points="450.798,54.506 449.798,54.506 449.798,34.67 117.5,34.67 117.5,54.506 116.5,54.506 116.5,33.67 450.798,33.67 
		450.798,54.506 	"/>
</g>
<g>
	<path d="M252.97,21.239c0.046,0.854,0.24,1.548,0.583,2.082c0.652,0.998,1.801,1.497,3.447,1.497c0.738,0,1.409-0.109,2.015-0.328
		c1.172-0.424,1.758-1.183,1.758-2.276c0-0.82-0.249-1.405-0.745-1.753c-0.503-0.342-1.291-0.639-2.364-0.892l-1.977-0.461
		c-1.292-0.301-2.205-0.632-2.742-0.995c-0.927-0.629-1.391-1.569-1.391-2.82c0-1.354,0.456-2.464,1.367-3.333
		c0.911-0.868,2.202-1.302,3.872-1.302c1.537,0,2.842,0.381,3.917,1.144c1.074,0.762,1.611,1.98,1.611,3.655h-1.917
		c-0.098-0.807-0.308-1.425-0.629-1.856c-0.596-0.786-1.609-1.179-3.038-1.179c-1.153,0-1.982,0.253-2.487,0.759
		s-0.757,1.094-0.757,1.764c0,0.738,0.298,1.278,0.894,1.62c0.391,0.219,1.275,0.492,2.653,0.82l2.046,0.482
		c0.987,0.232,1.749,0.55,2.285,0.954c0.927,0.704,1.391,1.726,1.391,3.066c0,1.668-0.592,2.861-1.775,3.579
		c-1.184,0.718-2.559,1.077-4.125,1.077c-1.827,0-3.257-0.479-4.29-1.436c-1.034-0.95-1.541-2.239-1.52-3.866H252.97z"/>
	<path d="M265.244,15.168h1.805v1.456c0.37-0.499,0.774-0.885,1.213-1.159c0.624-0.41,1.356-0.615,2.2-0.615
		c1.248,0,2.306,0.477,3.177,1.43c0.87,0.954,1.306,2.316,1.306,4.086c0,2.393-0.628,4.102-1.884,5.127
		c-0.796,0.649-1.723,0.974-2.779,0.974c-0.831,0-1.527-0.181-2.09-0.543c-0.33-0.205-0.697-0.557-1.102-1.056v5.609h-1.846V15.168z
		 M272.188,23.777c0.572-0.721,0.859-1.8,0.859-3.235c0-0.875-0.127-1.627-0.381-2.256c-0.48-1.21-1.358-1.815-2.634-1.815
		c-1.283,0-2.161,0.639-2.634,1.917c-0.254,0.684-0.381,1.552-0.381,2.604c0,0.848,0.127,1.569,0.381,2.164
		c0.48,1.135,1.358,1.702,2.634,1.702C270.896,24.858,271.615,24.498,272.188,23.777z"/>
	<path d="M285.034,16.213c0.971,0.942,1.456,2.329,1.456,4.159c0,1.769-0.428,3.23-1.283,4.385
		c-0.855,1.154-2.182,1.731-3.981,1.731c-1.5,0-2.691-0.51-3.574-1.532c-0.883-1.021-1.324-2.392-1.324-4.113
		c0-1.844,0.465-3.312,1.395-4.405c0.93-1.093,2.179-1.639,3.747-1.639C282.875,14.799,284.063,15.271,285.034,16.213z
		 M283.888,23.512c0.45-0.925,0.674-1.955,0.674-3.088c0-1.024-0.162-1.857-0.487-2.499c-0.514-1.01-1.399-1.516-2.656-1.516
		c-1.116,0-1.927,0.43-2.434,1.291s-0.76,1.898-0.76,3.113c0,1.168,0.253,2.141,0.76,2.919s1.312,1.167,2.414,1.167
		C282.608,24.899,283.438,24.437,283.888,23.512z"/>
	<path d="M290.602,15.117v7.291c0,0.561,0.086,1.019,0.26,1.374c0.319,0.656,0.915,0.984,1.788,0.984
		c1.251,0,2.104-0.574,2.556-1.723c0.247-0.615,0.37-1.459,0.37-2.533v-5.394h1.846v10.982h-1.743l0.021-1.62
		c-0.235,0.417-0.527,0.769-0.876,1.056c-0.69,0.574-1.529,0.861-2.515,0.861c-1.536,0-2.583-0.523-3.139-1.569
		c-0.302-0.561-0.453-1.309-0.453-2.246v-7.465H290.602z"/>
	<path d="M301.532,22.654c0.056,0.615,0.212,1.087,0.471,1.415c0.475,0.595,1.298,0.892,2.47,0.892c0.697,0,1.312-0.149,1.842-0.446
		c0.53-0.298,0.795-0.757,0.795-1.379c0-0.472-0.212-0.831-0.636-1.077c-0.271-0.15-0.806-0.325-1.605-0.523l-1.49-0.369
		c-0.952-0.232-1.654-0.492-2.105-0.779c-0.806-0.499-1.209-1.189-1.209-2.071c0-1.039,0.379-1.88,1.138-2.522
		c0.759-0.643,1.779-0.964,3.061-0.964c1.676,0,2.885,0.485,3.626,1.456c0.464,0.615,0.689,1.278,0.676,1.989h-1.743
		c-0.035-0.415-0.186-0.792-0.451-1.132c-0.434-0.483-1.187-0.724-2.257-0.724c-0.714,0-1.254,0.133-1.622,0.398
		c-0.367,0.266-0.551,0.617-0.551,1.052c0,0.477,0.241,0.858,0.724,1.145c0.278,0.17,0.689,0.32,1.233,0.45l1.243,0.297
		c1.351,0.321,2.256,0.632,2.716,0.933c0.718,0.472,1.077,1.213,1.077,2.225c0,0.978-0.375,1.822-1.126,2.533
		s-1.895,1.066-3.431,1.066c-1.654,0-2.825-0.371-3.514-1.113c-0.688-0.741-1.057-1.659-1.105-2.753H301.532z"/>
	<path d="M317.718,15.419c0.727,0.366,1.281,0.839,1.661,1.42c0.367,0.554,0.611,1.2,0.734,1.938
		c0.108,0.506,0.163,1.312,0.163,2.42h-7.988c0.034,1.117,0.295,2.014,0.784,2.689c0.488,0.675,1.244,1.013,2.269,1.013
		c0.956,0,1.719-0.319,2.289-0.958c0.319-0.371,0.545-0.8,0.678-1.288h1.815c-0.048,0.403-0.207,0.853-0.477,1.349
		c-0.271,0.496-0.572,0.9-0.904,1.215c-0.557,0.547-1.245,0.916-2.066,1.107c-0.441,0.109-0.939,0.164-1.496,0.164
		c-1.358,0-2.51-0.497-3.454-1.492c-0.944-0.994-1.417-2.387-1.417-4.178c0-1.764,0.476-3.196,1.427-4.296s2.194-1.651,3.73-1.651
		C316.241,14.871,316.991,15.054,317.718,15.419z M318.379,19.731c-0.075-0.8-0.248-1.439-0.519-1.917
		c-0.502-0.889-1.339-1.333-2.512-1.333c-0.84,0-1.545,0.306-2.115,0.918s-0.871,1.389-0.905,2.333H318.379z"/>
</g>
</svg>
